{"buffers":[{"uri":"scene_00025_00-instance.compressed.bin","byteLength":1576292},{"byteLength":9896868,"extensions":{"EXT_meshopt_compression":{"fallback":true}}}],"asset":{"version":"2.0","generator":"gltfpack 0.17"},"extensionsUsed":["KHR_mesh_quantization","EXT_meshopt_compression"],"extensionsRequired":["KHR_mesh_quantization","EXT_meshopt_compression"],"bufferViews":[{"buffer":1,"byteOffset":0,"byteLength":2220824,"byteStride":8,"target":34962,"extensions":{"EXT_meshopt_compression":{"buffer":0,"byteOffset":0,"byteLength":806476,"byteStride":8,"mode":"ATTRIBUTES","count":277603}}},{"buffer":1,"byteOffset":2220824,"byteLength":1110412,"byteStride":4,"target":34962,"extensions":{"EXT_meshopt_compression":{"buffer":0,"byteOffset":806476,"byteLength":148598,"byteStride":4,"mode":"ATTRIBUTES","count":277603}}},{"buffer":1,"byteOffset":3331236,"byteLength":6565632,"target":34963,"extensions":{"EXT_meshopt_compression":{"buffer":0,"byteOffset":955076,"byteLength":621214,"byteStride":4,"mode":"TRIANGLES","count":1641408}}}],"accessors":[{"bufferView":0,"byteOffset":0,"componentType":5123,"count":277603,"type":"VEC3","min":[0,0,0],"max":[16383,10596,5576]},{"bufferView":1,"byteOffset":0,"componentType":5121,"count":277603,"type":"VEC4","normalized":true},{"bufferView":2,"byteOffset":0,"componentType":5125,"count":1641408,"type":"SCALAR"}],"meshes":[{"primitives":[{"attributes":{"POSITION":0,"COLOR_0":1},"indices":2}]}],"nodes":[{"mesh":0,"translation":[-4.09347296,-2.64614296,-1.39247799],"scale":[0.000499450485,0.000499450485,0.000499450485]}],"scenes":[{"nodes":[0]}],"scene":0}