{"buffers":[{"uri":"scene_00025_00-texture.compressed.bin","byteLength":15088608},{"byteLength":8128148,"extensions":{"EXT_meshopt_compression":{"fallback":true}}}],"asset":{"version":"2.0","generator":"gltfpack 0.17"},"extensionsUsed":["KHR_mesh_quantization","EXT_meshopt_compression","KHR_texture_transform","KHR_materials_unlit","KHR_texture_basisu"],"extensionsRequired":["KHR_mesh_quantization","EXT_meshopt_compression","KHR_texture_basisu"],"bufferViews":[{"buffer":0,"byteOffset":0,"byteLength":4984},{"buffer":0,"byteOffset":4984,"byteLength":6996},{"buffer":0,"byteOffset":11980,"byteLength":23852},{"buffer":0,"byteOffset":35832,"byteLength":23425},{"buffer":0,"byteOffset":59260,"byteLength":75296},{"buffer":0,"byteOffset":134556,"byteLength":71842},{"buffer":0,"byteOffset":206400,"byteLength":617028},{"buffer":0,"byteOffset":823428,"byteLength":583753},{"buffer":0,"byteOffset":1407184,"byteLength":545055},{"buffer":0,"byteOffset":1952240,"byteLength":525759},{"buffer":0,"byteOffset":2478000,"byteLength":521108},{"buffer":0,"byteOffset":2999108,"byteLength":483635},{"buffer":0,"byteOffset":3482744,"byteLength":527123},{"buffer":0,"byteOffset":4009868,"byteLength":520762},{"buffer":0,"byteOffset":4530632,"byteLength":529650},{"buffer":0,"byteOffset":5060284,"byteLength":524010},{"buffer":0,"byteOffset":5584296,"byteLength":1842986},{"buffer":0,"byteOffset":7427284,"byteLength":1795096},{"buffer":0,"byteOffset":9222380,"byteLength":1828680},{"buffer":0,"byteOffset":11051060,"byteLength":1666906},{"buffer":1,"byteOffset":0,"byteLength":2814456,"byteStride":8,"target":34962,"extensions":{"EXT_meshopt_compression":{"buffer":0,"byteOffset":12717968,"byteLength":1061822,"byteStride":8,"mode":"ATTRIBUTES","count":351807}}},{"buffer":1,"byteOffset":2814456,"byteLength":1407228,"byteStride":4,"target":34962,"extensions":{"EXT_meshopt_compression":{"buffer":0,"byteOffset":13779792,"byteLength":659557,"byteStride":4,"mode":"ATTRIBUTES","count":351807}}},{"buffer":1,"byteOffset":4221684,"byteLength":2659170,"target":34963,"extensions":{"EXT_meshopt_compression":{"buffer":0,"byteOffset":14439352,"byteLength":495698,"byteStride":2,"mode":"TRIANGLES","count":1329585}}},{"buffer":1,"byteOffset":6880856,"byteLength":1247292,"target":34963,"extensions":{"EXT_meshopt_compression":{"buffer":0,"byteOffset":14935052,"byteLength":153555,"byteStride":4,"mode":"TRIANGLES","count":311823}}}],"accessors":[{"bufferView":20,"byteOffset":0,"componentType":5123,"count":376,"type":"VEC3","min":[142,209,40],"max":[14991,10388,5542]},{"bufferView":21,"byteOffset":0,"componentType":5123,"count":376,"type":"VEC2"},{"bufferView":22,"byteOffset":0,"componentType":5123,"count":420,"type":"SCALAR"},{"bufferView":20,"byteOffset":3008,"componentType":5123,"count":577,"type":"VEC3","min":[251,269,17],"max":[15973,10426,5526]},{"bufferView":21,"byteOffset":1504,"componentType":5123,"count":577,"type":"VEC2"},{"bufferView":22,"byteOffset":840,"componentType":5123,"count":747,"type":"SCALAR"},{"bufferView":20,"byteOffset":7624,"componentType":5123,"count":1161,"type":"VEC3","min":[54,164,40],"max":[16090,10540,5536]},{"bufferView":21,"byteOffset":3812,"componentType":5123,"count":1161,"type":"VEC2"},{"bufferView":22,"byteOffset":2334,"componentType":5123,"count":1749,"type":"SCALAR"},{"bufferView":20,"byteOffset":16912,"componentType":5123,"count":768,"type":"VEC3","min":[132,231,56],"max":[16314,10382,5543]},{"bufferView":21,"byteOffset":8456,"componentType":5123,"count":768,"type":"VEC2"},{"bufferView":22,"byteOffset":5832,"componentType":5123,"count":1146,"type":"SCALAR"},{"bufferView":20,"byteOffset":23056,"componentType":5123,"count":1770,"type":"VEC3","min":[170,302,50],"max":[15612,10403,5536]},{"bufferView":21,"byteOffset":11528,"componentType":5123,"count":1770,"type":"VEC2"},{"bufferView":22,"byteOffset":8124,"componentType":5123,"count":3675,"type":"SCALAR"},{"bufferView":20,"byteOffset":37216,"componentType":5123,"count":1784,"type":"VEC3","min":[653,270,28],"max":[16228,10334,5530]},{"bufferView":21,"byteOffset":18608,"componentType":5123,"count":1784,"type":"VEC2"},{"bufferView":22,"byteOffset":15474,"componentType":5123,"count":5508,"type":"SCALAR"},{"bufferView":20,"byteOffset":51488,"componentType":5123,"count":16210,"type":"VEC3","min":[397,152,37],"max":[16383,10596,5536]},{"bufferView":21,"byteOffset":25744,"componentType":5123,"count":16210,"type":"VEC2"},{"bufferView":22,"byteOffset":26490,"componentType":5123,"count":68877,"type":"SCALAR"},{"bufferView":20,"byteOffset":181168,"componentType":5123,"count":15795,"type":"VEC3","min":[539,63,10],"max":[15997,10521,5535]},{"bufferView":21,"byteOffset":90584,"componentType":5123,"count":15795,"type":"VEC2"},{"bufferView":22,"byteOffset":164244,"componentType":5123,"count":73905,"type":"SCALAR"},{"bufferView":20,"byteOffset":307528,"componentType":5123,"count":14104,"type":"VEC3","min":[192,263,54],"max":[15465,10457,5542]},{"bufferView":21,"byteOffset":153764,"componentType":5123,"count":14104,"type":"VEC2"},{"bufferView":22,"byteOffset":312054,"componentType":5123,"count":67428,"type":"SCALAR"},{"bufferView":20,"byteOffset":420360,"componentType":5123,"count":16989,"type":"VEC3","min":[5,272,50],"max":[15894,10234,5543]},{"bufferView":21,"byteOffset":210180,"componentType":5123,"count":16989,"type":"VEC2"},{"bufferView":22,"byteOffset":446910,"componentType":5123,"count":85692,"type":"SCALAR"},{"bufferView":20,"byteOffset":556272,"componentType":5123,"count":14056,"type":"VEC3","min":[549,102,52],"max":[15840,10471,5536]},{"bufferView":21,"byteOffset":278136,"componentType":5123,"count":14056,"type":"VEC2"},{"bufferView":22,"byteOffset":618294,"componentType":5123,"count":70173,"type":"SCALAR"},{"bufferView":20,"byteOffset":668720,"componentType":5123,"count":12682,"type":"VEC3","min":[1720,102,47],"max":[15914,10360,5534]},{"bufferView":21,"byteOffset":334360,"componentType":5123,"count":12682,"type":"VEC2"},{"bufferView":22,"byteOffset":758640,"componentType":5123,"count":63630,"type":"SCALAR"},{"bufferView":20,"byteOffset":770176,"componentType":5123,"count":13240,"type":"VEC3","min":[0,299,0],"max":[16120,9241,5534]},{"bufferView":21,"byteOffset":385088,"componentType":5123,"count":13240,"type":"VEC2"},{"bufferView":22,"byteOffset":885900,"componentType":5123,"count":66366,"type":"SCALAR"},{"bufferView":20,"byteOffset":876096,"componentType":5123,"count":13359,"type":"VEC3","min":[764,98,30],"max":[14615,10282,5541]},{"bufferView":21,"byteOffset":438048,"componentType":5123,"count":13359,"type":"VEC2"},{"bufferView":22,"byteOffset":1018632,"componentType":5123,"count":67572,"type":"SCALAR"},{"bufferView":20,"byteOffset":982968,"componentType":5123,"count":12103,"type":"VEC3","min":[625,255,53],"max":[16252,8764,5528]},{"bufferView":21,"byteOffset":491484,"componentType":5123,"count":12103,"type":"VEC2"},{"bufferView":22,"byteOffset":1153776,"componentType":5123,"count":61863,"type":"SCALAR"},{"bufferView":20,"byteOffset":1079792,"componentType":5123,"count":12176,"type":"VEC3","min":[2945,239,58],"max":[14515,10308,5526]},{"bufferView":21,"byteOffset":539896,"componentType":5123,"count":12176,"type":"VEC2"},{"bufferView":22,"byteOffset":1277502,"componentType":5123,"count":62871,"type":"SCALAR"},{"bufferView":20,"byteOffset":1177200,"componentType":5123,"count":37734,"type":"VEC3","min":[1253,243,38],"max":[16377,9520,5550]},{"bufferView":21,"byteOffset":588600,"componentType":5123,"count":37734,"type":"VEC2"},{"bufferView":22,"byteOffset":1403244,"componentType":5123,"count":195906,"type":"SCALAR"},{"bufferView":20,"byteOffset":1479072,"componentType":5123,"count":43077,"type":"VEC3","min":[309,120,40],"max":[14653,10424,5542]},{"bufferView":21,"byteOffset":739536,"componentType":5123,"count":43077,"type":"VEC2"},{"bufferView":22,"byteOffset":1795056,"componentType":5123,"count":228528,"type":"SCALAR"},{"bufferView":20,"byteOffset":1823688,"componentType":5123,"count":37977,"type":"VEC3","min":[1513,0,52],"max":[15033,7262,5576]},{"bufferView":21,"byteOffset":911844,"componentType":5123,"count":37977,"type":"VEC2"},{"bufferView":22,"byteOffset":2252112,"componentType":5123,"count":203529,"type":"SCALAR"},{"bufferView":20,"byteOffset":2127504,"componentType":5123,"count":85869,"type":"VEC3","min":[72,77,10],"max":[16292,10540,5569]},{"bufferView":21,"byteOffset":1063752,"componentType":5123,"count":85869,"type":"VEC2"},{"bufferView":23,"byteOffset":0,"componentType":5125,"count":311823,"type":"SCALAR"}],"images":[{"bufferView":0,"mimeType":"image/ktx2"},{"bufferView":1,"mimeType":"image/ktx2"},{"bufferView":2,"mimeType":"image/ktx2"},{"bufferView":3,"mimeType":"image/ktx2"},{"bufferView":4,"mimeType":"image/ktx2"},{"bufferView":5,"mimeType":"image/ktx2"},{"bufferView":6,"mimeType":"image/ktx2"},{"bufferView":7,"mimeType":"image/ktx2"},{"bufferView":8,"mimeType":"image/ktx2"},{"bufferView":9,"mimeType":"image/ktx2"},{"bufferView":10,"mimeType":"image/ktx2"},{"bufferView":11,"mimeType":"image/ktx2"},{"bufferView":12,"mimeType":"image/ktx2"},{"bufferView":13,"mimeType":"image/ktx2"},{"bufferView":14,"mimeType":"image/ktx2"},{"bufferView":15,"mimeType":"image/ktx2"},{"bufferView":16,"mimeType":"image/ktx2"},{"bufferView":17,"mimeType":"image/ktx2"},{"bufferView":18,"mimeType":"image/ktx2"},{"bufferView":19,"mimeType":"image/ktx2"}],"textures":[{"extensions":{"KHR_texture_basisu":{"source":0}}},{"extensions":{"KHR_texture_basisu":{"source":1}}},{"extensions":{"KHR_texture_basisu":{"source":2}}},{"extensions":{"KHR_texture_basisu":{"source":3}}},{"extensions":{"KHR_texture_basisu":{"source":4}}},{"extensions":{"KHR_texture_basisu":{"source":5}}},{"extensions":{"KHR_texture_basisu":{"source":6}}},{"extensions":{"KHR_texture_basisu":{"source":7}}},{"extensions":{"KHR_texture_basisu":{"source":8}}},{"extensions":{"KHR_texture_basisu":{"source":9}}},{"extensions":{"KHR_texture_basisu":{"source":10}}},{"extensions":{"KHR_texture_basisu":{"source":11}}},{"extensions":{"KHR_texture_basisu":{"source":12}}},{"extensions":{"KHR_texture_basisu":{"source":13}}},{"extensions":{"KHR_texture_basisu":{"source":14}}},{"extensions":{"KHR_texture_basisu":{"source":15}}},{"extensions":{"KHR_texture_basisu":{"source":16}}},{"extensions":{"KHR_texture_basisu":{"source":17}}},{"extensions":{"KHR_texture_basisu":{"source":18}}},{"extensions":{"KHR_texture_basisu":{"source":19}}}],"materials":[{"pbrMetallicRoughness":{"baseColorTexture":{"index":0,"extensions":{"KHR_texture_transform":{"offset":[0.0118739996,0.0118779996],"scale":[0.000237484972,0.000126667888]}}},"roughnessFactor":0.903602004},"extensions":{"KHR_materials_unlit":{}}},{"pbrMetallicRoughness":{"baseColorTexture":{"index":1,"extensions":{"KHR_texture_transform":{"offset":[0.0119040003,0.0122419996],"scale":[0.000237165572,0.000238240769]}}},"roughnessFactor":0.903602004},"extensions":{"KHR_materials_unlit":{}}},{"pbrMetallicRoughness":{"baseColorTexture":{"index":2,"extensions":{"KHR_texture_transform":{"offset":[0.00993200019,0.00977999996],"scale":[0.000239389992,0.000238833221]}}},"roughnessFactor":0.903602004},"extensions":{"KHR_materials_unlit":{}}},{"pbrMetallicRoughness":{"baseColorTexture":{"index":3,"extensions":{"KHR_texture_transform":{"offset":[0.00997699983,0.00986200012],"scale":[0.000238782668,0.000238911351]}}},"roughnessFactor":0.903602004},"extensions":{"KHR_materials_unlit":{}}},{"pbrMetallicRoughness":{"baseColorTexture":{"index":4,"extensions":{"KHR_texture_transform":{"offset":[0.00881700031,0.00880200043],"scale":[0.000239620262,0.000239646412]}}},"roughnessFactor":0.903602004},"extensions":{"KHR_materials_unlit":{}}},{"pbrMetallicRoughness":{"baseColorTexture":{"index":5,"extensions":{"KHR_texture_transform":{"offset":[0.00881300028,0.0087890001],"scale":[0.000239901827,0.000239647139]}}},"roughnessFactor":0.903602004},"extensions":{"KHR_materials_unlit":{}}},{"pbrMetallicRoughness":{"baseColorTexture":{"index":6,"extensions":{"KHR_texture_transform":{"offset":[0.00809300039,0.00806100015],"scale":[0.000240196823,0.000240204405]}}},"roughnessFactor":0.903602004},"extensions":{"KHR_materials_unlit":{}}},{"pbrMetallicRoughness":{"baseColorTexture":{"index":7,"extensions":{"KHR_texture_transform":{"offset":[0.008072,0.0080939997],"scale":[0.00024019902,0.000240185356]}}},"roughnessFactor":0.903602004},"extensions":{"KHR_materials_unlit":{}}},{"pbrMetallicRoughness":{"baseColorTexture":{"index":8,"extensions":{"KHR_texture_transform":{"offset":[0.00805999991,0.00808699988],"scale":[0.000240195863,0.000240195121]}}},"roughnessFactor":0.903602004},"extensions":{"KHR_materials_unlit":{}}},{"pbrMetallicRoughness":{"baseColorTexture":{"index":9,"extensions":{"KHR_texture_transform":{"offset":[0.00812199991,0.00805800036],"scale":[0.000240174108,0.000240192428]}}},"roughnessFactor":0.903602004},"extensions":{"KHR_materials_unlit":{}}},{"pbrMetallicRoughness":{"baseColorTexture":{"index":10,"extensions":{"KHR_texture_transform":{"offset":[0.0081550004,0.00815999974],"scale":[0.000240144087,0.000240136025]}}},"roughnessFactor":0.903602004},"extensions":{"KHR_materials_unlit":{}}},{"pbrMetallicRoughness":{"baseColorTexture":{"index":11,"extensions":{"KHR_texture_transform":{"offset":[0.00816200022,0.00808400009],"scale":[0.000240161156,0.000240168738]}}},"roughnessFactor":0.903602004},"extensions":{"KHR_materials_unlit":{}}},{"pbrMetallicRoughness":{"baseColorTexture":{"index":12,"extensions":{"KHR_texture_transform":{"offset":[0.00808900036,0.00810599979],"scale":[0.000240257388,0.000240086942]}}},"roughnessFactor":0.903602004},"extensions":{"KHR_materials_unlit":{}}},{"pbrMetallicRoughness":{"baseColorTexture":{"index":13,"extensions":{"KHR_texture_transform":{"offset":[0.00805700012,0.00806600042],"scale":[0.000240085952,0.000240185109]}}},"roughnessFactor":0.903602004},"extensions":{"KHR_materials_unlit":{}}},{"pbrMetallicRoughness":{"baseColorTexture":{"index":14,"extensions":{"KHR_texture_transform":{"offset":[0.00809499994,0.00807099976],"scale":[0.000240182664,0.000240182912]}}},"roughnessFactor":0.903602004},"extensions":{"KHR_materials_unlit":{}}},{"pbrMetallicRoughness":{"baseColorTexture":{"index":15,"extensions":{"KHR_texture_transform":{"offset":[0.00809799973,0.00805899967],"scale":[0.000239963862,0.000240197798]}}},"roughnessFactor":0.903602004},"extensions":{"KHR_materials_unlit":{}}},{"pbrMetallicRoughness":{"baseColorTexture":{"index":16,"extensions":{"KHR_texture_transform":{"offset":[0.00796000008,0.00793999992],"scale":[0.000240263733,0.000240282287]}}},"roughnessFactor":0.903602004},"extensions":{"KHR_materials_unlit":{}}},{"pbrMetallicRoughness":{"baseColorTexture":{"index":17,"extensions":{"KHR_texture_transform":{"offset":[0.00796000008,0.00794799998],"scale":[0.000240267633,0.000240281079]}}},"roughnessFactor":0.903602004},"extensions":{"KHR_materials_unlit":{}}},{"pbrMetallicRoughness":{"baseColorTexture":{"index":18,"extensions":{"KHR_texture_transform":{"offset":[0.00793999992,0.00794100016],"scale":[0.000240252994,0.000240232228]}}},"roughnessFactor":0.903602004},"extensions":{"KHR_materials_unlit":{}}},{"pbrMetallicRoughness":{"baseColorTexture":{"index":19,"extensions":{"KHR_texture_transform":{"offset":[0.00793700013,0.00793599989],"scale":[0.000240285211,0.000240257636]}}},"roughnessFactor":0.903602004},"extensions":{"KHR_materials_unlit":{}}}],"meshes":[{"primitives":[{"attributes":{"POSITION":0,"TEXCOORD_0":1},"indices":2,"material":0},{"attributes":{"POSITION":3,"TEXCOORD_0":4},"indices":5,"material":1},{"attributes":{"POSITION":6,"TEXCOORD_0":7},"indices":8,"material":2},{"attributes":{"POSITION":9,"TEXCOORD_0":10},"indices":11,"material":3},{"attributes":{"POSITION":12,"TEXCOORD_0":13},"indices":14,"material":4},{"attributes":{"POSITION":15,"TEXCOORD_0":16},"indices":17,"material":5},{"attributes":{"POSITION":18,"TEXCOORD_0":19},"indices":20,"material":6},{"attributes":{"POSITION":21,"TEXCOORD_0":22},"indices":23,"material":7},{"attributes":{"POSITION":24,"TEXCOORD_0":25},"indices":26,"material":8},{"attributes":{"POSITION":27,"TEXCOORD_0":28},"indices":29,"material":9},{"attributes":{"POSITION":30,"TEXCOORD_0":31},"indices":32,"material":10},{"attributes":{"POSITION":33,"TEXCOORD_0":34},"indices":35,"material":11},{"attributes":{"POSITION":36,"TEXCOORD_0":37},"indices":38,"material":12},{"attributes":{"POSITION":39,"TEXCOORD_0":40},"indices":41,"material":13},{"attributes":{"POSITION":42,"TEXCOORD_0":43},"indices":44,"material":14},{"attributes":{"POSITION":45,"TEXCOORD_0":46},"indices":47,"material":15},{"attributes":{"POSITION":48,"TEXCOORD_0":49},"indices":50,"material":16},{"attributes":{"POSITION":51,"TEXCOORD_0":52},"indices":53,"material":17},{"attributes":{"POSITION":54,"TEXCOORD_0":55},"indices":56,"material":18},{"attributes":{"POSITION":57,"TEXCOORD_0":58},"indices":59,"material":19}]}],"nodes":[{"mesh":0,"translation":[-4.09347296,-2.64614296,-1.39247799],"scale":[0.000499450485,0.000499450485,0.000499450485]}],"scenes":[{"nodes":[0]}],"scene":0}