{"buffers":[{"uri":"scene_00025_00-obb.compressed.bin","byteLength":1610020},{"byteLength":10256244,"extensions":{"EXT_meshopt_compression":{"fallback":true}}}],"asset":{"version":"2.0","generator":"gltfpack 0.17"},"extensionsUsed":["KHR_mesh_quantization","EXT_meshopt_compression"],"extensionsRequired":["KHR_mesh_quantization","EXT_meshopt_compression"],"bufferViews":[{"buffer":1,"byteOffset":0,"byteLength":2302968,"byteStride":8,"target":34962,"extensions":{"EXT_meshopt_compression":{"buffer":0,"byteOffset":0,"byteLength":839160,"byteStride":8,"mode":"ATTRIBUTES","count":287871}}},{"buffer":1,"byteOffset":2302968,"byteLength":1151484,"byteStride":4,"target":34962,"extensions":{"EXT_meshopt_compression":{"buffer":0,"byteOffset":839160,"byteLength":127666,"byteStride":4,"mode":"ATTRIBUTES","count":287871}}},{"buffer":1,"byteOffset":3454452,"byteLength":6801792,"target":34963,"extensions":{"EXT_meshopt_compression":{"buffer":0,"byteOffset":966828,"byteLength":643192,"byteStride":4,"mode":"TRIANGLES","count":1700448}}}],"accessors":[{"bufferView":0,"byteOffset":0,"componentType":5123,"count":287871,"type":"VEC3","min":[0,0,0],"max":[16383,10625,5637]},{"bufferView":1,"byteOffset":0,"componentType":5121,"count":287871,"type":"VEC4","normalized":true},{"bufferView":2,"byteOffset":0,"componentType":5125,"count":1700448,"type":"SCALAR"}],"meshes":[{"primitives":[{"attributes":{"POSITION":0,"COLOR_0":1},"indices":2}]}],"nodes":[{"mesh":0,"translation":[-4.10347319,-2.65766406,-1.40247798],"scale":[0.000500060851,0.000500060851,0.000500060851]}],"scenes":[{"nodes":[0]}],"scene":0}