{"buffers":[{"uri":"scene_00025_00-articulation.compressed.bin","byteLength":9445464},{"byteLength":47207124,"extensions":{"EXT_meshopt_compression":{"fallback":true}}}],"asset":{"version":"2.0","generator":"gltfpack 0.17"},"extensionsUsed":["KHR_mesh_quantization","EXT_meshopt_compression"],"extensionsRequired":["KHR_mesh_quantization","EXT_meshopt_compression"],"bufferViews":[{"buffer":1,"byteOffset":0,"byteLength":3309080,"byteStride":8,"target":34962,"extensions":{"EXT_meshopt_compression":{"buffer":0,"byteOffset":0,"byteLength":1047228,"byteStride":8,"mode":"ATTRIBUTES","count":413635}}},{"buffer":1,"byteOffset":3309080,"byteLength":1654540,"byteStride":4,"target":34962,"extensions":{"EXT_meshopt_compression":{"buffer":0,"byteOffset":1047228,"byteLength":81334,"byteStride":4,"mode":"ATTRIBUTES","count":413635}}},{"buffer":1,"byteOffset":4963620,"byteLength":42243504,"target":34963,"extensions":{"EXT_meshopt_compression":{"buffer":0,"byteOffset":1128564,"byteLength":8316900,"byteStride":4,"mode":"TRIANGLES","count":10560876}}}],"accessors":[{"bufferView":0,"byteOffset":0,"componentType":5123,"count":413635,"type":"VEC3","min":[0,0,0],"max":[16383,10596,6398]},{"bufferView":1,"byteOffset":0,"componentType":5121,"count":413635,"type":"VEC4","normalized":true},{"bufferView":2,"byteOffset":0,"componentType":5125,"count":10560876,"type":"SCALAR"}],"materials":[{"pbrMetallicRoughness":{},"doubleSided":true,"alphaMode":"BLEND"}],"meshes":[{"primitives":[{"attributes":{"POSITION":0,"COLOR_0":1},"indices":2,"material":0}]}],"nodes":[{"mesh":0,"translation":[-4.09347296,-2.64614296,-1.8028065],"scale":[0.000499450485,0.000499450485,0.000499450485]}],"scenes":[{"nodes":[0]}],"scene":0}