{"buffers":[{"uri":"scene_00119_01-articulation.compressed.bin","byteLength":1163224},{"byteLength":7708236,"extensions":{"EXT_meshopt_compression":{"fallback":true}}}],"asset":{"version":"2.0","generator":"gltfpack 0.17"},"extensionsUsed":["KHR_mesh_quantization","EXT_meshopt_compression"],"extensionsRequired":["KHR_mesh_quantization","EXT_meshopt_compression"],"bufferViews":[{"buffer":1,"byteOffset":0,"byteLength":1676776,"byteStride":8,"target":34962,"extensions":{"EXT_meshopt_compression":{"buffer":0,"byteOffset":0,"byteLength":619210,"byteStride":8,"mode":"ATTRIBUTES","count":209597}}},{"buffer":1,"byteOffset":1676776,"byteLength":838388,"byteStride":4,"target":34962,"extensions":{"EXT_meshopt_compression":{"buffer":0,"byteOffset":619212,"byteLength":25882,"byteStride":4,"mode":"ATTRIBUTES","count":209597}}},{"buffer":1,"byteOffset":2515164,"byteLength":5193072,"target":34963,"extensions":{"EXT_meshopt_compression":{"buffer":0,"byteOffset":645096,"byteLength":518126,"byteStride":4,"mode":"TRIANGLES","count":1298268}}}],"accessors":[{"bufferView":0,"byteOffset":0,"componentType":5123,"count":209597,"type":"VEC3","min":[0,0,0],"max":[9827,16383,6738]},{"bufferView":1,"byteOffset":0,"componentType":5121,"count":209597,"type":"VEC4","normalized":true},{"bufferView":2,"byteOffset":0,"componentType":5125,"count":1298268,"type":"SCALAR"}],"materials":[{"pbrMetallicRoughness":{},"doubleSided":true,"alphaMode":"BLEND"}],"meshes":[{"primitives":[{"attributes":{"POSITION":0,"COLOR_0":1},"indices":2,"material":0}]}],"nodes":[{"mesh":0,"translation":[-1.90995765,-3.68797326,-1.2934947],"scale":[0.000384434999,0.000384434999,0.000384434999]}],"scenes":[{"nodes":[0]}],"scene":0}