{"buffers":[{"uri":"scene_00119_01-texture.compressed.bin","byteLength":8888584},{"byteLength":5991848,"extensions":{"EXT_meshopt_compression":{"fallback":true}}}],"asset":{"version":"2.0","generator":"gltfpack 0.17"},"extensionsUsed":["KHR_mesh_quantization","EXT_meshopt_compression","KHR_texture_transform","KHR_materials_unlit","KHR_texture_basisu"],"extensionsRequired":["KHR_mesh_quantization","EXT_meshopt_compression","KHR_texture_basisu"],"bufferViews":[{"buffer":0,"byteOffset":0,"byteLength":3011},{"buffer":0,"byteOffset":3012,"byteLength":21889},{"buffer":0,"byteOffset":24904,"byteLength":22151},{"buffer":0,"byteOffset":47056,"byteLength":71126},{"buffer":0,"byteOffset":118184,"byteLength":68129},{"buffer":0,"byteOffset":186316,"byteLength":187598},{"buffer":0,"byteOffset":373916,"byteLength":540239},{"buffer":0,"byteOffset":914156,"byteLength":506623},{"buffer":0,"byteOffset":1420780,"byteLength":480623},{"buffer":0,"byteOffset":1901404,"byteLength":450799},{"buffer":0,"byteOffset":2352204,"byteLength":417856},{"buffer":0,"byteOffset":2770060,"byteLength":416467},{"buffer":0,"byteOffset":3186528,"byteLength":391890},{"buffer":0,"byteOffset":3578420,"byteLength":1371980},{"buffer":0,"byteOffset":4950400,"byteLength":1178668},{"buffer":0,"byteOffset":6129068,"byteLength":1055380},{"buffer":1,"byteOffset":0,"byteLength":2019224,"byteStride":8,"target":34962,"extensions":{"EXT_meshopt_compression":{"buffer":0,"byteOffset":7184448,"byteLength":796817,"byteStride":8,"mode":"ATTRIBUTES","count":252403}}},{"buffer":1,"byteOffset":2019224,"byteLength":1009612,"byteStride":4,"target":34962,"extensions":{"EXT_meshopt_compression":{"buffer":0,"byteOffset":7981268,"byteLength":445858,"byteStride":4,"mode":"ATTRIBUTES","count":252403}}},{"buffer":1,"byteOffset":3028836,"byteLength":1651542,"target":34963,"extensions":{"EXT_meshopt_compression":{"buffer":0,"byteOffset":8427128,"byteLength":308013,"byteStride":2,"mode":"TRIANGLES","count":825771}}},{"buffer":1,"byteOffset":4680380,"byteLength":1311468,"target":34963,"extensions":{"EXT_meshopt_compression":{"buffer":0,"byteOffset":8735144,"byteLength":153440,"byteStride":4,"mode":"TRIANGLES","count":327867}}}],"accessors":[{"bufferView":16,"byteOffset":0,"componentType":5123,"count":118,"type":"VEC3","min":[83,5608,33],"max":[9439,13426,6638]},{"bufferView":17,"byteOffset":0,"componentType":5123,"count":118,"type":"VEC2"},{"bufferView":18,"byteOffset":0,"componentType":5123,"count":144,"type":"SCALAR"},{"bufferView":16,"byteOffset":944,"componentType":5123,"count":982,"type":"VEC3","min":[118,298,78],"max":[9361,13496,6645]},{"bufferView":17,"byteOffset":472,"componentType":5123,"count":982,"type":"VEC2"},{"bufferView":18,"byteOffset":288,"componentType":5123,"count":1314,"type":"SCALAR"},{"bufferView":16,"byteOffset":8800,"componentType":5123,"count":744,"type":"VEC3","min":[68,283,42],"max":[9435,13513,6667]},{"bufferView":17,"byteOffset":4400,"componentType":5123,"count":744,"type":"VEC2"},{"bufferView":18,"byteOffset":2916,"componentType":5123,"count":1110,"type":"SCALAR"},{"bufferView":16,"byteOffset":14752,"componentType":5123,"count":1619,"type":"VEC3","min":[63,2304,80],"max":[9438,13956,6666]},{"bufferView":17,"byteOffset":7376,"componentType":5123,"count":1619,"type":"VEC2"},{"bufferView":18,"byteOffset":5136,"componentType":5123,"count":3336,"type":"SCALAR"},{"bufferView":16,"byteOffset":27704,"componentType":5123,"count":1501,"type":"VEC3","min":[61,66,72],"max":[9452,14040,6695]},{"bufferView":17,"byteOffset":13852,"componentType":5123,"count":1501,"type":"VEC2"},{"bufferView":18,"byteOffset":11808,"componentType":5123,"count":4185,"type":"SCALAR"},{"bufferView":16,"byteOffset":39712,"componentType":5123,"count":4795,"type":"VEC3","min":[56,0,3],"max":[9442,13953,6666]},{"bufferView":17,"byteOffset":19856,"componentType":5123,"count":4795,"type":"VEC2"},{"bufferView":18,"byteOffset":20178,"componentType":5123,"count":17223,"type":"SCALAR"},{"bufferView":16,"byteOffset":78072,"componentType":5123,"count":13792,"type":"VEC3","min":[61,2613,54],"max":[9464,14370,6709]},{"bufferView":17,"byteOffset":39036,"componentType":5123,"count":13792,"type":"VEC2"},{"bufferView":18,"byteOffset":54624,"componentType":5123,"count":59310,"type":"SCALAR"},{"bufferView":16,"byteOffset":188408,"componentType":5123,"count":12854,"type":"VEC3","min":[64,200,15],"max":[9460,13748,6664]},{"bufferView":17,"byteOffset":94204,"componentType":5123,"count":12854,"type":"VEC2"},{"bufferView":18,"byteOffset":173244,"componentType":5123,"count":60732,"type":"SCALAR"},{"bufferView":16,"byteOffset":291240,"componentType":5123,"count":12766,"type":"VEC3","min":[50,6,25],"max":[9461,13431,6705]},{"bufferView":17,"byteOffset":145620,"componentType":5123,"count":12766,"type":"VEC2"},{"bufferView":18,"byteOffset":294708,"componentType":5123,"count":62427,"type":"SCALAR"},{"bufferView":16,"byteOffset":393368,"componentType":5123,"count":12374,"type":"VEC3","min":[58,3976,48],"max":[9475,14293,6648]},{"bufferView":17,"byteOffset":196684,"componentType":5123,"count":12374,"type":"VEC2"},{"bufferView":18,"byteOffset":419562,"componentType":5123,"count":61017,"type":"SCALAR"},{"bufferView":16,"byteOffset":492360,"componentType":5123,"count":13003,"type":"VEC3","min":[25,93,57],"max":[9475,14085,6682]},{"bufferView":17,"byteOffset":246180,"componentType":5123,"count":13003,"type":"VEC2"},{"bufferView":18,"byteOffset":541596,"componentType":5123,"count":65025,"type":"SCALAR"},{"bufferView":16,"byteOffset":596384,"componentType":5123,"count":11247,"type":"VEC3","min":[96,5002,25],"max":[9478,13314,6648]},{"bufferView":17,"byteOffset":298192,"componentType":5123,"count":11247,"type":"VEC2"},{"bufferView":18,"byteOffset":671646,"componentType":5123,"count":56595,"type":"SCALAR"},{"bufferView":16,"byteOffset":686360,"componentType":5123,"count":13043,"type":"VEC3","min":[83,6255,98],"max":[9440,13588,6694]},{"bufferView":17,"byteOffset":343180,"componentType":5123,"count":13043,"type":"VEC2"},{"bufferView":18,"byteOffset":784836,"componentType":5123,"count":66903,"type":"SCALAR"},{"bufferView":16,"byteOffset":790704,"componentType":5123,"count":84895,"type":"VEC3","min":[0,19,0],"max":[9680,16383,6738]},{"bufferView":17,"byteOffset":395352,"componentType":5123,"count":84895,"type":"VEC2"},{"bufferView":19,"byteOffset":0,"componentType":5125,"count":327867,"type":"SCALAR"},{"bufferView":16,"byteOffset":1469864,"componentType":5123,"count":31846,"type":"VEC3","min":[109,5535,106],"max":[9827,13907,6691]},{"bufferView":17,"byteOffset":734932,"componentType":5123,"count":31846,"type":"VEC2"},{"bufferView":18,"byteOffset":918642,"componentType":5123,"count":168222,"type":"SCALAR"},{"bufferView":16,"byteOffset":1724632,"componentType":5123,"count":36824,"type":"VEC3","min":[69,3266,25],"max":[9475,13514,6731]},{"bufferView":17,"byteOffset":862316,"componentType":5123,"count":36824,"type":"VEC2"},{"bufferView":18,"byteOffset":1255086,"componentType":5123,"count":198228,"type":"SCALAR"}],"images":[{"bufferView":0,"mimeType":"image/ktx2"},{"bufferView":1,"mimeType":"image/ktx2"},{"bufferView":2,"mimeType":"image/ktx2"},{"bufferView":3,"mimeType":"image/ktx2"},{"bufferView":4,"mimeType":"image/ktx2"},{"bufferView":5,"mimeType":"image/ktx2"},{"bufferView":6,"mimeType":"image/ktx2"},{"bufferView":7,"mimeType":"image/ktx2"},{"bufferView":8,"mimeType":"image/ktx2"},{"bufferView":9,"mimeType":"image/ktx2"},{"bufferView":10,"mimeType":"image/ktx2"},{"bufferView":11,"mimeType":"image/ktx2"},{"bufferView":12,"mimeType":"image/ktx2"},{"bufferView":13,"mimeType":"image/ktx2"},{"bufferView":14,"mimeType":"image/ktx2"},{"bufferView":15,"mimeType":"image/ktx2"}],"textures":[{"extensions":{"KHR_texture_basisu":{"source":0}}},{"extensions":{"KHR_texture_basisu":{"source":1}}},{"extensions":{"KHR_texture_basisu":{"source":2}}},{"extensions":{"KHR_texture_basisu":{"source":3}}},{"extensions":{"KHR_texture_basisu":{"source":4}}},{"extensions":{"KHR_texture_basisu":{"source":5}}},{"extensions":{"KHR_texture_basisu":{"source":6}}},{"extensions":{"KHR_texture_basisu":{"source":7}}},{"extensions":{"KHR_texture_basisu":{"source":8}}},{"extensions":{"KHR_texture_basisu":{"source":9}}},{"extensions":{"KHR_texture_basisu":{"source":10}}},{"extensions":{"KHR_texture_basisu":{"source":11}}},{"extensions":{"KHR_texture_basisu":{"source":12}}},{"extensions":{"KHR_texture_basisu":{"source":13}}},{"extensions":{"KHR_texture_basisu":{"source":14}}},{"extensions":{"KHR_texture_basisu":{"source":15}}}],"materials":[{"pbrMetallicRoughness":{"baseColorTexture":{"index":0,"extensions":{"KHR_texture_transform":{"offset":[0.0117189996,0.0127450004],"scale":[0.000237135522,7.67772872e-05]}}},"roughnessFactor":0.903602004},"extensions":{"KHR_materials_unlit":{}}},{"pbrMetallicRoughness":{"baseColorTexture":{"index":1,"extensions":{"KHR_texture_transform":{"offset":[0.00976600032,0.00984099973],"scale":[0.000238953609,0.000239321365]}}},"roughnessFactor":0.903602004},"extensions":{"KHR_materials_unlit":{}}},{"pbrMetallicRoughness":{"baseColorTexture":{"index":2,"extensions":{"KHR_texture_transform":{"offset":[0.00997500028,0.00976600032],"scale":[0.000238426117,0.000239430534]}}},"roughnessFactor":0.903602004},"extensions":{"KHR_materials_unlit":{}}},{"pbrMetallicRoughness":{"baseColorTexture":{"index":3,"extensions":{"KHR_texture_transform":{"offset":[0.00890900008,0.00879599992],"scale":[0.000239615387,0.000239905989]}}},"roughnessFactor":0.903602004},"extensions":{"KHR_materials_unlit":{}}},{"pbrMetallicRoughness":{"baseColorTexture":{"index":4,"extensions":{"KHR_texture_transform":{"offset":[0.00906800013,0.00879000034],"scale":[0.00023960098,0.00023966252]}}},"roughnessFactor":0.903602004},"extensions":{"KHR_materials_unlit":{}}},{"pbrMetallicRoughness":{"baseColorTexture":{"index":5,"extensions":{"KHR_texture_transform":{"offset":[0.00830100011,0.00832699984],"scale":[0.00023994848,0.000240130161]}}},"roughnessFactor":0.903602004},"extensions":{"KHR_materials_unlit":{}}},{"pbrMetallicRoughness":{"baseColorTexture":{"index":6,"extensions":{"KHR_texture_transform":{"offset":[0.00805800036,0.00805700012],"scale":[0.000240183886,0.000240203415]}}},"roughnessFactor":0.903602004},"extensions":{"KHR_materials_unlit":{}}},{"pbrMetallicRoughness":{"baseColorTexture":{"index":7,"extensions":{"KHR_texture_transform":{"offset":[0.00808900036,0.00810599979],"scale":[0.000240182912,0.000240174835]}}},"roughnessFactor":0.903602004},"extensions":{"KHR_materials_unlit":{}}},{"pbrMetallicRoughness":{"baseColorTexture":{"index":8,"extensions":{"KHR_texture_transform":{"offset":[0.00813999958,0.00809499994],"scale":[0.000240153109,0.000240191934]}}},"roughnessFactor":0.903602004},"extensions":{"KHR_materials_unlit":{}}},{"pbrMetallicRoughness":{"baseColorTexture":{"index":9,"extensions":{"KHR_texture_transform":{"offset":[0.00808800012,0.00808500033],"scale":[0.000240167763,0.000240133581]}}},"roughnessFactor":0.903602004},"extensions":{"KHR_materials_unlit":{}}},{"pbrMetallicRoughness":{"baseColorTexture":{"index":10,"extensions":{"KHR_texture_transform":{"offset":[0.00806500018,0.00806500018],"scale":[0.000240174602,0.000240158246]}}},"roughnessFactor":0.903602004},"extensions":{"KHR_materials_unlit":{}}},{"pbrMetallicRoughness":{"baseColorTexture":{"index":11,"extensions":{"KHR_texture_transform":{"offset":[0.00810999982,0.00808699988],"scale":[0.000240154332,0.000240177294]}}},"roughnessFactor":0.903602004},"extensions":{"KHR_materials_unlit":{}}},{"pbrMetallicRoughness":{"baseColorTexture":{"index":12,"extensions":{"KHR_texture_transform":{"offset":[0.00805999991,0.00813500024],"scale":[0.000240188048,0.000240156034]}}},"roughnessFactor":0.903602004},"extensions":{"KHR_materials_unlit":{}}},{"pbrMetallicRoughness":{"baseColorTexture":{"index":13,"extensions":{"KHR_texture_transform":{"offset":[0.00793999992,0.00794500019],"scale":[0.000240284731,0.000240289373]}}},"roughnessFactor":0.903602004},"extensions":{"KHR_materials_unlit":{}}},{"pbrMetallicRoughness":{"baseColorTexture":{"index":14,"extensions":{"KHR_texture_transform":{"offset":[0.00794600043,0.00794799998],"scale":[0.000240288879,0.000240278881]}}},"roughnessFactor":0.903602004},"extensions":{"KHR_materials_unlit":{}}},{"pbrMetallicRoughness":{"baseColorTexture":{"index":15,"extensions":{"KHR_texture_transform":{"offset":[0.00798400026,0.00799699966],"scale":[0.000240229303,0.000240216614]}}},"roughnessFactor":0.903602004},"extensions":{"KHR_materials_unlit":{}}}],"meshes":[{"primitives":[{"attributes":{"POSITION":0,"TEXCOORD_0":1},"indices":2,"material":0},{"attributes":{"POSITION":3,"TEXCOORD_0":4},"indices":5,"material":1},{"attributes":{"POSITION":6,"TEXCOORD_0":7},"indices":8,"material":2},{"attributes":{"POSITION":9,"TEXCOORD_0":10},"indices":11,"material":3},{"attributes":{"POSITION":12,"TEXCOORD_0":13},"indices":14,"material":4},{"attributes":{"POSITION":15,"TEXCOORD_0":16},"indices":17,"material":5},{"attributes":{"POSITION":18,"TEXCOORD_0":19},"indices":20,"material":6},{"attributes":{"POSITION":21,"TEXCOORD_0":22},"indices":23,"material":7},{"attributes":{"POSITION":24,"TEXCOORD_0":25},"indices":26,"material":8},{"attributes":{"POSITION":27,"TEXCOORD_0":28},"indices":29,"material":9},{"attributes":{"POSITION":30,"TEXCOORD_0":31},"indices":32,"material":10},{"attributes":{"POSITION":33,"TEXCOORD_0":34},"indices":35,"material":11},{"attributes":{"POSITION":36,"TEXCOORD_0":37},"indices":38,"material":12},{"attributes":{"POSITION":39,"TEXCOORD_0":40},"indices":41,"material":13},{"attributes":{"POSITION":42,"TEXCOORD_0":43},"indices":44,"material":14},{"attributes":{"POSITION":45,"TEXCOORD_0":46},"indices":47,"material":15}]}],"nodes":[{"mesh":0,"translation":[-1.90995765,-3.68797326,-1.2934947],"scale":[0.000384434999,0.000384434999,0.000384434999]}],"scenes":[{"nodes":[0]}],"scene":0}