{"buffers":[{"uri":"scene_00119_01-instance.compressed.bin","byteLength":1153532},{"byteLength":6954552,"extensions":{"EXT_meshopt_compression":{"fallback":true}}}],"asset":{"version":"2.0","generator":"gltfpack 0.17"},"extensionsUsed":["KHR_mesh_quantization","EXT_meshopt_compression"],"extensionsRequired":["KHR_mesh_quantization","EXT_meshopt_compression"],"bufferViews":[{"buffer":1,"byteOffset":0,"byteLength":1560000,"byteStride":8,"target":34962,"extensions":{"EXT_meshopt_compression":{"buffer":0,"byteOffset":0,"byteLength":591322,"byteStride":8,"mode":"ATTRIBUTES","count":195000}}},{"buffer":1,"byteOffset":1560000,"byteLength":780000,"byteStride":4,"target":34962,"extensions":{"EXT_meshopt_compression":{"buffer":0,"byteOffset":591324,"byteLength":126853,"byteStride":4,"mode":"ATTRIBUTES","count":195000}}},{"buffer":1,"byteOffset":2340000,"byteLength":4614552,"target":34963,"extensions":{"EXT_meshopt_compression":{"buffer":0,"byteOffset":718180,"byteLength":435352,"byteStride":4,"mode":"TRIANGLES","count":1153638}}}],"accessors":[{"bufferView":0,"byteOffset":0,"componentType":5123,"count":195000,"type":"VEC3","min":[0,0,0],"max":[9827,16383,6738]},{"bufferView":1,"byteOffset":0,"componentType":5121,"count":195000,"type":"VEC4","normalized":true},{"bufferView":2,"byteOffset":0,"componentType":5125,"count":1153638,"type":"SCALAR"}],"meshes":[{"primitives":[{"attributes":{"POSITION":0,"COLOR_0":1},"indices":2}]}],"nodes":[{"mesh":0,"translation":[-1.90995765,-3.68797326,-1.2934947],"scale":[0.000384434999,0.000384434999,0.000384434999]}],"scenes":[{"nodes":[0]}],"scene":0}