{"buffers":[{"uri":"scene_00119_01-obb.compressed.bin","byteLength":1203248},{"byteLength":7282968,"extensions":{"EXT_meshopt_compression":{"fallback":true}}}],"asset":{"version":"2.0","generator":"gltfpack 0.17"},"extensionsUsed":["KHR_mesh_quantization","EXT_meshopt_compression"],"extensionsRequired":["KHR_mesh_quantization","EXT_meshopt_compression"],"bufferViews":[{"buffer":1,"byteOffset":0,"byteLength":1634944,"byteStride":8,"target":34962,"extensions":{"EXT_meshopt_compression":{"buffer":0,"byteOffset":0,"byteLength":624537,"byteStride":8,"mode":"ATTRIBUTES","count":204368}}},{"buffer":1,"byteOffset":1634944,"byteLength":817472,"byteStride":4,"target":34962,"extensions":{"EXT_meshopt_compression":{"buffer":0,"byteOffset":624540,"byteLength":123302,"byteStride":4,"mode":"ATTRIBUTES","count":204368}}},{"buffer":1,"byteOffset":2452416,"byteLength":4830552,"target":34963,"extensions":{"EXT_meshopt_compression":{"buffer":0,"byteOffset":747844,"byteLength":455402,"byteStride":4,"mode":"TRIANGLES","count":1207638}}}],"accessors":[{"bufferView":0,"byteOffset":0,"componentType":5123,"count":204368,"type":"VEC3","min":[0,0,0],"max":[10016,16383,6819]},{"bufferView":1,"byteOffset":0,"componentType":5121,"count":204368,"type":"VEC4","normalized":true},{"bufferView":2,"byteOffset":0,"componentType":5125,"count":1207638,"type":"SCALAR"}],"meshes":[{"primitives":[{"attributes":{"POSITION":0,"COLOR_0":1},"indices":2}]}],"nodes":[{"mesh":0,"translation":[-1.98257279,-3.68797326,-1.30345225],"scale":[0.000384434999,0.000384434999,0.000384434999]}],"scenes":[{"nodes":[0]}],"scene":0}