{"buffers":[{"uri":"scene_00103_00-articulation.compressed.bin","byteLength":2287084},{"byteLength":13759584,"extensions":{"EXT_meshopt_compression":{"fallback":true}}}],"asset":{"version":"2.0","generator":"gltfpack 0.17"},"extensionsUsed":["KHR_mesh_quantization","EXT_meshopt_compression"],"extensionsRequired":["KHR_mesh_quantization","EXT_meshopt_compression"],"bufferViews":[{"buffer":1,"byteOffset":0,"byteLength":1439512,"byteStride":8,"target":34962,"extensions":{"EXT_meshopt_compression":{"buffer":0,"byteOffset":0,"byteLength":534114,"byteStride":8,"mode":"ATTRIBUTES","count":179939}}},{"buffer":1,"byteOffset":1439512,"byteLength":719756,"byteStride":4,"target":34962,"extensions":{"EXT_meshopt_compression":{"buffer":0,"byteOffset":534116,"byteLength":32125,"byteStride":4,"mode":"ATTRIBUTES","count":179939}}},{"buffer":1,"byteOffset":2159268,"byteLength":11600316,"target":34963,"extensions":{"EXT_meshopt_compression":{"buffer":0,"byteOffset":566244,"byteLength":1720839,"byteStride":4,"mode":"TRIANGLES","count":2900079}}}],"accessors":[{"bufferView":0,"byteOffset":0,"componentType":5123,"count":179939,"type":"VEC3","min":[0,0,0],"max":[15426,9640,16383]},{"bufferView":1,"byteOffset":0,"componentType":5121,"count":179939,"type":"VEC4","normalized":true},{"bufferView":2,"byteOffset":0,"componentType":5125,"count":2900079,"type":"SCALAR"}],"materials":[{"pbrMetallicRoughness":{},"doubleSided":true,"alphaMode":"BLEND"}],"meshes":[{"primitives":[{"attributes":{"POSITION":0,"COLOR_0":1},"indices":2,"material":0}]}],"nodes":[{"mesh":0,"translation":[-1.36031032,-0.808655024,-1.49612463],"scale":[0.00017665817,0.00017665817,0.00017665817]}],"scenes":[{"nodes":[0]}],"scene":0}