{"buffers":[{"uri":"scene_00103_00-instance.compressed.bin","byteLength":612684},{"byteLength":3505140,"extensions":{"EXT_meshopt_compression":{"fallback":true}}}],"asset":{"version":"2.0","generator":"gltfpack 0.17"},"extensionsUsed":["KHR_mesh_quantization","EXT_meshopt_compression"],"extensionsRequired":["KHR_mesh_quantization","EXT_meshopt_compression"],"bufferViews":[{"buffer":1,"byteOffset":0,"byteLength":789024,"byteStride":8,"target":34962,"extensions":{"EXT_meshopt_compression":{"buffer":0,"byteOffset":0,"byteLength":322279,"byteStride":8,"mode":"ATTRIBUTES","count":98628}}},{"buffer":1,"byteOffset":789024,"byteLength":394512,"byteStride":4,"target":34962,"extensions":{"EXT_meshopt_compression":{"buffer":0,"byteOffset":322280,"byteLength":69575,"byteStride":4,"mode":"ATTRIBUTES","count":98628}}},{"buffer":1,"byteOffset":1183536,"byteLength":2321604,"target":34963,"extensions":{"EXT_meshopt_compression":{"buffer":0,"byteOffset":391856,"byteLength":220825,"byteStride":4,"mode":"TRIANGLES","count":580401}}}],"accessors":[{"bufferView":0,"byteOffset":0,"componentType":5123,"count":98628,"type":"VEC3","min":[0,0,0],"max":[15415,9476,16383]},{"bufferView":1,"byteOffset":0,"componentType":5121,"count":98628,"type":"VEC4","normalized":true},{"bufferView":2,"byteOffset":0,"componentType":5125,"count":580401,"type":"SCALAR"}],"meshes":[{"primitives":[{"attributes":{"POSITION":0,"COLOR_0":1},"indices":2}]}],"nodes":[{"mesh":0,"translation":[-1.31549799,-0.808655024,-1.39806604],"scale":[0.000170672778,0.000170672778,0.000170672778]}],"scenes":[{"nodes":[0]}],"scene":0}