{"buffers":[{"uri":"scene_00103_00-obb.compressed.bin","byteLength":637952},{"byteLength":3715572,"extensions":{"EXT_meshopt_compression":{"fallback":true}}}],"asset":{"version":"2.0","generator":"gltfpack 0.17"},"extensionsUsed":["KHR_mesh_quantization","EXT_meshopt_compression"],"extensionsRequired":["KHR_mesh_quantization","EXT_meshopt_compression"],"bufferViews":[{"buffer":1,"byteOffset":0,"byteLength":837152,"byteStride":8,"target":34962,"extensions":{"EXT_meshopt_compression":{"buffer":0,"byteOffset":0,"byteLength":343944,"byteStride":8,"mode":"ATTRIBUTES","count":104644}}},{"buffer":1,"byteOffset":837152,"byteLength":418576,"byteStride":4,"target":34962,"extensions":{"EXT_meshopt_compression":{"buffer":0,"byteOffset":343944,"byteLength":60330,"byteStride":4,"mode":"ATTRIBUTES","count":104644}}},{"buffer":1,"byteOffset":1255728,"byteLength":2459844,"target":34963,"extensions":{"EXT_meshopt_compression":{"buffer":0,"byteOffset":404276,"byteLength":233674,"byteStride":4,"mode":"TRIANGLES","count":614961}}}],"accessors":[{"bufferView":0,"byteOffset":0,"componentType":5123,"count":104644,"type":"VEC3","min":[0,0,0],"max":[15512,9692,16383]},{"bufferView":1,"byteOffset":0,"componentType":5121,"count":104644,"type":"VEC4","normalized":true},{"bufferView":2,"byteOffset":0,"componentType":5125,"count":614961,"type":"SCALAR"}],"meshes":[{"primitives":[{"attributes":{"POSITION":0,"COLOR_0":1},"indices":2}]}],"nodes":[{"mesh":0,"translation":[-1.33219934,-0.8181656,-1.39827704],"scale":[0.000171296037,0.000171296037,0.000171296037]}],"scenes":[{"nodes":[0]}],"scene":0}