{"buffers":[{"uri":"scene_00103_00-texture.compressed.bin","byteLength":5152468},{"byteLength":2709596,"extensions":{"EXT_meshopt_compression":{"fallback":true}}}],"asset":{"version":"2.0","generator":"gltfpack 0.17"},"extensionsUsed":["KHR_mesh_quantization","EXT_meshopt_compression","KHR_texture_transform","KHR_materials_unlit","KHR_texture_basisu"],"extensionsRequired":["KHR_mesh_quantization","EXT_meshopt_compression","KHR_texture_basisu"],"bufferViews":[{"buffer":0,"byteOffset":0,"byteLength":176659},{"buffer":0,"byteOffset":176660,"byteLength":521217},{"buffer":0,"byteOffset":697880,"byteLength":454364},{"buffer":0,"byteOffset":1152244,"byteLength":434059},{"buffer":0,"byteOffset":1586304,"byteLength":405845},{"buffer":0,"byteOffset":1992152,"byteLength":381801},{"buffer":0,"byteOffset":2373956,"byteLength":360764},{"buffer":0,"byteOffset":2734720,"byteLength":353696},{"buffer":0,"byteOffset":3088416,"byteLength":1150126},{"buffer":1,"byteOffset":0,"byteLength":1032528,"byteStride":8,"target":34962,"extensions":{"EXT_meshopt_compression":{"buffer":0,"byteOffset":4238544,"byteLength":434743,"byteStride":8,"mode":"ATTRIBUTES","count":129066}}},{"buffer":1,"byteOffset":1032528,"byteLength":516264,"byteStride":4,"target":34962,"extensions":{"EXT_meshopt_compression":{"buffer":0,"byteOffset":4673288,"byteLength":242546,"byteStride":4,"mode":"ATTRIBUTES","count":129066}}},{"buffer":1,"byteOffset":1548792,"byteLength":1160802,"target":34963,"extensions":{"EXT_meshopt_compression":{"buffer":0,"byteOffset":4915836,"byteLength":236630,"byteStride":2,"mode":"TRIANGLES","count":580401}}}],"accessors":[{"bufferView":9,"byteOffset":0,"componentType":5123,"count":3177,"type":"VEC3","min":[21,0,63],"max":[15394,9461,16303]},{"bufferView":10,"byteOffset":0,"componentType":5123,"count":3177,"type":"VEC2"},{"bufferView":11,"byteOffset":0,"componentType":5123,"count":8547,"type":"SCALAR"},{"bufferView":9,"byteOffset":25416,"componentType":5123,"count":10782,"type":"VEC3","min":[7,84,8],"max":[15415,9408,16383]},{"bufferView":10,"byteOffset":12708,"componentType":5123,"count":10782,"type":"VEC2"},{"bufferView":11,"byteOffset":17094,"componentType":5123,"count":48831,"type":"SCALAR"},{"bufferView":9,"byteOffset":111672,"componentType":5123,"count":10473,"type":"VEC3","min":[0,81,176],"max":[15385,9449,16246]},{"bufferView":10,"byteOffset":55836,"componentType":5123,"count":10473,"type":"VEC2"},{"bufferView":11,"byteOffset":114756,"componentType":5123,"count":51240,"type":"SCALAR"},{"bufferView":9,"byteOffset":195456,"componentType":5123,"count":8678,"type":"VEC3","min":[100,76,59],"max":[15409,9441,15989]},{"bufferView":10,"byteOffset":97728,"componentType":5123,"count":8678,"type":"VEC2"},{"bufferView":11,"byteOffset":217236,"componentType":5123,"count":42363,"type":"SCALAR"},{"bufferView":9,"byteOffset":264880,"componentType":5123,"count":9485,"type":"VEC3","min":[5,105,57],"max":[15301,9448,15856]},{"bufferView":10,"byteOffset":132440,"componentType":5123,"count":9485,"type":"VEC2"},{"bufferView":11,"byteOffset":301962,"componentType":5123,"count":48036,"type":"SCALAR"},{"bufferView":9,"byteOffset":340760,"componentType":5123,"count":9019,"type":"VEC3","min":[3,0,60],"max":[15401,9420,16290]},{"bufferView":10,"byteOffset":170380,"componentType":5123,"count":9019,"type":"VEC2"},{"bufferView":11,"byteOffset":398034,"componentType":5123,"count":46338,"type":"SCALAR"},{"bufferView":9,"byteOffset":412912,"componentType":5123,"count":10014,"type":"VEC3","min":[23,58,219],"max":[15409,9422,16255]},{"bufferView":10,"byteOffset":206456,"componentType":5123,"count":10014,"type":"VEC2"},{"bufferView":11,"byteOffset":490710,"componentType":5123,"count":51843,"type":"SCALAR"},{"bufferView":9,"byteOffset":493024,"componentType":5123,"count":12782,"type":"VEC3","min":[1,87,110],"max":[15394,9379,16286]},{"bufferView":10,"byteOffset":246512,"componentType":5123,"count":12782,"type":"VEC2"},{"bufferView":11,"byteOffset":594396,"componentType":5123,"count":69198,"type":"SCALAR"},{"bufferView":9,"byteOffset":595280,"componentType":5123,"count":54656,"type":"VEC3","min":[2,34,0],"max":[15391,9476,16337]},{"bufferView":10,"byteOffset":297640,"componentType":5123,"count":54656,"type":"VEC2"},{"bufferView":11,"byteOffset":732792,"componentType":5123,"count":214005,"type":"SCALAR"}],"images":[{"bufferView":0,"mimeType":"image/ktx2"},{"bufferView":1,"mimeType":"image/ktx2"},{"bufferView":2,"mimeType":"image/ktx2"},{"bufferView":3,"mimeType":"image/ktx2"},{"bufferView":4,"mimeType":"image/ktx2"},{"bufferView":5,"mimeType":"image/ktx2"},{"bufferView":6,"mimeType":"image/ktx2"},{"bufferView":7,"mimeType":"image/ktx2"},{"bufferView":8,"mimeType":"image/ktx2"}],"textures":[{"extensions":{"KHR_texture_basisu":{"source":0}}},{"extensions":{"KHR_texture_basisu":{"source":1}}},{"extensions":{"KHR_texture_basisu":{"source":2}}},{"extensions":{"KHR_texture_basisu":{"source":3}}},{"extensions":{"KHR_texture_basisu":{"source":4}}},{"extensions":{"KHR_texture_basisu":{"source":5}}},{"extensions":{"KHR_texture_basisu":{"source":6}}},{"extensions":{"KHR_texture_basisu":{"source":7}}},{"extensions":{"KHR_texture_basisu":{"source":8}}}],"materials":[{"pbrMetallicRoughness":{"baseColorTexture":{"index":0,"extensions":{"KHR_texture_transform":{"offset":[0.00835900009,0.00832400005],"scale":[0.000239997549,0.000237314278]}}},"roughnessFactor":0.903602004},"extensions":{"KHR_materials_unlit":{}}},{"pbrMetallicRoughness":{"baseColorTexture":{"index":1,"extensions":{"KHR_texture_transform":{"offset":[0.00806799997,0.00809700042],"scale":[0.000240155787,0.000240083275]}}},"roughnessFactor":0.903602004},"extensions":{"KHR_materials_unlit":{}}},{"pbrMetallicRoughness":{"baseColorTexture":{"index":2,"extensions":{"KHR_texture_transform":{"offset":[0.00806399994,0.008072],"scale":[0.000240093039,0.000240190959]}}},"roughnessFactor":0.903602004},"extensions":{"KHR_materials_unlit":{}}},{"pbrMetallicRoughness":{"baseColorTexture":{"index":3,"extensions":{"KHR_texture_transform":{"offset":[0.00811100006,0.00806799997],"scale":[0.000240188034,0.000240193898]}}},"roughnessFactor":0.903602004},"extensions":{"KHR_materials_unlit":{}}},{"pbrMetallicRoughness":{"baseColorTexture":{"index":4,"extensions":{"KHR_texture_transform":{"offset":[0.00808500033,0.00811100006],"scale":[0.000240001711,0.000240173133]}}},"roughnessFactor":0.903602004},"extensions":{"KHR_materials_unlit":{}}},{"pbrMetallicRoughness":{"baseColorTexture":{"index":5,"extensions":{"KHR_texture_transform":{"offset":[0.0081120003,0.00812800042],"scale":[0.000240190479,0.000240022957]}}},"roughnessFactor":0.903602004},"extensions":{"KHR_materials_unlit":{}}},{"pbrMetallicRoughness":{"baseColorTexture":{"index":6,"extensions":{"KHR_texture_transform":{"offset":[0.00807399955,0.00812800042],"scale":[0.000240049572,0.000240247376]}}},"roughnessFactor":0.903602004},"extensions":{"KHR_materials_unlit":{}}},{"pbrMetallicRoughness":{"baseColorTexture":{"index":7,"extensions":{"KHR_texture_transform":{"offset":[0.00812899973,0.0080810003],"scale":[0.00024007888,0.000240167021]}}},"roughnessFactor":0.903602004},"extensions":{"KHR_materials_unlit":{}}},{"pbrMetallicRoughness":{"baseColorTexture":{"index":8,"extensions":{"KHR_texture_transform":{"offset":[0.00793999992,0.00795099977],"scale":[0.000240268375,0.000240157009]}}},"roughnessFactor":0.903602004},"extensions":{"KHR_materials_unlit":{}}}],"meshes":[{"primitives":[{"attributes":{"POSITION":0,"TEXCOORD_0":1},"indices":2,"material":0},{"attributes":{"POSITION":3,"TEXCOORD_0":4},"indices":5,"material":1},{"attributes":{"POSITION":6,"TEXCOORD_0":7},"indices":8,"material":2},{"attributes":{"POSITION":9,"TEXCOORD_0":10},"indices":11,"material":3},{"attributes":{"POSITION":12,"TEXCOORD_0":13},"indices":14,"material":4},{"attributes":{"POSITION":15,"TEXCOORD_0":16},"indices":17,"material":5},{"attributes":{"POSITION":18,"TEXCOORD_0":19},"indices":20,"material":6},{"attributes":{"POSITION":21,"TEXCOORD_0":22},"indices":23,"material":7},{"attributes":{"POSITION":24,"TEXCOORD_0":25},"indices":26,"material":8}]}],"nodes":[{"mesh":0,"translation":[-1.31549799,-0.808655024,-1.39806604],"scale":[0.000170672778,0.000170672778,0.000170672778]}],"scenes":[{"nodes":[0]}],"scene":0}