{"buffers":[{"uri":"scene_00057_00-articulation.compressed.bin","byteLength":2992240},{"byteLength":16119996,"extensions":{"EXT_meshopt_compression":{"fallback":true}}}],"asset":{"version":"2.0","generator":"gltfpack 0.17"},"extensionsUsed":["KHR_mesh_quantization","EXT_meshopt_compression"],"extensionsRequired":["KHR_mesh_quantization","EXT_meshopt_compression"],"bufferViews":[{"buffer":1,"byteOffset":0,"byteLength":1511672,"byteStride":8,"target":34962,"extensions":{"EXT_meshopt_compression":{"buffer":0,"byteOffset":0,"byteLength":586250,"byteStride":8,"mode":"ATTRIBUTES","count":188959}}},{"buffer":1,"byteOffset":1511672,"byteLength":755836,"byteStride":4,"target":34962,"extensions":{"EXT_meshopt_compression":{"buffer":0,"byteOffset":586252,"byteLength":50682,"byteStride":4,"mode":"ATTRIBUTES","count":188959}}},{"buffer":1,"byteOffset":2267508,"byteLength":13852488,"target":34963,"extensions":{"EXT_meshopt_compression":{"buffer":0,"byteOffset":636936,"byteLength":2355303,"byteStride":4,"mode":"TRIANGLES","count":3463122}}}],"accessors":[{"bufferView":0,"byteOffset":0,"componentType":5123,"count":188959,"type":"VEC3","min":[0,0,0],"max":[16383,13190,13536]},{"bufferView":1,"byteOffset":0,"componentType":5121,"count":188959,"type":"VEC4","normalized":true},{"bufferView":2,"byteOffset":0,"componentType":5125,"count":3463122,"type":"SCALAR"}],"materials":[{"pbrMetallicRoughness":{},"doubleSided":true,"alphaMode":"BLEND"}],"meshes":[{"primitives":[{"attributes":{"POSITION":0,"COLOR_0":1},"indices":2,"material":0}]}],"nodes":[{"mesh":0,"translation":[-1.80251706,-1.44381595,-1.50717831],"scale":[0.000220047252,0.000220047252,0.000220047252]}],"scenes":[{"nodes":[0]}],"scene":0}