{"buffers":[{"uri":"scene_00057_00-texture.compressed.bin","byteLength":14378604},{"byteLength":3298380,"extensions":{"EXT_meshopt_compression":{"fallback":true}}}],"asset":{"version":"2.0","generator":"gltfpack 0.17"},"extensionsUsed":["KHR_mesh_quantization","EXT_meshopt_compression","KHR_texture_transform","KHR_materials_unlit","KHR_texture_basisu"],"extensionsRequired":["KHR_mesh_quantization","EXT_meshopt_compression","KHR_texture_basisu"],"bufferViews":[{"buffer":0,"byteOffset":0,"byteLength":57392},{"buffer":0,"byteOffset":57392,"byteLength":68028},{"buffer":0,"byteOffset":125420,"byteLength":197686},{"buffer":0,"byteOffset":323108,"byteLength":186004},{"buffer":0,"byteOffset":509112,"byteLength":549995},{"buffer":0,"byteOffset":1059108,"byteLength":549291},{"buffer":0,"byteOffset":1608400,"byteLength":526556},{"buffer":0,"byteOffset":2134956,"byteLength":521849},{"buffer":0,"byteOffset":2656808,"byteLength":496216},{"buffer":0,"byteOffset":3153024,"byteLength":492306},{"buffer":0,"byteOffset":3645332,"byteLength":486235},{"buffer":0,"byteOffset":4131568,"byteLength":1618339},{"buffer":0,"byteOffset":5749908,"byteLength":1644006},{"buffer":0,"byteOffset":7393916,"byteLength":1490669},{"buffer":0,"byteOffset":8884588,"byteLength":1563958},{"buffer":0,"byteOffset":10448548,"byteLength":1364199},{"buffer":0,"byteOffset":11812748,"byteLength":1392239},{"buffer":1,"byteOffset":0,"byteLength":1317912,"byteStride":8,"target":34962,"extensions":{"EXT_meshopt_compression":{"buffer":0,"byteOffset":13204988,"byteLength":594319,"byteStride":8,"mode":"ATTRIBUTES","count":164739}}},{"buffer":1,"byteOffset":1317912,"byteLength":658956,"byteStride":4,"target":34962,"extensions":{"EXT_meshopt_compression":{"buffer":0,"byteOffset":13799308,"byteLength":297656,"byteStride":4,"mode":"ATTRIBUTES","count":164739}}},{"buffer":1,"byteOffset":1976868,"byteLength":1321512,"target":34963,"extensions":{"EXT_meshopt_compression":{"buffer":0,"byteOffset":14096964,"byteLength":281640,"byteStride":2,"mode":"TRIANGLES","count":660756}}}],"accessors":[{"bufferView":17,"byteOffset":0,"componentType":5123,"count":781,"type":"VEC3","min":[3622,57,106],"max":[16217,13087,11497]},{"bufferView":18,"byteOffset":0,"componentType":5123,"count":781,"type":"VEC2"},{"bufferView":19,"byteOffset":0,"componentType":5123,"count":1176,"type":"SCALAR"},{"bufferView":17,"byteOffset":6248,"componentType":5123,"count":740,"type":"VEC3","min":[4334,20,60],"max":[15988,13079,11051]},{"bufferView":18,"byteOffset":3124,"componentType":5123,"count":740,"type":"VEC2"},{"bufferView":19,"byteOffset":2352,"componentType":5123,"count":1386,"type":"SCALAR"},{"bufferView":17,"byteOffset":12168,"componentType":5123,"count":2423,"type":"VEC3","min":[3833,81,43],"max":[16191,13003,11403]},{"bufferView":18,"byteOffset":6084,"componentType":5123,"count":2423,"type":"VEC2"},{"bufferView":19,"byteOffset":5124,"componentType":5123,"count":6345,"type":"SCALAR"},{"bufferView":17,"byteOffset":31552,"componentType":5123,"count":2014,"type":"VEC3","min":[3544,375,30],"max":[16191,13174,11245]},{"bufferView":18,"byteOffset":15776,"componentType":5123,"count":2014,"type":"VEC2"},{"bufferView":19,"byteOffset":17814,"componentType":5123,"count":6072,"type":"SCALAR"},{"bufferView":17,"byteOffset":47664,"componentType":5123,"count":5249,"type":"VEC3","min":[10,524,73],"max":[16279,13190,11487]},{"bufferView":18,"byteOffset":23832,"componentType":5123,"count":5249,"type":"VEC2"},{"bufferView":19,"byteOffset":29958,"componentType":5123,"count":20028,"type":"SCALAR"},{"bufferView":17,"byteOffset":89656,"componentType":5123,"count":4610,"type":"VEC3","min":[80,7,54],"max":[16268,12895,11479]},{"bufferView":18,"byteOffset":44828,"componentType":5123,"count":4610,"type":"VEC2"},{"bufferView":19,"byteOffset":70014,"componentType":5123,"count":18792,"type":"SCALAR"},{"bufferView":17,"byteOffset":126536,"componentType":5123,"count":5040,"type":"VEC3","min":[77,195,102],"max":[16281,11717,11522]},{"bufferView":18,"byteOffset":63268,"componentType":5123,"count":5040,"type":"VEC2"},{"bufferView":19,"byteOffset":107598,"componentType":5123,"count":21972,"type":"SCALAR"},{"bufferView":17,"byteOffset":166856,"componentType":5123,"count":4523,"type":"VEC3","min":[3983,630,102],"max":[16276,11711,11507]},{"bufferView":18,"byteOffset":83428,"componentType":5123,"count":4523,"type":"VEC2"},{"bufferView":19,"byteOffset":151542,"componentType":5123,"count":19413,"type":"SCALAR"},{"bufferView":17,"byteOffset":203040,"componentType":5123,"count":4112,"type":"VEC3","min":[5173,0,123],"max":[16132,10444,11498]},{"bufferView":18,"byteOffset":101520,"componentType":5123,"count":4112,"type":"VEC2"},{"bufferView":19,"byteOffset":190368,"componentType":5123,"count":18327,"type":"SCALAR"},{"bufferView":17,"byteOffset":235936,"componentType":5123,"count":4931,"type":"VEC3","min":[4541,442,106],"max":[16259,12038,11491]},{"bufferView":18,"byteOffset":117968,"componentType":5123,"count":4931,"type":"VEC2"},{"bufferView":19,"byteOffset":227022,"componentType":5123,"count":22158,"type":"SCALAR"},{"bufferView":17,"byteOffset":275384,"componentType":5123,"count":4576,"type":"VEC3","min":[29,4,486],"max":[16321,13123,11492]},{"bufferView":18,"byteOffset":137692,"componentType":5123,"count":4576,"type":"VEC2"},{"bufferView":19,"byteOffset":271338,"componentType":5123,"count":20991,"type":"SCALAR"},{"bufferView":17,"byteOffset":311992,"componentType":5123,"count":14692,"type":"VEC3","min":[3901,524,110],"max":[16364,12382,11534]},{"bufferView":18,"byteOffset":155996,"componentType":5123,"count":14692,"type":"VEC2"},{"bufferView":19,"byteOffset":313320,"componentType":5123,"count":70722,"type":"SCALAR"},{"bufferView":17,"byteOffset":429528,"componentType":5123,"count":12520,"type":"VEC3","min":[5,574,126],"max":[16228,10346,11555]},{"bufferView":18,"byteOffset":214764,"componentType":5123,"count":12520,"type":"VEC2"},{"bufferView":19,"byteOffset":454764,"componentType":5123,"count":60264,"type":"SCALAR"},{"bufferView":17,"byteOffset":529688,"componentType":5123,"count":15652,"type":"VEC3","min":[5346,617,101],"max":[16254,10357,11544]},{"bufferView":18,"byteOffset":264844,"componentType":5123,"count":15652,"type":"VEC2"},{"bufferView":19,"byteOffset":575292,"componentType":5123,"count":79518,"type":"SCALAR"},{"bufferView":17,"byteOffset":654904,"componentType":5123,"count":14790,"type":"VEC3","min":[19,8,100],"max":[16383,11987,11537]},{"bufferView":18,"byteOffset":327452,"componentType":5123,"count":14790,"type":"VEC2"},{"bufferView":19,"byteOffset":734328,"componentType":5123,"count":75456,"type":"SCALAR"},{"bufferView":17,"byteOffset":773224,"componentType":5123,"count":9580,"type":"VEC3","min":[5157,678,113],"max":[16194,11996,11513]},{"bufferView":18,"byteOffset":386612,"componentType":5123,"count":9580,"type":"VEC2"},{"bufferView":19,"byteOffset":885240,"componentType":5123,"count":46977,"type":"SCALAR"},{"bufferView":17,"byteOffset":849864,"componentType":5123,"count":58506,"type":"VEC3","min":[0,13,0],"max":[16375,13123,11556]},{"bufferView":18,"byteOffset":424932,"componentType":5123,"count":58506,"type":"VEC2"},{"bufferView":19,"byteOffset":979194,"componentType":5123,"count":171159,"type":"SCALAR"}],"images":[{"bufferView":0,"mimeType":"image/ktx2"},{"bufferView":1,"mimeType":"image/ktx2"},{"bufferView":2,"mimeType":"image/ktx2"},{"bufferView":3,"mimeType":"image/ktx2"},{"bufferView":4,"mimeType":"image/ktx2"},{"bufferView":5,"mimeType":"image/ktx2"},{"bufferView":6,"mimeType":"image/ktx2"},{"bufferView":7,"mimeType":"image/ktx2"},{"bufferView":8,"mimeType":"image/ktx2"},{"bufferView":9,"mimeType":"image/ktx2"},{"bufferView":10,"mimeType":"image/ktx2"},{"bufferView":11,"mimeType":"image/ktx2"},{"bufferView":12,"mimeType":"image/ktx2"},{"bufferView":13,"mimeType":"image/ktx2"},{"bufferView":14,"mimeType":"image/ktx2"},{"bufferView":15,"mimeType":"image/ktx2"},{"bufferView":16,"mimeType":"image/ktx2"}],"textures":[{"extensions":{"KHR_texture_basisu":{"source":0}}},{"extensions":{"KHR_texture_basisu":{"source":1}}},{"extensions":{"KHR_texture_basisu":{"source":2}}},{"extensions":{"KHR_texture_basisu":{"source":3}}},{"extensions":{"KHR_texture_basisu":{"source":4}}},{"extensions":{"KHR_texture_basisu":{"source":5}}},{"extensions":{"KHR_texture_basisu":{"source":6}}},{"extensions":{"KHR_texture_basisu":{"source":7}}},{"extensions":{"KHR_texture_basisu":{"source":8}}},{"extensions":{"KHR_texture_basisu":{"source":9}}},{"extensions":{"KHR_texture_basisu":{"source":10}}},{"extensions":{"KHR_texture_basisu":{"source":11}}},{"extensions":{"KHR_texture_basisu":{"source":12}}},{"extensions":{"KHR_texture_basisu":{"source":13}}},{"extensions":{"KHR_texture_basisu":{"source":14}}},{"extensions":{"KHR_texture_basisu":{"source":15}}},{"extensions":{"KHR_texture_basisu":{"source":16}}}],"materials":[{"pbrMetallicRoughness":{"baseColorTexture":{"index":0,"extensions":{"KHR_texture_transform":{"offset":[0.00902900007,0.00890200026],"scale":[0.000239112094,0.000178047863]}}},"roughnessFactor":0.903602004},"extensions":{"KHR_materials_unlit":{}}},{"pbrMetallicRoughness":{"baseColorTexture":{"index":1,"extensions":{"KHR_texture_transform":{"offset":[0.00899400003,0.00888099987],"scale":[0.000239578745,0.000239885238]}}},"roughnessFactor":0.903602004},"extensions":{"KHR_materials_unlit":{}}},{"pbrMetallicRoughness":{"baseColorTexture":{"index":2,"extensions":{"KHR_texture_transform":{"offset":[0.00830100011,0.00830100011],"scale":[0.000240146022,0.000240118679]}}},"roughnessFactor":0.903602004},"extensions":{"KHR_materials_unlit":{}}},{"pbrMetallicRoughness":{"baseColorTexture":{"index":3,"extensions":{"KHR_texture_transform":{"offset":[0.00830500014,0.00836300012],"scale":[0.000240000736,0.000240108668]}}},"roughnessFactor":0.903602004},"extensions":{"KHR_materials_unlit":{}}},{"pbrMetallicRoughness":{"baseColorTexture":{"index":4,"extensions":{"KHR_texture_transform":{"offset":[0.00805800036,0.00806600042],"scale":[0.000240195121,0.000240174835]}}},"roughnessFactor":0.903602004},"extensions":{"KHR_materials_unlit":{}}},{"pbrMetallicRoughness":{"baseColorTexture":{"index":5,"extensions":{"KHR_texture_transform":{"offset":[0.00806600042,0.0080939997],"scale":[0.000240192676,0.000240196576]}}},"roughnessFactor":0.903602004},"extensions":{"KHR_materials_unlit":{}}},{"pbrMetallicRoughness":{"baseColorTexture":{"index":6,"extensions":{"KHR_texture_transform":{"offset":[0.00806200039,0.00808500033],"scale":[0.000240058129,0.000240191948]}}},"roughnessFactor":0.903602004},"extensions":{"KHR_materials_unlit":{}}},{"pbrMetallicRoughness":{"baseColorTexture":{"index":7,"extensions":{"KHR_texture_transform":{"offset":[0.00810899958,0.00810000021],"scale":[0.000240115012,0.000240180714]}}},"roughnessFactor":0.903602004},"extensions":{"KHR_materials_unlit":{}}},{"pbrMetallicRoughness":{"baseColorTexture":{"index":8,"extensions":{"KHR_texture_transform":{"offset":[0.0080629997,0.00806699973],"scale":[0.000240083507,0.000240203168]}}},"roughnessFactor":0.903602004},"extensions":{"KHR_materials_unlit":{}}},{"pbrMetallicRoughness":{"baseColorTexture":{"index":9,"extensions":{"KHR_texture_transform":{"offset":[0.00806500018,0.00806200039],"scale":[0.000240193898,0.000240192923]}}},"roughnessFactor":0.903602004},"extensions":{"KHR_materials_unlit":{}}},{"pbrMetallicRoughness":{"baseColorTexture":{"index":10,"extensions":{"KHR_texture_transform":{"offset":[0.00807499979,0.00807600003],"scale":[0.000240007575,0.000240183886]}}},"roughnessFactor":0.903602004},"extensions":{"KHR_materials_unlit":{}}},{"pbrMetallicRoughness":{"baseColorTexture":{"index":11,"extensions":{"KHR_texture_transform":{"offset":[0.00793499965,0.00794100016],"scale":[0.000240282301,0.000240252019]}}},"roughnessFactor":0.903602004},"extensions":{"KHR_materials_unlit":{}}},{"pbrMetallicRoughness":{"baseColorTexture":{"index":12,"extensions":{"KHR_texture_transform":{"offset":[0.00795799959,0.0079420004],"scale":[0.000240249341,0.000240235648]}}},"roughnessFactor":0.903602004},"extensions":{"KHR_materials_unlit":{}}},{"pbrMetallicRoughness":{"baseColorTexture":{"index":13,"extensions":{"KHR_texture_transform":{"offset":[0.00795799959,0.0079549998],"scale":[0.000239891335,0.000240275214]}}},"roughnessFactor":0.903602004},"extensions":{"KHR_materials_unlit":{}}},{"pbrMetallicRoughness":{"baseColorTexture":{"index":14,"extensions":{"KHR_texture_transform":{"offset":[0.00795000046,0.00794600043],"scale":[0.000240260313,0.000240275214]}}},"roughnessFactor":0.903602004},"extensions":{"KHR_materials_unlit":{}}},{"pbrMetallicRoughness":{"baseColorTexture":{"index":15,"extensions":{"KHR_texture_transform":{"offset":[0.00794299971,0.00794299971],"scale":[0.000240125533,0.000240208552]}}},"roughnessFactor":0.903602004},"extensions":{"KHR_materials_unlit":{}}},{"pbrMetallicRoughness":{"baseColorTexture":{"index":16,"extensions":{"KHR_texture_transform":{"offset":[0.0079549998,0.00793499965],"scale":[0.000240263733,0.000240193171]}}},"roughnessFactor":0.903602004},"extensions":{"KHR_materials_unlit":{}}}],"meshes":[{"primitives":[{"attributes":{"POSITION":0,"TEXCOORD_0":1},"indices":2,"material":0},{"attributes":{"POSITION":3,"TEXCOORD_0":4},"indices":5,"material":1},{"attributes":{"POSITION":6,"TEXCOORD_0":7},"indices":8,"material":2},{"attributes":{"POSITION":9,"TEXCOORD_0":10},"indices":11,"material":3},{"attributes":{"POSITION":12,"TEXCOORD_0":13},"indices":14,"material":4},{"attributes":{"POSITION":15,"TEXCOORD_0":16},"indices":17,"material":5},{"attributes":{"POSITION":18,"TEXCOORD_0":19},"indices":20,"material":6},{"attributes":{"POSITION":21,"TEXCOORD_0":22},"indices":23,"material":7},{"attributes":{"POSITION":24,"TEXCOORD_0":25},"indices":26,"material":8},{"attributes":{"POSITION":27,"TEXCOORD_0":28},"indices":29,"material":9},{"attributes":{"POSITION":30,"TEXCOORD_0":31},"indices":32,"material":10},{"attributes":{"POSITION":33,"TEXCOORD_0":34},"indices":35,"material":11},{"attributes":{"POSITION":36,"TEXCOORD_0":37},"indices":38,"material":12},{"attributes":{"POSITION":39,"TEXCOORD_0":40},"indices":41,"material":13},{"attributes":{"POSITION":42,"TEXCOORD_0":43},"indices":44,"material":14},{"attributes":{"POSITION":45,"TEXCOORD_0":46},"indices":47,"material":15},{"attributes":{"POSITION":48,"TEXCOORD_0":49},"indices":50,"material":16}]}],"nodes":[{"mesh":0,"translation":[-1.80251706,-1.44381595,-1.27147496],"scale":[0.000220047252,0.000220047252,0.000220047252]}],"scenes":[{"nodes":[0]}],"scene":0}