{"buffers":[{"uri":"scene_00057_00-obb.compressed.bin","byteLength":813532},{"byteLength":4387380,"extensions":{"EXT_meshopt_compression":{"fallback":true}}}],"asset":{"version":"2.0","generator":"gltfpack 0.17"},"extensionsUsed":["KHR_mesh_quantization","EXT_meshopt_compression"],"extensionsRequired":["KHR_mesh_quantization","EXT_meshopt_compression"],"bufferViews":[{"buffer":1,"byteOffset":0,"byteLength":986264,"byteStride":8,"target":34962,"extensions":{"EXT_meshopt_compression":{"buffer":0,"byteOffset":0,"byteLength":436043,"byteStride":8,"mode":"ATTRIBUTES","count":123283}}},{"buffer":1,"byteOffset":986264,"byteLength":493132,"byteStride":4,"target":34962,"extensions":{"EXT_meshopt_compression":{"buffer":0,"byteOffset":436044,"byteLength":98586,"byteStride":4,"mode":"ATTRIBUTES","count":123283}}},{"buffer":1,"byteOffset":1479396,"byteLength":2907984,"target":34963,"extensions":{"EXT_meshopt_compression":{"buffer":0,"byteOffset":534632,"byteLength":278900,"byteStride":4,"mode":"TRIANGLES","count":726996}}}],"accessors":[{"bufferView":0,"byteOffset":0,"componentType":5123,"count":123283,"type":"VEC3","min":[0,0,0],"max":[16383,13072,11412]},{"bufferView":1,"byteOffset":0,"componentType":5121,"count":123283,"type":"VEC4","normalized":true},{"bufferView":2,"byteOffset":0,"componentType":5125,"count":726996,"type":"SCALAR"}],"meshes":[{"primitives":[{"attributes":{"POSITION":0,"COLOR_0":1},"indices":2}]}],"nodes":[{"mesh":0,"translation":[-1.80251706,-1.46574557,-1.27147496],"scale":[0.00022371157,0.00022371157,0.00022371157]}],"scenes":[{"nodes":[0]}],"scene":0}