{"buffers":[{"uri":"scene_00057_00-instance.compressed.bin","byteLength":759752},{"byteLength":3984756,"extensions":{"EXT_meshopt_compression":{"fallback":true}}}],"asset":{"version":"2.0","generator":"gltfpack 0.17"},"extensionsUsed":["KHR_mesh_quantization","EXT_meshopt_compression"],"extensionsRequired":["KHR_mesh_quantization","EXT_meshopt_compression"],"bufferViews":[{"buffer":1,"byteOffset":0,"byteLength":894488,"byteStride":8,"target":34962,"extensions":{"EXT_meshopt_compression":{"buffer":0,"byteOffset":0,"byteLength":394691,"byteStride":8,"mode":"ATTRIBUTES","count":111811}}},{"buffer":1,"byteOffset":894488,"byteLength":447244,"byteStride":4,"target":34962,"extensions":{"EXT_meshopt_compression":{"buffer":0,"byteOffset":394692,"byteLength":110762,"byteStride":4,"mode":"ATTRIBUTES","count":111811}}},{"buffer":1,"byteOffset":1341732,"byteLength":2643024,"target":34963,"extensions":{"EXT_meshopt_compression":{"buffer":0,"byteOffset":505456,"byteLength":254294,"byteStride":4,"mode":"TRIANGLES","count":660756}}}],"accessors":[{"bufferView":0,"byteOffset":0,"componentType":5123,"count":111811,"type":"VEC3","min":[0,0,0],"max":[16383,13190,11556]},{"bufferView":1,"byteOffset":0,"componentType":5121,"count":111811,"type":"VEC4","normalized":true},{"bufferView":2,"byteOffset":0,"componentType":5125,"count":660756,"type":"SCALAR"}],"meshes":[{"primitives":[{"attributes":{"POSITION":0,"COLOR_0":1},"indices":2}]}],"nodes":[{"mesh":0,"translation":[-1.80251706,-1.44381595,-1.27147496],"scale":[0.000220047252,0.000220047252,0.000220047252]}],"scenes":[{"nodes":[0]}],"scene":0}