{"buffers":[{"uri":"scene_00120_01-instance.compressed.bin","byteLength":3516548},{"byteLength":20482812,"extensions":{"EXT_meshopt_compression":{"fallback":true}}}],"asset":{"version":"2.0","generator":"gltfpack 0.17"},"extensionsUsed":["KHR_mesh_quantization","EXT_meshopt_compression"],"extensionsRequired":["KHR_mesh_quantization","EXT_meshopt_compression"],"bufferViews":[{"buffer":1,"byteOffset":0,"byteLength":4602992,"byteStride":8,"target":34962,"extensions":{"EXT_meshopt_compression":{"buffer":0,"byteOffset":0,"byteLength":1824535,"byteStride":8,"mode":"ATTRIBUTES","count":575374}}},{"buffer":1,"byteOffset":4602992,"byteLength":2301496,"byteStride":4,"target":34962,"extensions":{"EXT_meshopt_compression":{"buffer":0,"byteOffset":1824536,"byteLength":391282,"byteStride":4,"mode":"ATTRIBUTES","count":575374}}},{"buffer":1,"byteOffset":6904488,"byteLength":13578324,"target":34963,"extensions":{"EXT_meshopt_compression":{"buffer":0,"byteOffset":2215820,"byteLength":1300725,"byteStride":4,"mode":"TRIANGLES","count":3394581}}}],"accessors":[{"bufferView":0,"byteOffset":0,"componentType":5123,"count":575374,"type":"VEC3","min":[0,0,0],"max":[16383,13674,5550]},{"bufferView":1,"byteOffset":0,"componentType":5121,"count":575374,"type":"VEC4","normalized":true},{"bufferView":2,"byteOffset":0,"componentType":5125,"count":3394581,"type":"SCALAR"}],"meshes":[{"primitives":[{"attributes":{"POSITION":0,"COLOR_0":1},"indices":2}]}],"nodes":[{"mesh":0,"translation":[-5.00197649,-4.12030554,-1.70083261],"scale":[0.000603942375,0.000603942375,0.000603942375]}],"scenes":[{"nodes":[0]}],"scene":0}