{"buffers":[{"uri":"scene_00120_01-obb.compressed.bin","byteLength":3559740},{"byteLength":21034092,"extensions":{"EXT_meshopt_compression":{"fallback":true}}}],"asset":{"version":"2.0","generator":"gltfpack 0.17"},"extensionsUsed":["KHR_mesh_quantization","EXT_meshopt_compression"],"extensionsRequired":["KHR_mesh_quantization","EXT_meshopt_compression"],"bufferViews":[{"buffer":1,"byteOffset":0,"byteLength":4728592,"byteStride":8,"target":34962,"extensions":{"EXT_meshopt_compression":{"buffer":0,"byteOffset":0,"byteLength":1837421,"byteStride":8,"mode":"ATTRIBUTES","count":591074}}},{"buffer":1,"byteOffset":4728592,"byteLength":2364296,"byteStride":4,"target":34962,"extensions":{"EXT_meshopt_compression":{"buffer":0,"byteOffset":1837424,"byteLength":387872,"byteStride":4,"mode":"ATTRIBUTES","count":591074}}},{"buffer":1,"byteOffset":7092888,"byteLength":13941204,"target":34963,"extensions":{"EXT_meshopt_compression":{"buffer":0,"byteOffset":2225296,"byteLength":1334441,"byteStride":4,"mode":"TRIANGLES","count":3485301}}}],"accessors":[{"bufferView":0,"byteOffset":0,"componentType":5123,"count":591074,"type":"VEC3","min":[0,0,0],"max":[16383,15773,4794]},{"bufferView":1,"byteOffset":0,"componentType":5121,"count":591074,"type":"VEC4","normalized":true},{"bufferView":2,"byteOffset":0,"componentType":5125,"count":3485301,"type":"SCALAR"}],"meshes":[{"primitives":[{"attributes":{"POSITION":0,"COLOR_0":1},"indices":2}]}],"nodes":[{"mesh":0,"translation":[-6.62587595,-6.39906359,-1.72420704],"scale":[0.000710823631,0.000710823631,0.000710823631]}],"scenes":[{"nodes":[0]}],"scene":0}