{"buffers":[{"uri":"scene_00120_01-articulation.compressed.bin","byteLength":3239660},{"byteLength":20957244,"extensions":{"EXT_meshopt_compression":{"fallback":true}}}],"asset":{"version":"2.0","generator":"gltfpack 0.17"},"extensionsUsed":["KHR_mesh_quantization","EXT_meshopt_compression"],"extensionsRequired":["KHR_mesh_quantization","EXT_meshopt_compression"],"bufferViews":[{"buffer":1,"byteOffset":0,"byteLength":4682496,"byteStride":8,"target":34962,"extensions":{"EXT_meshopt_compression":{"buffer":0,"byteOffset":0,"byteLength":1841837,"byteStride":8,"mode":"ATTRIBUTES","count":585312}}},{"buffer":1,"byteOffset":4682496,"byteLength":2341248,"byteStride":4,"target":34962,"extensions":{"EXT_meshopt_compression":{"buffer":0,"byteOffset":1841840,"byteLength":49877,"byteStride":4,"mode":"ATTRIBUTES","count":585312}}},{"buffer":1,"byteOffset":7023744,"byteLength":13933500,"target":34963,"extensions":{"EXT_meshopt_compression":{"buffer":0,"byteOffset":1891720,"byteLength":1347938,"byteStride":4,"mode":"TRIANGLES","count":3483375}}}],"accessors":[{"bufferView":0,"byteOffset":0,"componentType":5123,"count":585312,"type":"VEC3","min":[0,0,0],"max":[16383,13674,5550]},{"bufferView":1,"byteOffset":0,"componentType":5121,"count":585312,"type":"VEC4","normalized":true},{"bufferView":2,"byteOffset":0,"componentType":5125,"count":3483375,"type":"SCALAR"}],"materials":[{"pbrMetallicRoughness":{},"doubleSided":true,"alphaMode":"BLEND"}],"meshes":[{"primitives":[{"attributes":{"POSITION":0,"COLOR_0":1},"indices":2,"material":0}]}],"nodes":[{"mesh":0,"translation":[-5.00197649,-4.12030554,-1.70083261],"scale":[0.000603942375,0.000603942375,0.000603942375]}],"scenes":[{"nodes":[0]}],"scene":0}