{"buffers":[{"uri":"scene_00119_02-articulation.compressed.bin","byteLength":1206812},{"byteLength":8016588,"extensions":{"EXT_meshopt_compression":{"fallback":true}}}],"asset":{"version":"2.0","generator":"gltfpack 0.17"},"extensionsUsed":["KHR_mesh_quantization","EXT_meshopt_compression"],"extensionsRequired":["KHR_mesh_quantization","EXT_meshopt_compression"],"bufferViews":[{"buffer":1,"byteOffset":0,"byteLength":1691976,"byteStride":8,"target":34962,"extensions":{"EXT_meshopt_compression":{"buffer":0,"byteOffset":0,"byteLength":603085,"byteStride":8,"mode":"ATTRIBUTES","count":211497}}},{"buffer":1,"byteOffset":1691976,"byteLength":845988,"byteStride":4,"target":34962,"extensions":{"EXT_meshopt_compression":{"buffer":0,"byteOffset":603088,"byteLength":29286,"byteStride":4,"mode":"ATTRIBUTES","count":211497}}},{"buffer":1,"byteOffset":2537964,"byteLength":5478624,"target":34963,"extensions":{"EXT_meshopt_compression":{"buffer":0,"byteOffset":632376,"byteLength":574434,"byteStride":4,"mode":"TRIANGLES","count":1369656}}}],"accessors":[{"bufferView":0,"byteOffset":0,"componentType":5123,"count":211497,"type":"VEC3","min":[0,0,0],"max":[9542,16383,6798]},{"bufferView":1,"byteOffset":0,"componentType":5121,"count":211497,"type":"VEC4","normalized":true},{"bufferView":2,"byteOffset":0,"componentType":5125,"count":1369656,"type":"SCALAR"}],"materials":[{"pbrMetallicRoughness":{},"doubleSided":true,"alphaMode":"BLEND"}],"meshes":[{"primitives":[{"attributes":{"POSITION":0,"COLOR_0":1},"indices":2,"material":0}]}],"nodes":[{"mesh":0,"translation":[-1.93863201,-3.70960379,-1.29828227],"scale":[0.000401689031,0.000401689031,0.000401689031]}],"scenes":[{"nodes":[0]}],"scene":0}