{"buffers":[{"uri":"scene_00119_02-texture.compressed.bin","byteLength":9095804},{"byteLength":5151900,"extensions":{"EXT_meshopt_compression":{"fallback":true}}}],"asset":{"version":"2.0","generator":"gltfpack 0.17"},"extensionsUsed":["KHR_mesh_quantization","EXT_meshopt_compression","KHR_texture_transform","KHR_materials_unlit","KHR_texture_basisu"],"extensionsRequired":["KHR_mesh_quantization","EXT_meshopt_compression","KHR_texture_basisu"],"bufferViews":[{"buffer":0,"byteOffset":0,"byteLength":175305},{"buffer":0,"byteOffset":175308,"byteLength":169086},{"buffer":0,"byteOffset":344396,"byteLength":495293},{"buffer":0,"byteOffset":839692,"byteLength":461237},{"buffer":0,"byteOffset":1300932,"byteLength":445724},{"buffer":0,"byteOffset":1746656,"byteLength":436806},{"buffer":0,"byteOffset":2183464,"byteLength":411715},{"buffer":0,"byteOffset":2595180,"byteLength":395183},{"buffer":0,"byteOffset":2990364,"byteLength":396409},{"buffer":0,"byteOffset":3386776,"byteLength":395543},{"buffer":0,"byteOffset":3782320,"byteLength":1275819},{"buffer":0,"byteOffset":5058140,"byteLength":1247360},{"buffer":0,"byteOffset":6305500,"byteLength":1147327},{"buffer":1,"byteOffset":0,"byteLength":1915784,"byteStride":8,"target":34962,"extensions":{"EXT_meshopt_compression":{"buffer":0,"byteOffset":7452828,"byteLength":738500,"byteStride":8,"mode":"ATTRIBUTES","count":239473}}},{"buffer":1,"byteOffset":1915784,"byteLength":957892,"byteStride":4,"target":34962,"extensions":{"EXT_meshopt_compression":{"buffer":0,"byteOffset":8191328,"byteLength":456985,"byteStride":4,"mode":"ATTRIBUTES","count":239473}}},{"buffer":1,"byteOffset":2873676,"byteLength":2278224,"target":34963,"extensions":{"EXT_meshopt_compression":{"buffer":0,"byteOffset":8648316,"byteLength":447488,"byteStride":2,"mode":"TRIANGLES","count":1139112}}}],"accessors":[{"bufferView":13,"byteOffset":0,"componentType":5123,"count":3824,"type":"VEC3","min":[121,6128,16],"max":[9264,16034,6772]},{"bufferView":14,"byteOffset":0,"componentType":5123,"count":3824,"type":"VEC2"},{"bufferView":15,"byteOffset":0,"componentType":5123,"count":8769,"type":"SCALAR"},{"bufferView":13,"byteOffset":30592,"componentType":5123,"count":5335,"type":"VEC3","min":[133,75,58],"max":[9265,16383,6798]},{"bufferView":14,"byteOffset":15296,"componentType":5123,"count":5335,"type":"VEC2"},{"bufferView":15,"byteOffset":17538,"componentType":5123,"count":22377,"type":"SCALAR"},{"bufferView":13,"byteOffset":73272,"componentType":5123,"count":12293,"type":"VEC3","min":[146,75,59],"max":[9383,16154,6749]},{"bufferView":14,"byteOffset":36636,"componentType":5123,"count":12293,"type":"VEC2"},{"bufferView":15,"byteOffset":62292,"componentType":5123,"count":56691,"type":"SCALAR"},{"bufferView":13,"byteOffset":171616,"componentType":5123,"count":12613,"type":"VEC3","min":[134,6148,47],"max":[9242,13025,6372]},{"bufferView":14,"byteOffset":85808,"componentType":5123,"count":12613,"type":"VEC2"},{"bufferView":15,"byteOffset":175674,"componentType":5123,"count":61437,"type":"SCALAR"},{"bufferView":13,"byteOffset":272520,"componentType":5123,"count":12694,"type":"VEC3","min":[141,0,26],"max":[9246,15738,6355]},{"bufferView":14,"byteOffset":136260,"componentType":5123,"count":12694,"type":"VEC2"},{"bufferView":15,"byteOffset":298548,"componentType":5123,"count":63027,"type":"SCALAR"},{"bufferView":13,"byteOffset":374072,"componentType":5123,"count":9315,"type":"VEC3","min":[118,6169,64],"max":[9241,15850,6742]},{"bufferView":14,"byteOffset":187036,"componentType":5123,"count":9315,"type":"VEC2"},{"bufferView":15,"byteOffset":424602,"componentType":5123,"count":45057,"type":"SCALAR"},{"bufferView":13,"byteOffset":448592,"componentType":5123,"count":12345,"type":"VEC3","min":[132,6143,59],"max":[9521,13183,6378]},{"bufferView":14,"byteOffset":224296,"componentType":5123,"count":12345,"type":"VEC2"},{"bufferView":15,"byteOffset":514716,"componentType":5123,"count":61332,"type":"SCALAR"},{"bufferView":13,"byteOffset":547352,"componentType":5123,"count":13130,"type":"VEC3","min":[106,6240,47],"max":[9261,13040,6374]},{"bufferView":14,"byteOffset":273676,"componentType":5123,"count":13130,"type":"VEC2"},{"bufferView":15,"byteOffset":637380,"componentType":5123,"count":67131,"type":"SCALAR"},{"bufferView":13,"byteOffset":652392,"componentType":5123,"count":10065,"type":"VEC3","min":[127,6183,61],"max":[9250,12972,6375]},{"bufferView":14,"byteOffset":326196,"componentType":5123,"count":10065,"type":"VEC2"},{"bufferView":15,"byteOffset":771642,"componentType":5123,"count":50511,"type":"SCALAR"},{"bufferView":13,"byteOffset":732912,"componentType":5123,"count":35023,"type":"VEC3","min":[0,4978,0],"max":[9503,16120,6788]},{"bufferView":14,"byteOffset":366456,"componentType":5123,"count":35023,"type":"VEC2"},{"bufferView":15,"byteOffset":872664,"componentType":5123,"count":97521,"type":"SCALAR"},{"bufferView":13,"byteOffset":1013096,"componentType":5123,"count":38111,"type":"VEC3","min":[135,6109,0],"max":[9358,15353,6742]},{"bufferView":14,"byteOffset":506548,"componentType":5123,"count":38111,"type":"VEC2"},{"bufferView":15,"byteOffset":1067706,"componentType":5123,"count":202473,"type":"SCALAR"},{"bufferView":13,"byteOffset":1317984,"componentType":5123,"count":40809,"type":"VEC3","min":[112,6126,74],"max":[9542,14041,6381]},{"bufferView":14,"byteOffset":658992,"componentType":5123,"count":40809,"type":"VEC2"},{"bufferView":15,"byteOffset":1472652,"componentType":5123,"count":219813,"type":"SCALAR"},{"bufferView":13,"byteOffset":1644456,"componentType":5123,"count":33916,"type":"VEC3","min":[108,6115,85],"max":[9264,12891,6387]},{"bufferView":14,"byteOffset":822228,"componentType":5123,"count":33916,"type":"VEC2"},{"bufferView":15,"byteOffset":1912278,"componentType":5123,"count":182973,"type":"SCALAR"}],"images":[{"bufferView":0,"mimeType":"image/ktx2"},{"bufferView":1,"mimeType":"image/ktx2"},{"bufferView":2,"mimeType":"image/ktx2"},{"bufferView":3,"mimeType":"image/ktx2"},{"bufferView":4,"mimeType":"image/ktx2"},{"bufferView":5,"mimeType":"image/ktx2"},{"bufferView":6,"mimeType":"image/ktx2"},{"bufferView":7,"mimeType":"image/ktx2"},{"bufferView":8,"mimeType":"image/ktx2"},{"bufferView":9,"mimeType":"image/ktx2"},{"bufferView":10,"mimeType":"image/ktx2"},{"bufferView":11,"mimeType":"image/ktx2"},{"bufferView":12,"mimeType":"image/ktx2"}],"textures":[{"extensions":{"KHR_texture_basisu":{"source":0}}},{"extensions":{"KHR_texture_basisu":{"source":1}}},{"extensions":{"KHR_texture_basisu":{"source":2}}},{"extensions":{"KHR_texture_basisu":{"source":3}}},{"extensions":{"KHR_texture_basisu":{"source":4}}},{"extensions":{"KHR_texture_basisu":{"source":5}}},{"extensions":{"KHR_texture_basisu":{"source":6}}},{"extensions":{"KHR_texture_basisu":{"source":7}}},{"extensions":{"KHR_texture_basisu":{"source":8}}},{"extensions":{"KHR_texture_basisu":{"source":9}}},{"extensions":{"KHR_texture_basisu":{"source":10}}},{"extensions":{"KHR_texture_basisu":{"source":11}}},{"extensions":{"KHR_texture_basisu":{"source":12}}}],"materials":[{"pbrMetallicRoughness":{"baseColorTexture":{"index":0,"extensions":{"KHR_texture_transform":{"offset":[0.00830100011,0.00830100011],"scale":[0.000240026857,0.000221288894]}}},"roughnessFactor":0.903602004},"extensions":{"KHR_materials_unlit":{}}},{"pbrMetallicRoughness":{"baseColorTexture":{"index":1,"extensions":{"KHR_texture_transform":{"offset":[0.0083130002,0.00831499975],"scale":[0.000240023932,0.000240036374]}}},"roughnessFactor":0.903602004},"extensions":{"KHR_materials_unlit":{}}},{"pbrMetallicRoughness":{"baseColorTexture":{"index":2,"extensions":{"KHR_texture_transform":{"offset":[0.00807000045,0.00806200039],"scale":[0.00024026203,0.000240199515]}}},"roughnessFactor":0.903602004},"extensions":{"KHR_materials_unlit":{}}},{"pbrMetallicRoughness":{"baseColorTexture":{"index":3,"extensions":{"KHR_texture_transform":{"offset":[0.00806399994,0.00817400031],"scale":[0.000240191221,0.000240170688]}}},"roughnessFactor":0.903602004},"extensions":{"KHR_materials_unlit":{}}},{"pbrMetallicRoughness":{"baseColorTexture":{"index":4,"extensions":{"KHR_texture_transform":{"offset":[0.00810499955,0.00810599979],"scale":[0.000240253488,0.000240188776]}}},"roughnessFactor":0.903602004},"extensions":{"KHR_materials_unlit":{}}},{"pbrMetallicRoughness":{"baseColorTexture":{"index":5,"extensions":{"KHR_texture_transform":{"offset":[0.00808299985,0.00807799958],"scale":[0.000240196343,0.000240179012]}}},"roughnessFactor":0.903602004},"extensions":{"KHR_materials_unlit":{}}},{"pbrMetallicRoughness":{"baseColorTexture":{"index":6,"extensions":{"KHR_texture_transform":{"offset":[0.00810800027,0.00810199976],"scale":[0.000240252746,0.000240178517]}}},"roughnessFactor":0.903602004},"extensions":{"KHR_materials_unlit":{}}},{"pbrMetallicRoughness":{"baseColorTexture":{"index":7,"extensions":{"KHR_texture_transform":{"offset":[0.00808199961,0.00806699973],"scale":[0.000240148962,0.000240128938]}}},"roughnessFactor":0.903602004},"extensions":{"KHR_materials_unlit":{}}},{"pbrMetallicRoughness":{"baseColorTexture":{"index":8,"extensions":{"KHR_texture_transform":{"offset":[0.00809300039,0.00808000006],"scale":[0.000239975096,0.000240192676]}}},"roughnessFactor":0.903602004},"extensions":{"KHR_materials_unlit":{}}},{"pbrMetallicRoughness":{"baseColorTexture":{"index":9,"extensions":{"KHR_texture_transform":{"offset":[0.00806500018,0.00806100015],"scale":[0.000240263253,0.000240180467]}}},"roughnessFactor":0.903602004},"extensions":{"KHR_materials_unlit":{}}},{"pbrMetallicRoughness":{"baseColorTexture":{"index":10,"extensions":{"KHR_texture_transform":{"offset":[0.00795899983,0.00793800037],"scale":[0.000240287904,0.000240250549]}}},"roughnessFactor":0.903602004},"extensions":{"KHR_materials_unlit":{}}},{"pbrMetallicRoughness":{"baseColorTexture":{"index":11,"extensions":{"KHR_texture_transform":{"offset":[0.00797700044,0.00794699974],"scale":[0.000240278139,0.000240282534]}}},"roughnessFactor":0.903602004},"extensions":{"KHR_materials_unlit":{}}},{"pbrMetallicRoughness":{"baseColorTexture":{"index":12,"extensions":{"KHR_texture_transform":{"offset":[0.00794799998,0.00796100032],"scale":[0.000240199515,0.000240276931]}}},"roughnessFactor":0.903602004},"extensions":{"KHR_materials_unlit":{}}}],"meshes":[{"primitives":[{"attributes":{"POSITION":0,"TEXCOORD_0":1},"indices":2,"material":0},{"attributes":{"POSITION":3,"TEXCOORD_0":4},"indices":5,"material":1},{"attributes":{"POSITION":6,"TEXCOORD_0":7},"indices":8,"material":2},{"attributes":{"POSITION":9,"TEXCOORD_0":10},"indices":11,"material":3},{"attributes":{"POSITION":12,"TEXCOORD_0":13},"indices":14,"material":4},{"attributes":{"POSITION":15,"TEXCOORD_0":16},"indices":17,"material":5},{"attributes":{"POSITION":18,"TEXCOORD_0":19},"indices":20,"material":6},{"attributes":{"POSITION":21,"TEXCOORD_0":22},"indices":23,"material":7},{"attributes":{"POSITION":24,"TEXCOORD_0":25},"indices":26,"material":8},{"attributes":{"POSITION":27,"TEXCOORD_0":28},"indices":29,"material":9},{"attributes":{"POSITION":30,"TEXCOORD_0":31},"indices":32,"material":10},{"attributes":{"POSITION":33,"TEXCOORD_0":34},"indices":35,"material":11},{"attributes":{"POSITION":36,"TEXCOORD_0":37},"indices":38,"material":12}]}],"nodes":[{"mesh":0,"translation":[-1.93863201,-3.70960379,-1.29828227],"scale":[0.000401689031,0.000401689031,0.000401689031]}],"scenes":[{"nodes":[0]}],"scene":0}