{"buffers":[{"uri":"scene_00119_02-obb.compressed.bin","byteLength":1167756},{"byteLength":7195068,"extensions":{"EXT_meshopt_compression":{"fallback":true}}}],"asset":{"version":"2.0","generator":"gltfpack 0.17"},"extensionsUsed":["KHR_mesh_quantization","EXT_meshopt_compression"],"extensionsRequired":["KHR_mesh_quantization","EXT_meshopt_compression"],"bufferViews":[{"buffer":1,"byteOffset":0,"byteLength":1613160,"byteStride":8,"target":34962,"extensions":{"EXT_meshopt_compression":{"buffer":0,"byteOffset":0,"byteLength":601206,"byteStride":8,"mode":"ATTRIBUTES","count":201645}}},{"buffer":1,"byteOffset":1613160,"byteLength":806580,"byteStride":4,"target":34962,"extensions":{"EXT_meshopt_compression":{"buffer":0,"byteOffset":601208,"byteLength":116979,"byteStride":4,"mode":"ATTRIBUTES","count":201645}}},{"buffer":1,"byteOffset":2419740,"byteLength":4775328,"target":34963,"extensions":{"EXT_meshopt_compression":{"buffer":0,"byteOffset":718188,"byteLength":449568,"byteStride":4,"mode":"TRIANGLES","count":1193832}}}],"accessors":[{"bufferView":0,"byteOffset":0,"componentType":5123,"count":201645,"type":"VEC3","min":[0,0,0],"max":[9546,16383,6779]},{"bufferView":1,"byteOffset":0,"componentType":5121,"count":201645,"type":"VEC4","normalized":true},{"bufferView":2,"byteOffset":0,"componentType":5125,"count":1193832,"type":"SCALAR"}],"meshes":[{"primitives":[{"attributes":{"POSITION":0,"COLOR_0":1},"indices":2}]}],"nodes":[{"mesh":0,"translation":[-1.9505477,-3.70960379,-1.29828227],"scale":[0.000402774342,0.000402774342,0.000402774342]}],"scenes":[{"nodes":[0]}],"scene":0}