{"buffers":[{"uri":"scene_00119_02-instance.compressed.bin","byteLength":1118884},{"byteLength":6861852,"extensions":{"EXT_meshopt_compression":{"fallback":true}}}],"asset":{"version":"2.0","generator":"gltfpack 0.17"},"extensionsUsed":["KHR_mesh_quantization","EXT_meshopt_compression"],"extensionsRequired":["KHR_mesh_quantization","EXT_meshopt_compression"],"bufferViews":[{"buffer":1,"byteOffset":0,"byteLength":1536936,"byteStride":8,"target":34962,"extensions":{"EXT_meshopt_compression":{"buffer":0,"byteOffset":0,"byteLength":567692,"byteStride":8,"mode":"ATTRIBUTES","count":192117}}},{"buffer":1,"byteOffset":1536936,"byteLength":768468,"byteStride":4,"target":34962,"extensions":{"EXT_meshopt_compression":{"buffer":0,"byteOffset":567692,"byteLength":121945,"byteStride":4,"mode":"ATTRIBUTES","count":192117}}},{"buffer":1,"byteOffset":2305404,"byteLength":4556448,"target":34963,"extensions":{"EXT_meshopt_compression":{"buffer":0,"byteOffset":689640,"byteLength":429242,"byteStride":4,"mode":"TRIANGLES","count":1139112}}}],"accessors":[{"bufferView":0,"byteOffset":0,"componentType":5123,"count":192117,"type":"VEC3","min":[0,0,0],"max":[9542,16383,6798]},{"bufferView":1,"byteOffset":0,"componentType":5121,"count":192117,"type":"VEC4","normalized":true},{"bufferView":2,"byteOffset":0,"componentType":5125,"count":1139112,"type":"SCALAR"}],"meshes":[{"primitives":[{"attributes":{"POSITION":0,"COLOR_0":1},"indices":2}]}],"nodes":[{"mesh":0,"translation":[-1.93863201,-3.70960379,-1.29828227],"scale":[0.000401689031,0.000401689031,0.000401689031]}],"scenes":[{"nodes":[0]}],"scene":0}