{"buffers":[{"uri":"scene_00128_05-articulation.compressed.bin","byteLength":7203592},{"byteLength":36207180,"extensions":{"EXT_meshopt_compression":{"fallback":true}}}],"asset":{"version":"2.0","generator":"gltfpack 0.17"},"extensionsUsed":["KHR_mesh_quantization","EXT_meshopt_compression"],"extensionsRequired":["KHR_mesh_quantization","EXT_meshopt_compression"],"bufferViews":[{"buffer":1,"byteOffset":0,"byteLength":2801160,"byteStride":8,"target":34962,"extensions":{"EXT_meshopt_compression":{"buffer":0,"byteOffset":0,"byteLength":1053137,"byteStride":8,"mode":"ATTRIBUTES","count":350145}}},{"buffer":1,"byteOffset":2801160,"byteLength":1400580,"byteStride":4,"target":34962,"extensions":{"EXT_meshopt_compression":{"buffer":0,"byteOffset":1053140,"byteLength":83317,"byteStride":4,"mode":"ATTRIBUTES","count":350145}}},{"buffer":1,"byteOffset":4201740,"byteLength":32005440,"target":34963,"extensions":{"EXT_meshopt_compression":{"buffer":0,"byteOffset":1136460,"byteLength":6067131,"byteStride":4,"mode":"TRIANGLES","count":8001360}}}],"accessors":[{"bufferView":0,"byteOffset":0,"componentType":5123,"count":350145,"type":"VEC3","min":[0,0,0],"max":[16383,13162,9798]},{"bufferView":1,"byteOffset":0,"componentType":5121,"count":350145,"type":"VEC4","normalized":true},{"bufferView":2,"byteOffset":0,"componentType":5125,"count":8001360,"type":"SCALAR"}],"materials":[{"pbrMetallicRoughness":{},"doubleSided":true,"alphaMode":"BLEND"}],"meshes":[{"primitives":[{"attributes":{"POSITION":0,"COLOR_0":1},"indices":2,"material":0}]}],"nodes":[{"mesh":0,"translation":[-2.33439469,-1.88322783,-1.40505981],"scale":[0.000288651761,0.000288651761,0.000288651761]}],"scenes":[{"nodes":[0]}],"scene":0}