{"buffers":[{"uri":"scene_00128_05-texture.compressed.bin","byteLength":14212832},{"byteLength":7702788,"extensions":{"EXT_meshopt_compression":{"fallback":true}}}],"asset":{"version":"2.0","generator":"gltfpack 0.17"},"extensionsUsed":["KHR_mesh_quantization","EXT_meshopt_compression","KHR_texture_transform","KHR_materials_unlit","KHR_texture_basisu"],"extensionsRequired":["KHR_mesh_quantization","EXT_meshopt_compression","KHR_texture_basisu"],"bufferViews":[{"buffer":0,"byteOffset":0,"byteLength":4246},{"buffer":0,"byteOffset":4248,"byteLength":6910},{"buffer":0,"byteOffset":11160,"byteLength":6781},{"buffer":0,"byteOffset":17944,"byteLength":6675},{"buffer":0,"byteOffset":24620,"byteLength":6609},{"buffer":0,"byteOffset":31232,"byteLength":23754},{"buffer":0,"byteOffset":54988,"byteLength":23488},{"buffer":0,"byteOffset":78476,"byteLength":23938},{"buffer":0,"byteOffset":102416,"byteLength":23298},{"buffer":0,"byteOffset":125716,"byteLength":23545},{"buffer":0,"byteOffset":149264,"byteLength":78268},{"buffer":0,"byteOffset":227532,"byteLength":77128},{"buffer":0,"byteOffset":304660,"byteLength":210092},{"buffer":0,"byteOffset":514752,"byteLength":207613},{"buffer":0,"byteOffset":722368,"byteLength":634189},{"buffer":0,"byteOffset":1356560,"byteLength":607120},{"buffer":0,"byteOffset":1963680,"byteLength":586135},{"buffer":0,"byteOffset":2549816,"byteLength":595678},{"buffer":0,"byteOffset":3145496,"byteLength":560703},{"buffer":0,"byteOffset":3706200,"byteLength":563411},{"buffer":0,"byteOffset":4269612,"byteLength":533763},{"buffer":0,"byteOffset":4803376,"byteLength":554189},{"buffer":0,"byteOffset":5357568,"byteLength":517425},{"buffer":0,"byteOffset":5874996,"byteLength":527014},{"buffer":0,"byteOffset":6402012,"byteLength":516393},{"buffer":0,"byteOffset":6918408,"byteLength":1788681},{"buffer":0,"byteOffset":8707092,"byteLength":1591112},{"buffer":0,"byteOffset":10298204,"byteLength":1434499},{"buffer":1,"byteOffset":0,"byteLength":2848408,"byteStride":8,"target":34962,"extensions":{"EXT_meshopt_compression":{"buffer":0,"byteOffset":11732704,"byteLength":1209290,"byteStride":8,"mode":"ATTRIBUTES","count":356051}}},{"buffer":1,"byteOffset":2848408,"byteLength":1424204,"byteStride":4,"target":34962,"extensions":{"EXT_meshopt_compression":{"buffer":0,"byteOffset":12941996,"byteLength":643667,"byteStride":4,"mode":"ATTRIBUTES","count":356051}}},{"buffer":1,"byteOffset":4272612,"byteLength":2571312,"target":34963,"extensions":{"EXT_meshopt_compression":{"buffer":0,"byteOffset":13585664,"byteLength":477959,"byteStride":2,"mode":"TRIANGLES","count":1285656}}},{"buffer":1,"byteOffset":6843924,"byteLength":858864,"target":34963,"extensions":{"EXT_meshopt_compression":{"buffer":0,"byteOffset":14063624,"byteLength":149208,"byteStride":4,"mode":"TRIANGLES","count":214716}}}],"accessors":[{"bufferView":28,"byteOffset":0,"componentType":5123,"count":198,"type":"VEC3","min":[1178,1250,175],"max":[15941,11999,8568]},{"bufferView":29,"byteOffset":0,"componentType":5123,"count":198,"type":"VEC2"},{"bufferView":30,"byteOffset":0,"componentType":5123,"count":210,"type":"SCALAR"},{"bufferView":28,"byteOffset":1584,"componentType":5123,"count":414,"type":"VEC3","min":[217,703,133],"max":[16377,13131,9050]},{"bufferView":29,"byteOffset":792,"componentType":5123,"count":414,"type":"VEC2"},{"bufferView":30,"byteOffset":420,"componentType":5123,"count":474,"type":"SCALAR"},{"bufferView":28,"byteOffset":4896,"componentType":5123,"count":374,"type":"VEC3","min":[2147,657,128],"max":[16367,12904,9132]},{"bufferView":29,"byteOffset":2448,"componentType":5123,"count":374,"type":"VEC2"},{"bufferView":30,"byteOffset":1368,"componentType":5123,"count":453,"type":"SCALAR"},{"bufferView":28,"byteOffset":7888,"componentType":5123,"count":326,"type":"VEC3","min":[309,1211,81],"max":[15811,13111,9123]},{"bufferView":29,"byteOffset":3944,"componentType":5123,"count":326,"type":"VEC2"},{"bufferView":30,"byteOffset":2274,"componentType":5123,"count":408,"type":"SCALAR"},{"bufferView":28,"byteOffset":10496,"componentType":5123,"count":312,"type":"VEC3","min":[465,951,96],"max":[15719,13075,9084]},{"bufferView":29,"byteOffset":5248,"componentType":5123,"count":312,"type":"VEC2"},{"bufferView":30,"byteOffset":3090,"componentType":5123,"count":408,"type":"SCALAR"},{"bufferView":28,"byteOffset":12992,"componentType":5123,"count":851,"type":"VEC3","min":[207,813,21],"max":[16374,13146,9094]},{"bufferView":29,"byteOffset":6496,"componentType":5123,"count":851,"type":"VEC2"},{"bufferView":30,"byteOffset":3906,"componentType":5123,"count":1104,"type":"SCALAR"},{"bufferView":28,"byteOffset":19800,"componentType":5123,"count":726,"type":"VEC3","min":[570,874,47],"max":[16362,13108,9138]},{"bufferView":29,"byteOffset":9900,"componentType":5123,"count":726,"type":"VEC2"},{"bufferView":30,"byteOffset":6114,"componentType":5123,"count":1011,"type":"SCALAR"},{"bufferView":28,"byteOffset":25608,"componentType":5123,"count":647,"type":"VEC3","min":[472,763,40],"max":[16346,13141,9065]},{"bufferView":29,"byteOffset":12804,"componentType":5123,"count":647,"type":"VEC2"},{"bufferView":30,"byteOffset":8136,"componentType":5123,"count":882,"type":"SCALAR"},{"bufferView":28,"byteOffset":30784,"componentType":5123,"count":620,"type":"VEC3","min":[137,1092,44],"max":[16321,13109,9109]},{"bufferView":29,"byteOffset":15392,"componentType":5123,"count":620,"type":"VEC2"},{"bufferView":30,"byteOffset":9900,"componentType":5123,"count":957,"type":"SCALAR"},{"bufferView":28,"byteOffset":35744,"componentType":5123,"count":619,"type":"VEC3","min":[181,1141,47],"max":[16203,13155,9125]},{"bufferView":29,"byteOffset":17872,"componentType":5123,"count":619,"type":"VEC2"},{"bufferView":30,"byteOffset":11814,"componentType":5123,"count":1023,"type":"SCALAR"},{"bufferView":28,"byteOffset":40696,"componentType":5123,"count":1412,"type":"VEC3","min":[121,1375,17],"max":[16363,13048,9039]},{"bufferView":29,"byteOffset":20348,"componentType":5123,"count":1412,"type":"VEC2"},{"bufferView":30,"byteOffset":13860,"componentType":5123,"count":2667,"type":"SCALAR"},{"bufferView":28,"byteOffset":51992,"componentType":5123,"count":1462,"type":"VEC3","min":[276,859,46],"max":[16367,13131,9034]},{"bufferView":29,"byteOffset":25996,"componentType":5123,"count":1462,"type":"VEC2"},{"bufferView":30,"byteOffset":19194,"componentType":5123,"count":3327,"type":"SCALAR"},{"bufferView":28,"byteOffset":63688,"componentType":5123,"count":4811,"type":"VEC3","min":[119,1157,22],"max":[16353,13194,9117]},{"bufferView":29,"byteOffset":31844,"componentType":5123,"count":4811,"type":"VEC2"},{"bufferView":30,"byteOffset":25848,"componentType":5123,"count":15813,"type":"SCALAR"},{"bufferView":28,"byteOffset":102176,"componentType":5123,"count":5545,"type":"VEC3","min":[131,750,41],"max":[16374,13136,9084]},{"bufferView":29,"byteOffset":51088,"componentType":5123,"count":5545,"type":"VEC2"},{"bufferView":30,"byteOffset":57474,"componentType":5123,"count":20424,"type":"SCALAR"},{"bufferView":28,"byteOffset":146536,"componentType":5123,"count":13659,"type":"VEC3","min":[12,1291,7],"max":[16361,13194,9121]},{"bufferView":29,"byteOffset":73268,"componentType":5123,"count":13659,"type":"VEC2"},{"bufferView":30,"byteOffset":98322,"componentType":5123,"count":57876,"type":"SCALAR"},{"bufferView":28,"byteOffset":255808,"componentType":5123,"count":11677,"type":"VEC3","min":[5,1361,12],"max":[16376,13181,9143]},{"bufferView":29,"byteOffset":127904,"componentType":5123,"count":11677,"type":"VEC2"},{"bufferView":30,"byteOffset":214074,"componentType":5123,"count":50688,"type":"SCALAR"},{"bufferView":28,"byteOffset":349224,"componentType":5123,"count":13186,"type":"VEC3","min":[0,1136,32],"max":[16376,13189,9124]},{"bufferView":29,"byteOffset":174612,"componentType":5123,"count":13186,"type":"VEC2"},{"bufferView":30,"byteOffset":315450,"componentType":5123,"count":60810,"type":"SCALAR"},{"bufferView":28,"byteOffset":454712,"componentType":5123,"count":13221,"type":"VEC3","min":[5,1331,7],"max":[16383,13163,9117]},{"bufferView":29,"byteOffset":227356,"componentType":5123,"count":13221,"type":"VEC2"},{"bufferView":30,"byteOffset":437070,"componentType":5123,"count":61827,"type":"SCALAR"},{"bufferView":28,"byteOffset":560480,"componentType":5123,"count":13565,"type":"VEC3","min":[15,0,7],"max":[16359,13137,9146]},{"bufferView":29,"byteOffset":280240,"componentType":5123,"count":13565,"type":"VEC2"},{"bufferView":30,"byteOffset":560724,"componentType":5123,"count":65535,"type":"SCALAR"},{"bufferView":28,"byteOffset":669000,"componentType":5123,"count":11599,"type":"VEC3","min":[2,942,8],"max":[16347,13127,9065]},{"bufferView":29,"byteOffset":334500,"componentType":5123,"count":11599,"type":"VEC2"},{"bufferView":30,"byteOffset":691794,"componentType":5123,"count":55035,"type":"SCALAR"},{"bufferView":28,"byteOffset":761792,"componentType":5123,"count":12544,"type":"VEC3","min":[134,1220,10],"max":[16357,13182,9142]},{"bufferView":29,"byteOffset":380896,"componentType":5123,"count":12544,"type":"VEC2"},{"bufferView":30,"byteOffset":801864,"componentType":5123,"count":61545,"type":"SCALAR"},{"bufferView":28,"byteOffset":862144,"componentType":5123,"count":14172,"type":"VEC3","min":[329,1194,14],"max":[16359,13196,9133]},{"bufferView":29,"byteOffset":431072,"componentType":5123,"count":14172,"type":"VEC2"},{"bufferView":30,"byteOffset":924954,"componentType":5123,"count":71532,"type":"SCALAR"},{"bufferView":28,"byteOffset":975520,"componentType":5123,"count":15329,"type":"VEC3","min":[323,135,7],"max":[16366,13165,9123]},{"bufferView":29,"byteOffset":487760,"componentType":5123,"count":15329,"type":"VEC2"},{"bufferView":30,"byteOffset":1068018,"componentType":5123,"count":79014,"type":"SCALAR"},{"bufferView":28,"byteOffset":1098152,"componentType":5123,"count":90460,"type":"VEC3","min":[382,76,9],"max":[16380,13253,9147]},{"bufferView":29,"byteOffset":549076,"componentType":5123,"count":90460,"type":"VEC2"},{"bufferView":31,"byteOffset":0,"componentType":5125,"count":214716,"type":"SCALAR"},{"bufferView":28,"byteOffset":1821832,"componentType":5123,"count":12075,"type":"VEC3","min":[1254,1496,17],"max":[16365,13161,9126]},{"bufferView":29,"byteOffset":910916,"componentType":5123,"count":12075,"type":"VEC2"},{"bufferView":30,"byteOffset":1226046,"componentType":5123,"count":62355,"type":"SCALAR"},{"bufferView":28,"byteOffset":1918432,"componentType":5123,"count":38866,"type":"VEC3","min":[36,1588,0],"max":[16371,13155,9124]},{"bufferView":29,"byteOffset":959216,"componentType":5123,"count":38866,"type":"VEC2"},{"bufferView":30,"byteOffset":1350756,"componentType":5123,"count":200349,"type":"SCALAR"},{"bufferView":28,"byteOffset":2229360,"componentType":5123,"count":39347,"type":"VEC3","min":[247,1553,6],"max":[16359,13306,9146]},{"bufferView":29,"byteOffset":1114680,"componentType":5123,"count":39347,"type":"VEC2"},{"bufferView":30,"byteOffset":1751454,"componentType":5123,"count":207945,"type":"SCALAR"},{"bufferView":28,"byteOffset":2544136,"componentType":5123,"count":38034,"type":"VEC3","min":[1552,1597,2],"max":[16372,13155,9116]},{"bufferView":29,"byteOffset":1272068,"componentType":5123,"count":38034,"type":"VEC2"},{"bufferView":30,"byteOffset":2167344,"componentType":5123,"count":201984,"type":"SCALAR"}],"images":[{"bufferView":0,"mimeType":"image/ktx2"},{"bufferView":1,"mimeType":"image/ktx2"},{"bufferView":2,"mimeType":"image/ktx2"},{"bufferView":3,"mimeType":"image/ktx2"},{"bufferView":4,"mimeType":"image/ktx2"},{"bufferView":5,"mimeType":"image/ktx2"},{"bufferView":6,"mimeType":"image/ktx2"},{"bufferView":7,"mimeType":"image/ktx2"},{"bufferView":8,"mimeType":"image/ktx2"},{"bufferView":9,"mimeType":"image/ktx2"},{"bufferView":10,"mimeType":"image/ktx2"},{"bufferView":11,"mimeType":"image/ktx2"},{"bufferView":12,"mimeType":"image/ktx2"},{"bufferView":13,"mimeType":"image/ktx2"},{"bufferView":14,"mimeType":"image/ktx2"},{"bufferView":15,"mimeType":"image/ktx2"},{"bufferView":16,"mimeType":"image/ktx2"},{"bufferView":17,"mimeType":"image/ktx2"},{"bufferView":18,"mimeType":"image/ktx2"},{"bufferView":19,"mimeType":"image/ktx2"},{"bufferView":20,"mimeType":"image/ktx2"},{"bufferView":21,"mimeType":"image/ktx2"},{"bufferView":22,"mimeType":"image/ktx2"},{"bufferView":23,"mimeType":"image/ktx2"},{"bufferView":24,"mimeType":"image/ktx2"},{"bufferView":25,"mimeType":"image/ktx2"},{"bufferView":26,"mimeType":"image/ktx2"},{"bufferView":27,"mimeType":"image/ktx2"}],"textures":[{"extensions":{"KHR_texture_basisu":{"source":0}}},{"extensions":{"KHR_texture_basisu":{"source":1}}},{"extensions":{"KHR_texture_basisu":{"source":2}}},{"extensions":{"KHR_texture_basisu":{"source":3}}},{"extensions":{"KHR_texture_basisu":{"source":4}}},{"extensions":{"KHR_texture_basisu":{"source":5}}},{"extensions":{"KHR_texture_basisu":{"source":6}}},{"extensions":{"KHR_texture_basisu":{"source":7}}},{"extensions":{"KHR_texture_basisu":{"source":8}}},{"extensions":{"KHR_texture_basisu":{"source":9}}},{"extensions":{"KHR_texture_basisu":{"source":10}}},{"extensions":{"KHR_texture_basisu":{"source":11}}},{"extensions":{"KHR_texture_basisu":{"source":12}}},{"extensions":{"KHR_texture_basisu":{"source":13}}},{"extensions":{"KHR_texture_basisu":{"source":14}}},{"extensions":{"KHR_texture_basisu":{"source":15}}},{"extensions":{"KHR_texture_basisu":{"source":16}}},{"extensions":{"KHR_texture_basisu":{"source":17}}},{"extensions":{"KHR_texture_basisu":{"source":18}}},{"extensions":{"KHR_texture_basisu":{"source":19}}},{"extensions":{"KHR_texture_basisu":{"source":20}}},{"extensions":{"KHR_texture_basisu":{"source":21}}},{"extensions":{"KHR_texture_basisu":{"source":22}}},{"extensions":{"KHR_texture_basisu":{"source":23}}},{"extensions":{"KHR_texture_basisu":{"source":24}}},{"extensions":{"KHR_texture_basisu":{"source":25}}},{"extensions":{"KHR_texture_basisu":{"source":26}}},{"extensions":{"KHR_texture_basisu":{"source":27}}}],"materials":[{"pbrMetallicRoughness":{"baseColorTexture":{"index":0,"extensions":{"KHR_texture_transform":{"offset":[0.0135350004,0.0118509997],"scale":[0.000236028573,0.000127385341]}}},"roughnessFactor":0.903602004},"extensions":{"KHR_materials_unlit":{}}},{"pbrMetallicRoughness":{"baseColorTexture":{"index":1,"extensions":{"KHR_texture_transform":{"offset":[0.012658,0.0117199998],"scale":[0.00023718852,0.000237371903]}}},"roughnessFactor":0.903602004},"extensions":{"KHR_materials_unlit":{}}},{"pbrMetallicRoughness":{"baseColorTexture":{"index":2,"extensions":{"KHR_texture_transform":{"offset":[0.0130449999,0.0120059997],"scale":[0.000238152876,0.000234954583]}}},"roughnessFactor":0.903602004},"extensions":{"KHR_materials_unlit":{}}},{"pbrMetallicRoughness":{"baseColorTexture":{"index":3,"extensions":{"KHR_texture_transform":{"offset":[0.0121250004,0.0117809996],"scale":[0.000238377528,0.000237301836]}}},"roughnessFactor":0.903602004},"extensions":{"KHR_materials_unlit":{}}},{"pbrMetallicRoughness":{"baseColorTexture":{"index":4,"extensions":{"KHR_texture_transform":{"offset":[0.0124120004,0.0120090004],"scale":[0.000236951877,0.000237452012]}}},"roughnessFactor":0.903602004},"extensions":{"KHR_materials_unlit":{}}},{"pbrMetallicRoughness":{"baseColorTexture":{"index":5,"extensions":{"KHR_texture_transform":{"offset":[0.00976600032,0.00987999979],"scale":[0.000239430534,0.000238862995]}}},"roughnessFactor":0.903602004},"extensions":{"KHR_materials_unlit":{}}},{"pbrMetallicRoughness":{"baseColorTexture":{"index":6,"extensions":{"KHR_texture_transform":{"offset":[0.00988699961,0.00981200021],"scale":[0.000239400979,0.000238915993]}}},"roughnessFactor":0.903602004},"extensions":{"KHR_materials_unlit":{}}},{"pbrMetallicRoughness":{"baseColorTexture":{"index":7,"extensions":{"KHR_texture_transform":{"offset":[0.00977300014,0.00987500045],"scale":[0.000238894019,0.000239403918]}}},"roughnessFactor":0.903602004},"extensions":{"KHR_materials_unlit":{}}},{"pbrMetallicRoughness":{"baseColorTexture":{"index":8,"extensions":{"KHR_texture_transform":{"offset":[0.009815,0.0097939996],"scale":[0.000238860564,0.000238802924]}}},"roughnessFactor":0.903602004},"extensions":{"KHR_materials_unlit":{}}},{"pbrMetallicRoughness":{"baseColorTexture":{"index":9,"extensions":{"KHR_texture_transform":{"offset":[0.00976900011,0.00984499976],"scale":[0.000238860055,0.000238834677]}}},"roughnessFactor":0.903602004},"extensions":{"KHR_materials_unlit":{}}},{"pbrMetallicRoughness":{"baseColorTexture":{"index":10,"extensions":{"KHR_texture_transform":{"offset":[0.00882100035,0.00890100002],"scale":[0.000239899877,0.000239631991]}}},"roughnessFactor":0.903602004},"extensions":{"KHR_materials_unlit":{}}},{"pbrMetallicRoughness":{"baseColorTexture":{"index":11,"extensions":{"KHR_texture_transform":{"offset":[0.00880200043,0.00895300042],"scale":[0.000239639063,0.000239867644]}}},"roughnessFactor":0.903602004},"extensions":{"KHR_materials_unlit":{}}},{"pbrMetallicRoughness":{"baseColorTexture":{"index":12,"extensions":{"KHR_texture_transform":{"offset":[0.00831700023,0.00832699984],"scale":[0.000240019785,0.000240014648]}}},"roughnessFactor":0.903602004},"extensions":{"KHR_materials_unlit":{}}},{"pbrMetallicRoughness":{"baseColorTexture":{"index":13,"extensions":{"KHR_texture_transform":{"offset":[0.0083259996,0.00831199996],"scale":[0.000240012465,0.000240013193]}}},"roughnessFactor":0.903602004},"extensions":{"KHR_materials_unlit":{}}},{"pbrMetallicRoughness":{"baseColorTexture":{"index":14,"extensions":{"KHR_texture_transform":{"offset":[0.00807300024,0.00805999991],"scale":[0.000240200985,0.000240200257]}}},"roughnessFactor":0.903602004},"extensions":{"KHR_materials_unlit":{}}},{"pbrMetallicRoughness":{"baseColorTexture":{"index":15,"extensions":{"KHR_texture_transform":{"offset":[0.00806699973,0.00805999991],"scale":[0.000240199995,0.000240204157]}}},"roughnessFactor":0.903602004},"extensions":{"KHR_materials_unlit":{}}},{"pbrMetallicRoughness":{"baseColorTexture":{"index":16,"extensions":{"KHR_texture_transform":{"offset":[0.00805700012,0.00806799997],"scale":[0.000240198293,0.000240179725]}}},"roughnessFactor":0.903602004},"extensions":{"KHR_materials_unlit":{}}},{"pbrMetallicRoughness":{"baseColorTexture":{"index":17,"extensions":{"KHR_texture_transform":{"offset":[0.00813900027,0.00806500018],"scale":[0.000240176552,0.000240196096]}}},"roughnessFactor":0.903602004},"extensions":{"KHR_materials_unlit":{}}},{"pbrMetallicRoughness":{"baseColorTexture":{"index":18,"extensions":{"KHR_texture_transform":{"offset":[0.00805800036,0.00807700027],"scale":[0.000240192676,0.000240193898]}}},"roughnessFactor":0.903602004},"extensions":{"KHR_materials_unlit":{}}},{"pbrMetallicRoughness":{"baseColorTexture":{"index":19,"extensions":{"KHR_texture_transform":{"offset":[0.00805999991,0.00807799958],"scale":[0.000240195863,0.000240085225]}}},"roughnessFactor":0.903602004},"extensions":{"KHR_materials_unlit":{}}},{"pbrMetallicRoughness":{"baseColorTexture":{"index":20,"extensions":{"KHR_texture_transform":{"offset":[0.0081860004,0.00806100015],"scale":[0.000240169713,0.000240202207]}}},"roughnessFactor":0.903602004},"extensions":{"KHR_materials_unlit":{}}},{"pbrMetallicRoughness":{"baseColorTexture":{"index":21,"extensions":{"KHR_texture_transform":{"offset":[0.00808699988,0.00805999991],"scale":[0.000240193665,0.000240202455]}}},"roughnessFactor":0.903602004},"extensions":{"KHR_materials_unlit":{}}},{"pbrMetallicRoughness":{"baseColorTexture":{"index":22,"extensions":{"KHR_texture_transform":{"offset":[0.00807700027,0.00809899997],"scale":[0.000240176305,0.000240157009]}}},"roughnessFactor":0.903602004},"extensions":{"KHR_materials_unlit":{}}},{"pbrMetallicRoughness":{"baseColorTexture":{"index":23,"extensions":{"KHR_texture_transform":{"offset":[0.00819099974,0.00810199976],"scale":[0.000240170688,0.000240108668]}}},"roughnessFactor":0.903602004},"extensions":{"KHR_materials_unlit":{}}},{"pbrMetallicRoughness":{"baseColorTexture":{"index":24,"extensions":{"KHR_texture_transform":{"offset":[0.00818900019,0.00809499994],"scale":[0.00024011427,0.000240187306]}}},"roughnessFactor":0.903602004},"extensions":{"KHR_materials_unlit":{}}},{"pbrMetallicRoughness":{"baseColorTexture":{"index":25,"extensions":{"KHR_texture_transform":{"offset":[0.00793599989,0.00796299987],"scale":[0.000240252994,0.000240285954]}}},"roughnessFactor":0.903602004},"extensions":{"KHR_materials_unlit":{}}},{"pbrMetallicRoughness":{"baseColorTexture":{"index":26,"extensions":{"KHR_texture_transform":{"offset":[0.00794799998,0.00793800037],"scale":[0.000240282534,0.000240292546]}}},"roughnessFactor":0.903602004},"extensions":{"KHR_materials_unlit":{}}},{"pbrMetallicRoughness":{"baseColorTexture":{"index":27,"extensions":{"KHR_texture_transform":{"offset":[0.00795099977,0.00793999992],"scale":[0.000240245659,0.00024023981]}}},"roughnessFactor":0.903602004},"extensions":{"KHR_materials_unlit":{}}}],"meshes":[{"primitives":[{"attributes":{"POSITION":0,"TEXCOORD_0":1},"indices":2,"material":0},{"attributes":{"POSITION":3,"TEXCOORD_0":4},"indices":5,"material":1},{"attributes":{"POSITION":6,"TEXCOORD_0":7},"indices":8,"material":2},{"attributes":{"POSITION":9,"TEXCOORD_0":10},"indices":11,"material":3},{"attributes":{"POSITION":12,"TEXCOORD_0":13},"indices":14,"material":4},{"attributes":{"POSITION":15,"TEXCOORD_0":16},"indices":17,"material":5},{"attributes":{"POSITION":18,"TEXCOORD_0":19},"indices":20,"material":6},{"attributes":{"POSITION":21,"TEXCOORD_0":22},"indices":23,"material":7},{"attributes":{"POSITION":24,"TEXCOORD_0":25},"indices":26,"material":8},{"attributes":{"POSITION":27,"TEXCOORD_0":28},"indices":29,"material":9},{"attributes":{"POSITION":30,"TEXCOORD_0":31},"indices":32,"material":10},{"attributes":{"POSITION":33,"TEXCOORD_0":34},"indices":35,"material":11},{"attributes":{"POSITION":36,"TEXCOORD_0":37},"indices":38,"material":12},{"attributes":{"POSITION":39,"TEXCOORD_0":40},"indices":41,"material":13},{"attributes":{"POSITION":42,"TEXCOORD_0":43},"indices":44,"material":14},{"attributes":{"POSITION":45,"TEXCOORD_0":46},"indices":47,"material":15},{"attributes":{"POSITION":48,"TEXCOORD_0":49},"indices":50,"material":16},{"attributes":{"POSITION":51,"TEXCOORD_0":52},"indices":53,"material":17},{"attributes":{"POSITION":54,"TEXCOORD_0":55},"indices":56,"material":18},{"attributes":{"POSITION":57,"TEXCOORD_0":58},"indices":59,"material":19},{"attributes":{"POSITION":60,"TEXCOORD_0":61},"indices":62,"material":20},{"attributes":{"POSITION":63,"TEXCOORD_0":64},"indices":65,"material":21},{"attributes":{"POSITION":66,"TEXCOORD_0":67},"indices":68,"material":22},{"attributes":{"POSITION":69,"TEXCOORD_0":70},"indices":71,"material":23},{"attributes":{"POSITION":72,"TEXCOORD_0":73},"indices":74,"material":24},{"attributes":{"POSITION":75,"TEXCOORD_0":76},"indices":77,"material":25},{"attributes":{"POSITION":78,"TEXCOORD_0":79},"indices":80,"material":26},{"attributes":{"POSITION":81,"TEXCOORD_0":82},"indices":83,"material":27}]}],"nodes":[{"mesh":0,"translation":[-2.33439469,-1.88322783,-1.30125535],"scale":[0.000285538641,0.000285538641,0.000285538641]}],"scenes":[{"nodes":[0]}],"scene":0}