{"buffers":[{"uri":"scene_00128_05-instance.compressed.bin","byteLength":1616852},{"byteLength":9037452,"extensions":{"EXT_meshopt_compression":{"fallback":true}}}],"asset":{"version":"2.0","generator":"gltfpack 0.17"},"extensionsUsed":["KHR_mesh_quantization","EXT_meshopt_compression"],"extensionsRequired":["KHR_mesh_quantization","EXT_meshopt_compression"],"bufferViews":[{"buffer":1,"byteOffset":0,"byteLength":2023976,"byteStride":8,"target":34962,"extensions":{"EXT_meshopt_compression":{"buffer":0,"byteOffset":0,"byteLength":833345,"byteStride":8,"mode":"ATTRIBUTES","count":252997}}},{"buffer":1,"byteOffset":2023976,"byteLength":1011988,"byteStride":4,"target":34962,"extensions":{"EXT_meshopt_compression":{"buffer":0,"byteOffset":833348,"byteLength":214567,"byteStride":4,"mode":"ATTRIBUTES","count":252997}}},{"buffer":1,"byteOffset":3035964,"byteLength":6001488,"target":34963,"extensions":{"EXT_meshopt_compression":{"buffer":0,"byteOffset":1047916,"byteLength":568933,"byteStride":4,"mode":"TRIANGLES","count":1500372}}}],"accessors":[{"bufferView":0,"byteOffset":0,"componentType":5123,"count":252997,"type":"VEC3","min":[0,0,0],"max":[16383,13306,9147]},{"bufferView":1,"byteOffset":0,"componentType":5121,"count":252997,"type":"VEC4","normalized":true},{"bufferView":2,"byteOffset":0,"componentType":5125,"count":1500372,"type":"SCALAR"}],"meshes":[{"primitives":[{"attributes":{"POSITION":0,"COLOR_0":1},"indices":2}]}],"nodes":[{"mesh":0,"translation":[-2.33439469,-1.88322783,-1.30125535],"scale":[0.000285538641,0.000285538641,0.000285538641]}],"scenes":[{"nodes":[0]}],"scene":0}