{"buffers":[{"uri":"scene_00128_05-obb.compressed.bin","byteLength":1641568},{"byteLength":9405612,"extensions":{"EXT_meshopt_compression":{"fallback":true}}}],"asset":{"version":"2.0","generator":"gltfpack 0.17"},"extensionsUsed":["KHR_mesh_quantization","EXT_meshopt_compression"],"extensionsRequired":["KHR_mesh_quantization","EXT_meshopt_compression"],"bufferViews":[{"buffer":1,"byteOffset":0,"byteLength":2108136,"byteStride":8,"target":34962,"extensions":{"EXT_meshopt_compression":{"buffer":0,"byteOffset":0,"byteLength":856739,"byteStride":8,"mode":"ATTRIBUTES","count":263517}}},{"buffer":1,"byteOffset":2108136,"byteLength":1054068,"byteStride":4,"target":34962,"extensions":{"EXT_meshopt_compression":{"buffer":0,"byteOffset":856740,"byteLength":193395,"byteStride":4,"mode":"ATTRIBUTES","count":263517}}},{"buffer":1,"byteOffset":3162204,"byteLength":6243408,"target":34963,"extensions":{"EXT_meshopt_compression":{"buffer":0,"byteOffset":1050136,"byteLength":591432,"byteStride":4,"mode":"TRIANGLES","count":1560852}}}],"accessors":[{"bufferView":0,"byteOffset":0,"componentType":5123,"count":263517,"type":"VEC3","min":[0,0,0],"max":[16383,11454,8002]},{"bufferView":1,"byteOffset":0,"componentType":5121,"count":263517,"type":"VEC4","normalized":true},{"bufferView":2,"byteOffset":0,"componentType":5125,"count":1560852,"type":"SCALAR"}],"meshes":[{"primitives":[{"attributes":{"POSITION":0,"COLOR_0":1},"indices":2}]}],"nodes":[{"mesh":0,"translation":[-2.3893373,-1.88322783,-1.32763076],"scale":[0.000331689254,0.000331689254,0.000331689254]}],"scenes":[{"nodes":[0]}],"scene":0}