{"buffers":[{"uri":"scene_00128_00-instance.compressed.bin","byteLength":1427920},{"byteLength":8196012,"extensions":{"EXT_meshopt_compression":{"fallback":true}}}],"asset":{"version":"2.0","generator":"gltfpack 0.17"},"extensionsUsed":["KHR_mesh_quantization","EXT_meshopt_compression"],"extensionsRequired":["KHR_mesh_quantization","EXT_meshopt_compression"],"bufferViews":[{"buffer":1,"byteOffset":0,"byteLength":1833344,"byteStride":8,"target":34962,"extensions":{"EXT_meshopt_compression":{"buffer":0,"byteOffset":0,"byteLength":737182,"byteStride":8,"mode":"ATTRIBUTES","count":229168}}},{"buffer":1,"byteOffset":1833344,"byteLength":916672,"byteStride":4,"target":34962,"extensions":{"EXT_meshopt_compression":{"buffer":0,"byteOffset":737184,"byteLength":174750,"byteStride":4,"mode":"ATTRIBUTES","count":229168}}},{"buffer":1,"byteOffset":2750016,"byteLength":5445996,"target":34963,"extensions":{"EXT_meshopt_compression":{"buffer":0,"byteOffset":911936,"byteLength":515981,"byteStride":4,"mode":"TRIANGLES","count":1361499}}}],"accessors":[{"bufferView":0,"byteOffset":0,"componentType":5123,"count":229168,"type":"VEC3","min":[0,0,0],"max":[16383,13128,8971]},{"bufferView":1,"byteOffset":0,"componentType":5121,"count":229168,"type":"VEC4","normalized":true},{"bufferView":2,"byteOffset":0,"componentType":5125,"count":1361499,"type":"SCALAR"}],"meshes":[{"primitives":[{"attributes":{"POSITION":0,"COLOR_0":1},"indices":2}]}],"nodes":[{"mesh":0,"translation":[-2.367275,-1.89699399,-1.29629302],"scale":[0.000288991636,0.000288991636,0.000288991636]}],"scenes":[{"nodes":[0]}],"scene":0}