{"buffers":[{"uri":"scene_00128_00-articulation.compressed.bin","byteLength":7097104},{"byteLength":35762424,"extensions":{"EXT_meshopt_compression":{"fallback":true}}}],"asset":{"version":"2.0","generator":"gltfpack 0.17"},"extensionsUsed":["KHR_mesh_quantization","EXT_meshopt_compression"],"extensionsRequired":["KHR_mesh_quantization","EXT_meshopt_compression"],"bufferViews":[{"buffer":1,"byteOffset":0,"byteLength":2647800,"byteStride":8,"target":34962,"extensions":{"EXT_meshopt_compression":{"buffer":0,"byteOffset":0,"byteLength":952408,"byteStride":8,"mode":"ATTRIBUTES","count":330975}}},{"buffer":1,"byteOffset":2647800,"byteLength":1323900,"byteStride":4,"target":34962,"extensions":{"EXT_meshopt_compression":{"buffer":0,"byteOffset":952408,"byteLength":68380,"byteStride":4,"mode":"ATTRIBUTES","count":330975}}},{"buffer":1,"byteOffset":3971700,"byteLength":31790724,"target":34963,"extensions":{"EXT_meshopt_compression":{"buffer":0,"byteOffset":1020788,"byteLength":6076316,"byteStride":4,"mode":"TRIANGLES","count":7947681}}}],"accessors":[{"bufferView":0,"byteOffset":0,"componentType":5123,"count":330975,"type":"VEC3","min":[0,0,0],"max":[16383,12222,9060]},{"bufferView":1,"byteOffset":0,"componentType":5121,"count":330975,"type":"VEC4","normalized":true},{"bufferView":2,"byteOffset":0,"componentType":5125,"count":7947681,"type":"SCALAR"}],"materials":[{"pbrMetallicRoughness":{},"doubleSided":true,"alphaMode":"BLEND"}],"meshes":[{"primitives":[{"attributes":{"POSITION":0,"COLOR_0":1},"indices":2,"material":0}]}],"nodes":[{"mesh":0,"translation":[-2.367275,-1.89699399,-1.40116656],"scale":[0.000310428673,0.000310428673,0.000310428673]}],"scenes":[{"nodes":[0]}],"scene":0}