{"buffers":[{"uri":"scene_00128_00-texture.compressed.bin","byteLength":10686656},{"byteLength":6805404,"extensions":{"EXT_meshopt_compression":{"fallback":true}}}],"asset":{"version":"2.0","generator":"gltfpack 0.17"},"extensionsUsed":["KHR_mesh_quantization","EXT_meshopt_compression","KHR_texture_transform","KHR_materials_unlit","KHR_texture_basisu"],"extensionsRequired":["KHR_mesh_quantization","EXT_meshopt_compression","KHR_texture_basisu"],"bufferViews":[{"buffer":0,"byteOffset":0,"byteLength":1551},{"buffer":0,"byteOffset":1552,"byteLength":6496},{"buffer":0,"byteOffset":8048,"byteLength":21715},{"buffer":0,"byteOffset":29764,"byteLength":21462},{"buffer":0,"byteOffset":51228,"byteLength":20637},{"buffer":0,"byteOffset":71868,"byteLength":20920},{"buffer":0,"byteOffset":92788,"byteLength":189021},{"buffer":0,"byteOffset":281812,"byteLength":605713},{"buffer":0,"byteOffset":887528,"byteLength":562586},{"buffer":0,"byteOffset":1450116,"byteLength":541576},{"buffer":0,"byteOffset":1991692,"byteLength":518596},{"buffer":0,"byteOffset":2510288,"byteLength":533948},{"buffer":0,"byteOffset":3044236,"byteLength":542049},{"buffer":0,"byteOffset":3586288,"byteLength":494205},{"buffer":0,"byteOffset":4080496,"byteLength":502672},{"buffer":0,"byteOffset":4583168,"byteLength":481724},{"buffer":0,"byteOffset":5064892,"byteLength":488810},{"buffer":0,"byteOffset":5553704,"byteLength":1586343},{"buffer":0,"byteOffset":7140048,"byteLength":1399600},{"buffer":1,"byteOffset":0,"byteLength":2458616,"byteStride":8,"target":34962,"extensions":{"EXT_meshopt_compression":{"buffer":0,"byteOffset":8539648,"byteLength":1024400,"byteStride":8,"mode":"ATTRIBUTES","count":307327}}},{"buffer":1,"byteOffset":2458616,"byteLength":1229308,"byteStride":4,"target":34962,"extensions":{"EXT_meshopt_compression":{"buffer":0,"byteOffset":9564048,"byteLength":563521,"byteStride":4,"mode":"ATTRIBUTES","count":307327}}},{"buffer":1,"byteOffset":3687924,"byteLength":2328516,"target":34963,"extensions":{"EXT_meshopt_compression":{"buffer":0,"byteOffset":10127572,"byteLength":434398,"byteStride":2,"mode":"TRIANGLES","count":1164258}}},{"buffer":1,"byteOffset":6016440,"byteLength":788964,"target":34963,"extensions":{"EXT_meshopt_compression":{"buffer":0,"byteOffset":10561972,"byteLength":124682,"byteStride":4,"mode":"TRIANGLES","count":197241}}}],"accessors":[{"bufferView":19,"byteOffset":0,"componentType":5123,"count":36,"type":"VEC3","min":[1093,1227,526],"max":[14193,12735,4202]},{"bufferView":20,"byteOffset":0,"componentType":5123,"count":36,"type":"VEC2"},{"bufferView":21,"byteOffset":0,"componentType":5123,"count":36,"type":"SCALAR"},{"bufferView":19,"byteOffset":288,"componentType":5123,"count":402,"type":"VEC3","min":[546,299,73],"max":[15668,12991,8881]},{"bufferView":20,"byteOffset":144,"componentType":5123,"count":402,"type":"VEC2"},{"bufferView":21,"byteOffset":72,"componentType":5123,"count":429,"type":"SCALAR"},{"bufferView":19,"byteOffset":3504,"componentType":5123,"count":894,"type":"VEC3","min":[37,141,83],"max":[16325,13075,8926]},{"bufferView":20,"byteOffset":1752,"componentType":5123,"count":894,"type":"VEC2"},{"bufferView":21,"byteOffset":930,"componentType":5123,"count":1056,"type":"SCALAR"},{"bufferView":19,"byteOffset":10656,"componentType":5123,"count":765,"type":"VEC3","min":[364,873,28],"max":[16307,13066,8923]},{"bufferView":20,"byteOffset":5328,"componentType":5123,"count":765,"type":"VEC2"},{"bufferView":21,"byteOffset":3042,"componentType":5123,"count":978,"type":"SCALAR"},{"bufferView":19,"byteOffset":16776,"componentType":5123,"count":635,"type":"VEC3","min":[8,1160,49],"max":[16345,13069,8949]},{"bufferView":20,"byteOffset":8388,"componentType":5123,"count":635,"type":"VEC2"},{"bufferView":21,"byteOffset":4998,"componentType":5123,"count":861,"type":"SCALAR"},{"bufferView":19,"byteOffset":21856,"componentType":5123,"count":641,"type":"VEC3","min":[650,916,54],"max":[16342,13066,8940]},{"bufferView":20,"byteOffset":10928,"componentType":5123,"count":641,"type":"VEC2"},{"bufferView":21,"byteOffset":6720,"componentType":5123,"count":1089,"type":"SCALAR"},{"bufferView":19,"byteOffset":26984,"componentType":5123,"count":4698,"type":"VEC3","min":[28,3,28],"max":[16334,13113,8970]},{"bufferView":20,"byteOffset":13492,"componentType":5123,"count":4698,"type":"VEC2"},{"bufferView":21,"byteOffset":8898,"componentType":5123,"count":13893,"type":"SCALAR"},{"bufferView":19,"byteOffset":64568,"componentType":5123,"count":13705,"type":"VEC3","min":[25,0,48],"max":[16363,13128,8965]},{"bufferView":20,"byteOffset":32284,"componentType":5123,"count":13705,"type":"VEC2"},{"bufferView":21,"byteOffset":36684,"componentType":5123,"count":57807,"type":"SCALAR"},{"bufferView":19,"byteOffset":174208,"componentType":5123,"count":14505,"type":"VEC3","min":[13,907,44],"max":[16269,13065,8964]},{"bufferView":20,"byteOffset":87104,"componentType":5123,"count":14505,"type":"VEC2"},{"bufferView":21,"byteOffset":152298,"componentType":5123,"count":66777,"type":"SCALAR"},{"bufferView":19,"byteOffset":290248,"componentType":5123,"count":14493,"type":"VEC3","min":[9,261,10],"max":[16317,13126,8966]},{"bufferView":20,"byteOffset":145124,"componentType":5123,"count":14493,"type":"VEC2"},{"bufferView":21,"byteOffset":285852,"componentType":5123,"count":68757,"type":"SCALAR"},{"bufferView":19,"byteOffset":406192,"componentType":5123,"count":12980,"type":"VEC3","min":[244,1469,58],"max":[16275,13075,8955]},{"bufferView":20,"byteOffset":203096,"componentType":5123,"count":12980,"type":"VEC2"},{"bufferView":21,"byteOffset":423366,"componentType":5123,"count":62397,"type":"SCALAR"},{"bufferView":19,"byteOffset":510032,"componentType":5123,"count":14230,"type":"VEC3","min":[13,299,69],"max":[16291,13065,8964]},{"bufferView":20,"byteOffset":255016,"componentType":5123,"count":14230,"type":"VEC2"},{"bufferView":21,"byteOffset":548160,"componentType":5123,"count":70560,"type":"SCALAR"},{"bufferView":19,"byteOffset":623872,"componentType":5123,"count":13705,"type":"VEC3","min":[23,472,54],"max":[16313,13045,8970]},{"bufferView":20,"byteOffset":311936,"componentType":5123,"count":13705,"type":"VEC2"},{"bufferView":21,"byteOffset":689280,"componentType":5123,"count":68514,"type":"SCALAR"},{"bufferView":19,"byteOffset":733512,"componentType":5123,"count":17708,"type":"VEC3","min":[0,954,43],"max":[16275,13057,8962]},{"bufferView":20,"byteOffset":366756,"componentType":5123,"count":17708,"type":"VEC2"},{"bufferView":21,"byteOffset":826308,"componentType":5123,"count":91749,"type":"SCALAR"},{"bufferView":19,"byteOffset":875176,"componentType":5123,"count":13512,"type":"VEC3","min":[52,1324,30],"max":[16214,13072,8962]},{"bufferView":20,"byteOffset":437588,"componentType":5123,"count":13512,"type":"VEC2"},{"bufferView":21,"byteOffset":1009806,"componentType":5123,"count":68205,"type":"SCALAR"},{"bufferView":19,"byteOffset":983272,"componentType":5123,"count":14149,"type":"VEC3","min":[1,472,0],"max":[16270,13086,8962]},{"bufferView":20,"byteOffset":491636,"componentType":5123,"count":14149,"type":"VEC2"},{"bufferView":21,"byteOffset":1146216,"componentType":5123,"count":72798,"type":"SCALAR"},{"bufferView":19,"byteOffset":1096464,"componentType":5123,"count":74073,"type":"VEC3","min":[16,14,44],"max":[16383,13128,8960]},{"bufferView":20,"byteOffset":548232,"componentType":5123,"count":74073,"type":"VEC2"},{"bufferView":22,"byteOffset":0,"componentType":5125,"count":197241,"type":"SCALAR"},{"bufferView":19,"byteOffset":1689048,"componentType":5123,"count":51976,"type":"VEC3","min":[9,345,32],"max":[16298,13076,8971]},{"bufferView":20,"byteOffset":844524,"componentType":5123,"count":51976,"type":"VEC2"},{"bufferView":21,"byteOffset":1291812,"componentType":5123,"count":278019,"type":"SCALAR"},{"bufferView":19,"byteOffset":2104856,"componentType":5123,"count":44220,"type":"VEC3","min":[228,1027,28],"max":[16299,13125,8971]},{"bufferView":20,"byteOffset":1052428,"componentType":5123,"count":44220,"type":"VEC2"},{"bufferView":21,"byteOffset":1847850,"componentType":5123,"count":240333,"type":"SCALAR"}],"images":[{"bufferView":0,"mimeType":"image/ktx2"},{"bufferView":1,"mimeType":"image/ktx2"},{"bufferView":2,"mimeType":"image/ktx2"},{"bufferView":3,"mimeType":"image/ktx2"},{"bufferView":4,"mimeType":"image/ktx2"},{"bufferView":5,"mimeType":"image/ktx2"},{"bufferView":6,"mimeType":"image/ktx2"},{"bufferView":7,"mimeType":"image/ktx2"},{"bufferView":8,"mimeType":"image/ktx2"},{"bufferView":9,"mimeType":"image/ktx2"},{"bufferView":10,"mimeType":"image/ktx2"},{"bufferView":11,"mimeType":"image/ktx2"},{"bufferView":12,"mimeType":"image/ktx2"},{"bufferView":13,"mimeType":"image/ktx2"},{"bufferView":14,"mimeType":"image/ktx2"},{"bufferView":15,"mimeType":"image/ktx2"},{"bufferView":16,"mimeType":"image/ktx2"},{"bufferView":17,"mimeType":"image/ktx2"},{"bufferView":18,"mimeType":"image/ktx2"}],"textures":[{"extensions":{"KHR_texture_basisu":{"source":0}}},{"extensions":{"KHR_texture_basisu":{"source":1}}},{"extensions":{"KHR_texture_basisu":{"source":2}}},{"extensions":{"KHR_texture_basisu":{"source":3}}},{"extensions":{"KHR_texture_basisu":{"source":4}}},{"extensions":{"KHR_texture_basisu":{"source":5}}},{"extensions":{"KHR_texture_basisu":{"source":6}}},{"extensions":{"KHR_texture_basisu":{"source":7}}},{"extensions":{"KHR_texture_basisu":{"source":8}}},{"extensions":{"KHR_texture_basisu":{"source":9}}},{"extensions":{"KHR_texture_basisu":{"source":10}}},{"extensions":{"KHR_texture_basisu":{"source":11}}},{"extensions":{"KHR_texture_basisu":{"source":12}}},{"extensions":{"KHR_texture_basisu":{"source":13}}},{"extensions":{"KHR_texture_basisu":{"source":14}}},{"extensions":{"KHR_texture_basisu":{"source":15}}},{"extensions":{"KHR_texture_basisu":{"source":16}}},{"extensions":{"KHR_texture_basisu":{"source":17}}},{"extensions":{"KHR_texture_basisu":{"source":18}}}],"materials":[{"pbrMetallicRoughness":{"baseColorTexture":{"index":0,"extensions":{"KHR_texture_transform":{"offset":[0.0117650004,0.0117739998],"scale":[6.23677697e-05,7.88578764e-05]}}},"roughnessFactor":0.903602004},"extensions":{"KHR_materials_unlit":{}}},{"pbrMetallicRoughness":{"baseColorTexture":{"index":1,"extensions":{"KHR_texture_transform":{"offset":[0.01272,0.011771],"scale":[0.000237278393,0.000237477652]}}},"roughnessFactor":0.903602004},"extensions":{"KHR_materials_unlit":{}}},{"pbrMetallicRoughness":{"baseColorTexture":{"index":2,"extensions":{"KHR_texture_transform":{"offset":[0.00976600032,0.00976600032],"scale":[0.000239430534,0.000239309404]}}},"roughnessFactor":0.903602004},"extensions":{"KHR_materials_unlit":{}}},{"pbrMetallicRoughness":{"baseColorTexture":{"index":3,"extensions":{"KHR_texture_transform":{"offset":[0.00984700024,0.00999000017],"scale":[0.000238859589,0.000239375833]}}},"roughnessFactor":0.903602004},"extensions":{"KHR_materials_unlit":{}}},{"pbrMetallicRoughness":{"baseColorTexture":{"index":4,"extensions":{"KHR_texture_transform":{"offset":[0.00976600032,0.00996599998],"scale":[0.000238932611,0.000238424167]}}},"roughnessFactor":0.903602004},"extensions":{"KHR_materials_unlit":{}}},{"pbrMetallicRoughness":{"baseColorTexture":{"index":5,"extensions":{"KHR_texture_transform":{"offset":[0.00977300014,0.00989999995],"scale":[0.000239428817,0.00023882126]}}},"roughnessFactor":0.903602004},"extensions":{"KHR_materials_unlit":{}}},{"pbrMetallicRoughness":{"baseColorTexture":{"index":6,"extensions":{"KHR_texture_transform":{"offset":[0.00834299996,0.00830100011],"scale":[0.000239994872,0.000240021734]}}},"roughnessFactor":0.903602004},"extensions":{"KHR_materials_unlit":{}}},{"pbrMetallicRoughness":{"baseColorTexture":{"index":7,"extensions":{"KHR_texture_transform":{"offset":[0.00807700027,0.00806500018],"scale":[0.000240184861,0.000240193651]}}},"roughnessFactor":0.903602004},"extensions":{"KHR_materials_unlit":{}}},{"pbrMetallicRoughness":{"baseColorTexture":{"index":8,"extensions":{"KHR_texture_transform":{"offset":[0.00813100021,0.00807899982],"scale":[0.000240131136,0.000240184629]}}},"roughnessFactor":0.903602004},"extensions":{"KHR_materials_unlit":{}}},{"pbrMetallicRoughness":{"baseColorTexture":{"index":9,"extensions":{"KHR_texture_transform":{"offset":[0.00806799997,0.00811399985],"scale":[0.000240188281,0.000240154826]}}},"roughnessFactor":0.903602004},"extensions":{"KHR_materials_unlit":{}}},{"pbrMetallicRoughness":{"baseColorTexture":{"index":10,"extensions":{"KHR_texture_transform":{"offset":[0.00806699973,0.00806900021],"scale":[0.000240184367,0.000240133581]}}},"roughnessFactor":0.903602004},"extensions":{"KHR_materials_unlit":{}}},{"pbrMetallicRoughness":{"baseColorTexture":{"index":11,"extensions":{"KHR_texture_transform":{"offset":[0.0080810003,0.00812300015],"scale":[0.000240199268,0.000240179739]}}},"roughnessFactor":0.903602004},"extensions":{"KHR_materials_unlit":{}}},{"pbrMetallicRoughness":{"baseColorTexture":{"index":12,"extensions":{"KHR_texture_transform":{"offset":[0.00814499985,0.00811600033],"scale":[0.000240177309,0.000240161899]}}},"roughnessFactor":0.903602004},"extensions":{"KHR_materials_unlit":{}}},{"pbrMetallicRoughness":{"baseColorTexture":{"index":13,"extensions":{"KHR_texture_transform":{"offset":[0.00811799988,0.00809200015],"scale":[0.000240163368,0.000240110618]}}},"roughnessFactor":0.903602004},"extensions":{"KHR_materials_unlit":{}}},{"pbrMetallicRoughness":{"baseColorTexture":{"index":14,"extensions":{"KHR_texture_transform":{"offset":[0.00812899973,0.00817899965],"scale":[0.000240011243,0.000240163368]}}},"roughnessFactor":0.903602004},"extensions":{"KHR_materials_unlit":{}}},{"pbrMetallicRoughness":{"baseColorTexture":{"index":15,"extensions":{"KHR_texture_transform":{"offset":[0.00809200015,0.00807099976],"scale":[0.000240180962,0.000240193171]}}},"roughnessFactor":0.903602004},"extensions":{"KHR_materials_unlit":{}}},{"pbrMetallicRoughness":{"baseColorTexture":{"index":16,"extensions":{"KHR_texture_transform":{"offset":[0.00809799973,0.00807600003],"scale":[0.000240170935,0.000240152862]}}},"roughnessFactor":0.903602004},"extensions":{"KHR_materials_unlit":{}}},{"pbrMetallicRoughness":{"baseColorTexture":{"index":17,"extensions":{"KHR_texture_transform":{"offset":[0.00794799998,0.00793499965],"scale":[0.000240285721,0.000240240057]}}},"roughnessFactor":0.903602004},"extensions":{"KHR_materials_unlit":{}}},{"pbrMetallicRoughness":{"baseColorTexture":{"index":18,"extensions":{"KHR_texture_transform":{"offset":[0.00793899968,0.00794699974],"scale":[0.000240292793,0.000240165551]}}},"roughnessFactor":0.903602004},"extensions":{"KHR_materials_unlit":{}}}],"meshes":[{"primitives":[{"attributes":{"POSITION":0,"TEXCOORD_0":1},"indices":2,"material":0},{"attributes":{"POSITION":3,"TEXCOORD_0":4},"indices":5,"material":1},{"attributes":{"POSITION":6,"TEXCOORD_0":7},"indices":8,"material":2},{"attributes":{"POSITION":9,"TEXCOORD_0":10},"indices":11,"material":3},{"attributes":{"POSITION":12,"TEXCOORD_0":13},"indices":14,"material":4},{"attributes":{"POSITION":15,"TEXCOORD_0":16},"indices":17,"material":5},{"attributes":{"POSITION":18,"TEXCOORD_0":19},"indices":20,"material":6},{"attributes":{"POSITION":21,"TEXCOORD_0":22},"indices":23,"material":7},{"attributes":{"POSITION":24,"TEXCOORD_0":25},"indices":26,"material":8},{"attributes":{"POSITION":27,"TEXCOORD_0":28},"indices":29,"material":9},{"attributes":{"POSITION":30,"TEXCOORD_0":31},"indices":32,"material":10},{"attributes":{"POSITION":33,"TEXCOORD_0":34},"indices":35,"material":11},{"attributes":{"POSITION":36,"TEXCOORD_0":37},"indices":38,"material":12},{"attributes":{"POSITION":39,"TEXCOORD_0":40},"indices":41,"material":13},{"attributes":{"POSITION":42,"TEXCOORD_0":43},"indices":44,"material":14},{"attributes":{"POSITION":45,"TEXCOORD_0":46},"indices":47,"material":15},{"attributes":{"POSITION":48,"TEXCOORD_0":49},"indices":50,"material":16},{"attributes":{"POSITION":51,"TEXCOORD_0":52},"indices":53,"material":17},{"attributes":{"POSITION":54,"TEXCOORD_0":55},"indices":56,"material":18}]}],"nodes":[{"mesh":0,"translation":[-2.367275,-1.89699399,-1.29629302],"scale":[0.000288991636,0.000288991636,0.000288991636]}],"scenes":[{"nodes":[0]}],"scene":0}