{"buffers":[{"uri":"scene_00128_00-obb.compressed.bin","byteLength":1456272},{"byteLength":8590380,"extensions":{"EXT_meshopt_compression":{"fallback":true}}}],"asset":{"version":"2.0","generator":"gltfpack 0.17"},"extensionsUsed":["KHR_mesh_quantization","EXT_meshopt_compression"],"extensionsRequired":["KHR_mesh_quantization","EXT_meshopt_compression"],"bufferViews":[{"buffer":1,"byteOffset":0,"byteLength":1923456,"byteStride":8,"target":34962,"extensions":{"EXT_meshopt_compression":{"buffer":0,"byteOffset":0,"byteLength":763493,"byteStride":8,"mode":"ATTRIBUTES","count":240432}}},{"buffer":1,"byteOffset":1923456,"byteLength":961728,"byteStride":4,"target":34962,"extensions":{"EXT_meshopt_compression":{"buffer":0,"byteOffset":763496,"byteLength":152681,"byteStride":4,"mode":"ATTRIBUTES","count":240432}}},{"buffer":1,"byteOffset":2885184,"byteLength":5705196,"target":34963,"extensions":{"EXT_meshopt_compression":{"buffer":0,"byteOffset":916180,"byteLength":540091,"byteStride":4,"mode":"TRIANGLES","count":1426299}}}],"accessors":[{"bufferView":0,"byteOffset":0,"componentType":5123,"count":240432,"type":"VEC3","min":[0,0,0],"max":[16383,11470,7861]},{"bufferView":1,"byteOffset":0,"componentType":5121,"count":240432,"type":"VEC4","normalized":true},{"bufferView":2,"byteOffset":0,"componentType":5125,"count":1426299,"type":"SCALAR"}],"meshes":[{"primitives":[{"attributes":{"POSITION":0,"COLOR_0":1},"indices":2}]}],"nodes":[{"mesh":0,"translation":[-2.39603972,-1.89699399,-1.30629301],"scale":[0.000332328724,0.000332328724,0.000332328724]}],"scenes":[{"nodes":[0]}],"scene":0}