{"buffers":[{"uri":"scene_00128_04-texture.compressed.bin","byteLength":12685128},{"byteLength":6954672,"extensions":{"EXT_meshopt_compression":{"fallback":true}}}],"asset":{"version":"2.0","generator":"gltfpack 0.17"},"extensionsUsed":["KHR_mesh_quantization","EXT_meshopt_compression","KHR_texture_transform","KHR_materials_unlit","KHR_texture_basisu"],"extensionsRequired":["KHR_mesh_quantization","EXT_meshopt_compression","KHR_texture_basisu"],"bufferViews":[{"buffer":0,"byteOffset":0,"byteLength":5760},{"buffer":0,"byteOffset":5760,"byteLength":6697},{"buffer":0,"byteOffset":12460,"byteLength":6583},{"buffer":0,"byteOffset":19044,"byteLength":23001},{"buffer":0,"byteOffset":42048,"byteLength":23905},{"buffer":0,"byteOffset":65956,"byteLength":23615},{"buffer":0,"byteOffset":89572,"byteLength":78642},{"buffer":0,"byteOffset":168216,"byteLength":215974},{"buffer":0,"byteOffset":384192,"byteLength":210126},{"buffer":0,"byteOffset":594320,"byteLength":203707},{"buffer":0,"byteOffset":798028,"byteLength":620300},{"buffer":0,"byteOffset":1418328,"byteLength":608491},{"buffer":0,"byteOffset":2026820,"byteLength":617688},{"buffer":0,"byteOffset":2644508,"byteLength":560575},{"buffer":0,"byteOffset":3205084,"byteLength":559825},{"buffer":0,"byteOffset":3764912,"byteLength":558074},{"buffer":0,"byteOffset":4322988,"byteLength":548275},{"buffer":0,"byteOffset":4871264,"byteLength":519257},{"buffer":0,"byteOffset":5390524,"byteLength":548390},{"buffer":0,"byteOffset":5938916,"byteLength":1759462},{"buffer":0,"byteOffset":7698380,"byteLength":1642950},{"buffer":0,"byteOffset":9341332,"byteLength":1216065},{"buffer":1,"byteOffset":0,"byteLength":2434976,"byteStride":8,"target":34962,"extensions":{"EXT_meshopt_compression":{"buffer":0,"byteOffset":10557400,"byteLength":1026137,"byteStride":8,"mode":"ATTRIBUTES","count":304372}}},{"buffer":1,"byteOffset":2434976,"byteLength":1217488,"byteStride":4,"target":34962,"extensions":{"EXT_meshopt_compression":{"buffer":0,"byteOffset":11583540,"byteLength":558100,"byteStride":4,"mode":"ATTRIBUTES","count":304372}}},{"buffer":1,"byteOffset":3652464,"byteLength":2016732,"target":34963,"extensions":{"EXT_meshopt_compression":{"buffer":0,"byteOffset":12141640,"byteLength":376611,"byteStride":2,"mode":"TRIANGLES","count":1008366}}},{"buffer":1,"byteOffset":5669196,"byteLength":1285476,"target":34963,"extensions":{"EXT_meshopt_compression":{"buffer":0,"byteOffset":12518252,"byteLength":166876,"byteStride":4,"mode":"TRIANGLES","count":321369}}}],"accessors":[{"bufferView":22,"byteOffset":0,"componentType":5123,"count":295,"type":"VEC3","min":[333,1962,70],"max":[16231,14286,8478]},{"bufferView":23,"byteOffset":0,"componentType":5123,"count":295,"type":"VEC2"},{"bufferView":24,"byteOffset":0,"componentType":5123,"count":327,"type":"SCALAR"},{"bufferView":22,"byteOffset":2360,"componentType":5123,"count":366,"type":"VEC3","min":[427,2456,107],"max":[15769,14131,9060]},{"bufferView":23,"byteOffset":1180,"componentType":5123,"count":366,"type":"VEC2"},{"bufferView":24,"byteOffset":654,"componentType":5123,"count":444,"type":"SCALAR"},{"bufferView":22,"byteOffset":5288,"componentType":5123,"count":312,"type":"VEC3","min":[70,2618,87],"max":[16056,14120,9071]},{"bufferView":23,"byteOffset":2644,"componentType":5123,"count":312,"type":"VEC2"},{"bufferView":24,"byteOffset":1542,"componentType":5123,"count":351,"type":"SCALAR"},{"bufferView":22,"byteOffset":7784,"componentType":5123,"count":760,"type":"VEC3","min":[220,2506,52],"max":[16373,14319,9052]},{"bufferView":23,"byteOffset":3892,"componentType":5123,"count":760,"type":"VEC2"},{"bufferView":24,"byteOffset":2244,"componentType":5123,"count":1032,"type":"SCALAR"},{"bufferView":22,"byteOffset":13864,"componentType":5123,"count":717,"type":"VEC3","min":[265,2544,50],"max":[16031,14299,9056]},{"bufferView":23,"byteOffset":6932,"componentType":5123,"count":717,"type":"VEC2"},{"bufferView":24,"byteOffset":4308,"componentType":5123,"count":1026,"type":"SCALAR"},{"bufferView":22,"byteOffset":19600,"componentType":5123,"count":597,"type":"VEC3","min":[367,974,61],"max":[16269,14286,8896]},{"bufferView":23,"byteOffset":9800,"componentType":5123,"count":597,"type":"VEC2"},{"bufferView":24,"byteOffset":6360,"componentType":5123,"count":888,"type":"SCALAR"},{"bufferView":22,"byteOffset":24376,"componentType":5123,"count":1651,"type":"VEC3","min":[72,874,58],"max":[16330,14308,9031]},{"bufferView":23,"byteOffset":12188,"componentType":5123,"count":1651,"type":"VEC2"},{"bufferView":24,"byteOffset":8136,"componentType":5123,"count":3285,"type":"SCALAR"},{"bufferView":22,"byteOffset":37584,"componentType":5123,"count":4828,"type":"VEC3","min":[84,503,46],"max":[16298,14315,9016]},{"bufferView":23,"byteOffset":18792,"componentType":5123,"count":4828,"type":"VEC2"},{"bufferView":24,"byteOffset":14706,"componentType":5123,"count":15597,"type":"SCALAR"},{"bufferView":22,"byteOffset":76208,"componentType":5123,"count":4903,"type":"VEC3","min":[55,0,53],"max":[16334,14304,9059]},{"bufferView":23,"byteOffset":38104,"componentType":5123,"count":4903,"type":"VEC2"},{"bufferView":24,"byteOffset":45900,"componentType":5123,"count":17895,"type":"SCALAR"},{"bufferView":22,"byteOffset":115432,"componentType":5123,"count":4375,"type":"VEC3","min":[203,992,30],"max":[16353,14291,9052]},{"bufferView":23,"byteOffset":57716,"componentType":5123,"count":4375,"type":"VEC2"},{"bufferView":24,"byteOffset":81690,"componentType":5123,"count":16962,"type":"SCALAR"},{"bufferView":22,"byteOffset":150432,"componentType":5123,"count":12117,"type":"VEC3","min":[207,27,0],"max":[16358,14324,9071]},{"bufferView":23,"byteOffset":75216,"componentType":5123,"count":12117,"type":"VEC2"},{"bufferView":24,"byteOffset":115614,"componentType":5123,"count":51873,"type":"SCALAR"},{"bufferView":22,"byteOffset":247368,"componentType":5123,"count":11526,"type":"VEC3","min":[13,2611,19],"max":[16372,14315,9045]},{"bufferView":23,"byteOffset":123684,"componentType":5123,"count":11526,"type":"VEC2"},{"bufferView":24,"byteOffset":219360,"componentType":5123,"count":51663,"type":"SCALAR"},{"bufferView":22,"byteOffset":339576,"componentType":5123,"count":12223,"type":"VEC3","min":[173,2573,32],"max":[16368,14320,9062]},{"bufferView":23,"byteOffset":169788,"componentType":5123,"count":12223,"type":"VEC2"},{"bufferView":24,"byteOffset":322686,"componentType":5123,"count":56307,"type":"SCALAR"},{"bufferView":22,"byteOffset":437360,"componentType":5123,"count":11778,"type":"VEC3","min":[15,2631,47],"max":[16347,14289,9071]},{"bufferView":23,"byteOffset":218680,"componentType":5123,"count":11778,"type":"VEC2"},{"bufferView":24,"byteOffset":435300,"componentType":5123,"count":55581,"type":"SCALAR"},{"bufferView":22,"byteOffset":531584,"componentType":5123,"count":13382,"type":"VEC3","min":[174,2759,35],"max":[16340,14333,9067]},{"bufferView":23,"byteOffset":265792,"componentType":5123,"count":13382,"type":"VEC2"},{"bufferView":24,"byteOffset":546462,"componentType":5123,"count":64719,"type":"SCALAR"},{"bufferView":22,"byteOffset":638640,"componentType":5123,"count":11470,"type":"VEC3","min":[0,2792,47],"max":[16328,14303,9054]},{"bufferView":23,"byteOffset":319320,"componentType":5123,"count":11470,"type":"VEC2"},{"bufferView":24,"byteOffset":675900,"componentType":5123,"count":55047,"type":"SCALAR"},{"bufferView":22,"byteOffset":730400,"componentType":5123,"count":15202,"type":"VEC3","min":[17,2796,40],"max":[16244,14349,9054]},{"bufferView":23,"byteOffset":365200,"componentType":5123,"count":15202,"type":"VEC2"},{"bufferView":24,"byteOffset":785994,"componentType":5123,"count":76713,"type":"SCALAR"},{"bufferView":22,"byteOffset":852016,"componentType":5123,"count":11323,"type":"VEC3","min":[187,2474,52],"max":[16117,14327,9053]},{"bufferView":23,"byteOffset":426008,"componentType":5123,"count":11323,"type":"VEC2"},{"bufferView":24,"byteOffset":939420,"componentType":5123,"count":56535,"type":"SCALAR"},{"bufferView":22,"byteOffset":942600,"componentType":5123,"count":12367,"type":"VEC3","min":[170,1025,29],"max":[15543,14359,9055]},{"bufferView":23,"byteOffset":471300,"componentType":5123,"count":12367,"type":"VEC2"},{"bufferView":24,"byteOffset":1052490,"componentType":5123,"count":62373,"type":"SCALAR"},{"bufferView":22,"byteOffset":1041536,"componentType":5123,"count":95048,"type":"VEC3","min":[220,27,4],"max":[16383,14365,9063]},{"bufferView":23,"byteOffset":520768,"componentType":5123,"count":95048,"type":"VEC2"},{"bufferView":25,"byteOffset":0,"componentType":5125,"count":321369,"type":"SCALAR"},{"bufferView":22,"byteOffset":1801920,"componentType":5123,"count":42298,"type":"VEC3","min":[30,1100,43],"max":[16379,14316,9060]},{"bufferView":23,"byteOffset":900960,"componentType":5123,"count":42298,"type":"VEC2"},{"bufferView":24,"byteOffset":1177236,"componentType":5123,"count":223281,"type":"SCALAR"},{"bufferView":22,"byteOffset":2140304,"componentType":5123,"count":36834,"type":"VEC3","min":[90,2719,52],"max":[16374,14337,9057]},{"bufferView":23,"byteOffset":1070152,"componentType":5123,"count":36834,"type":"VEC2"},{"bufferView":24,"byteOffset":1623798,"componentType":5123,"count":196467,"type":"SCALAR"}],"images":[{"bufferView":0,"mimeType":"image/ktx2"},{"bufferView":1,"mimeType":"image/ktx2"},{"bufferView":2,"mimeType":"image/ktx2"},{"bufferView":3,"mimeType":"image/ktx2"},{"bufferView":4,"mimeType":"image/ktx2"},{"bufferView":5,"mimeType":"image/ktx2"},{"bufferView":6,"mimeType":"image/ktx2"},{"bufferView":7,"mimeType":"image/ktx2"},{"bufferView":8,"mimeType":"image/ktx2"},{"bufferView":9,"mimeType":"image/ktx2"},{"bufferView":10,"mimeType":"image/ktx2"},{"bufferView":11,"mimeType":"image/ktx2"},{"bufferView":12,"mimeType":"image/ktx2"},{"bufferView":13,"mimeType":"image/ktx2"},{"bufferView":14,"mimeType":"image/ktx2"},{"bufferView":15,"mimeType":"image/ktx2"},{"bufferView":16,"mimeType":"image/ktx2"},{"bufferView":17,"mimeType":"image/ktx2"},{"bufferView":18,"mimeType":"image/ktx2"},{"bufferView":19,"mimeType":"image/ktx2"},{"bufferView":20,"mimeType":"image/ktx2"},{"bufferView":21,"mimeType":"image/ktx2"}],"textures":[{"extensions":{"KHR_texture_basisu":{"source":0}}},{"extensions":{"KHR_texture_basisu":{"source":1}}},{"extensions":{"KHR_texture_basisu":{"source":2}}},{"extensions":{"KHR_texture_basisu":{"source":3}}},{"extensions":{"KHR_texture_basisu":{"source":4}}},{"extensions":{"KHR_texture_basisu":{"source":5}}},{"extensions":{"KHR_texture_basisu":{"source":6}}},{"extensions":{"KHR_texture_basisu":{"source":7}}},{"extensions":{"KHR_texture_basisu":{"source":8}}},{"extensions":{"KHR_texture_basisu":{"source":9}}},{"extensions":{"KHR_texture_basisu":{"source":10}}},{"extensions":{"KHR_texture_basisu":{"source":11}}},{"extensions":{"KHR_texture_basisu":{"source":12}}},{"extensions":{"KHR_texture_basisu":{"source":13}}},{"extensions":{"KHR_texture_basisu":{"source":14}}},{"extensions":{"KHR_texture_basisu":{"source":15}}},{"extensions":{"KHR_texture_basisu":{"source":16}}},{"extensions":{"KHR_texture_basisu":{"source":17}}},{"extensions":{"KHR_texture_basisu":{"source":18}}},{"extensions":{"KHR_texture_basisu":{"source":19}}},{"extensions":{"KHR_texture_basisu":{"source":20}}},{"extensions":{"KHR_texture_basisu":{"source":21}}}],"materials":[{"pbrMetallicRoughness":{"baseColorTexture":{"index":0,"extensions":{"KHR_texture_transform":{"offset":[0.0119150002,0.0118720001],"scale":[0.000237236614,0.000177237132]}}},"roughnessFactor":0.903602004},"extensions":{"KHR_materials_unlit":{}}},{"pbrMetallicRoughness":{"baseColorTexture":{"index":1,"extensions":{"KHR_texture_transform":{"offset":[0.0118810004,0.0117340004],"scale":[0.000237399508,0.000237142624]}}},"roughnessFactor":0.903602004},"extensions":{"KHR_materials_unlit":{}}},{"pbrMetallicRoughness":{"baseColorTexture":{"index":2,"extensions":{"KHR_texture_transform":{"offset":[0.0117650004,0.0118110003],"scale":[0.000238465451,0.000236794382]}}},"roughnessFactor":0.903602004},"extensions":{"KHR_materials_unlit":{}}},{"pbrMetallicRoughness":{"baseColorTexture":{"index":3,"extensions":{"KHR_texture_transform":{"offset":[0.00976600032,0.00978399999],"scale":[0.000238953609,0.000239426139]}}},"roughnessFactor":0.903602004},"extensions":{"KHR_materials_unlit":{}}},{"pbrMetallicRoughness":{"baseColorTexture":{"index":4,"extensions":{"KHR_texture_transform":{"offset":[0.00976799987,0.00984499976],"scale":[0.000238780456,0.000238925277]}}},"roughnessFactor":0.903602004},"extensions":{"KHR_materials_unlit":{}}},{"pbrMetallicRoughness":{"baseColorTexture":{"index":5,"extensions":{"KHR_texture_transform":{"offset":[0.00990200043,0.00991600007],"scale":[0.000238778754,0.000238845168]}}},"roughnessFactor":0.903602004},"extensions":{"KHR_materials_unlit":{}}},{"pbrMetallicRoughness":{"baseColorTexture":{"index":6,"extensions":{"KHR_texture_transform":{"offset":[0.00879099965,0.00883300044],"scale":[0.000239649336,0.00023963931]}}},"roughnessFactor":0.903602004},"extensions":{"KHR_materials_unlit":{}}},{"pbrMetallicRoughness":{"baseColorTexture":{"index":7,"extensions":{"KHR_texture_transform":{"offset":[0.00837299973,0.00831199996],"scale":[0.000240009278,0.000240143345]}}},"roughnessFactor":0.903602004},"extensions":{"KHR_materials_unlit":{}}},{"pbrMetallicRoughness":{"baseColorTexture":{"index":8,"extensions":{"KHR_texture_transform":{"offset":[0.00830500014,0.00834899954],"scale":[0.000240145047,0.000239997549]}}},"roughnessFactor":0.903602004},"extensions":{"KHR_materials_unlit":{}}},{"pbrMetallicRoughness":{"baseColorTexture":{"index":9,"extensions":{"KHR_texture_transform":{"offset":[0.00835699961,0.00834400021],"scale":[0.000239959714,0.000240008303]}}},"roughnessFactor":0.903602004},"extensions":{"KHR_materials_unlit":{}}},{"pbrMetallicRoughness":{"baseColorTexture":{"index":10,"extensions":{"KHR_texture_transform":{"offset":[0.0080629997,0.00807700027],"scale":[0.000240177294,0.000240191206]}}},"roughnessFactor":0.903602004},"extensions":{"KHR_materials_unlit":{}}},{"pbrMetallicRoughness":{"baseColorTexture":{"index":11,"extensions":{"KHR_texture_transform":{"offset":[0.00814499985,0.00806399994],"scale":[0.000240243724,0.000240182912]}}},"roughnessFactor":0.903602004},"extensions":{"KHR_materials_unlit":{}}},{"pbrMetallicRoughness":{"baseColorTexture":{"index":12,"extensions":{"KHR_texture_transform":{"offset":[0.00807099976,0.00807099976],"scale":[0.000240160196,0.000240138703]}}},"roughnessFactor":0.903602004},"extensions":{"KHR_materials_unlit":{}}},{"pbrMetallicRoughness":{"baseColorTexture":{"index":13,"extensions":{"KHR_texture_transform":{"offset":[0.00808999967,0.008103],"scale":[0.000240190726,0.000240159206]}}},"roughnessFactor":0.903602004},"extensions":{"KHR_materials_unlit":{}}},{"pbrMetallicRoughness":{"baseColorTexture":{"index":14,"extensions":{"KHR_texture_transform":{"offset":[0.00806100015,0.00806200039],"scale":[0.000240201465,0.000240188529]}}},"roughnessFactor":0.903602004},"extensions":{"KHR_materials_unlit":{}}},{"pbrMetallicRoughness":{"baseColorTexture":{"index":15,"extensions":{"KHR_texture_transform":{"offset":[0.00809899997,0.00807700027],"scale":[0.000240176058,0.000240181442]}}},"roughnessFactor":0.903602004},"extensions":{"KHR_materials_unlit":{}}},{"pbrMetallicRoughness":{"baseColorTexture":{"index":16,"extensions":{"KHR_texture_transform":{"offset":[0.00809200015,0.00808400009],"scale":[0.000240189751,0.000240189751]}}},"roughnessFactor":0.903602004},"extensions":{"KHR_materials_unlit":{}}},{"pbrMetallicRoughness":{"baseColorTexture":{"index":17,"extensions":{"KHR_texture_transform":{"offset":[0.008103,0.00811600033],"scale":[0.000240178517,0.000240131631]}}},"roughnessFactor":0.903602004},"extensions":{"KHR_materials_unlit":{}}},{"pbrMetallicRoughness":{"baseColorTexture":{"index":18,"extensions":{"KHR_texture_transform":{"offset":[0.00811799988,0.00813200045],"scale":[0.000240091336,0.000240135545]}}},"roughnessFactor":0.903602004},"extensions":{"KHR_materials_unlit":{}}},{"pbrMetallicRoughness":{"baseColorTexture":{"index":19,"extensions":{"KHR_texture_transform":{"offset":[0.00793800037,0.00794500019],"scale":[0.000240239315,0.000240279609]}}},"roughnessFactor":0.903602004},"extensions":{"KHR_materials_unlit":{}}},{"pbrMetallicRoughness":{"baseColorTexture":{"index":20,"extensions":{"KHR_texture_transform":{"offset":[0.00796199962,0.00793599989],"scale":[0.000240238835,0.000240274239]}}},"roughnessFactor":0.903602004},"extensions":{"KHR_materials_unlit":{}}},{"pbrMetallicRoughness":{"baseColorTexture":{"index":21,"extensions":{"KHR_texture_transform":{"offset":[0.00795399956,0.0079420004],"scale":[0.000240288398,0.000240257621]}}},"roughnessFactor":0.903602004},"extensions":{"KHR_materials_unlit":{}}}],"meshes":[{"primitives":[{"attributes":{"POSITION":0,"TEXCOORD_0":1},"indices":2,"material":0},{"attributes":{"POSITION":3,"TEXCOORD_0":4},"indices":5,"material":1},{"attributes":{"POSITION":6,"TEXCOORD_0":7},"indices":8,"material":2},{"attributes":{"POSITION":9,"TEXCOORD_0":10},"indices":11,"material":3},{"attributes":{"POSITION":12,"TEXCOORD_0":13},"indices":14,"material":4},{"attributes":{"POSITION":15,"TEXCOORD_0":16},"indices":17,"material":5},{"attributes":{"POSITION":18,"TEXCOORD_0":19},"indices":20,"material":6},{"attributes":{"POSITION":21,"TEXCOORD_0":22},"indices":23,"material":7},{"attributes":{"POSITION":24,"TEXCOORD_0":25},"indices":26,"material":8},{"attributes":{"POSITION":27,"TEXCOORD_0":28},"indices":29,"material":9},{"attributes":{"POSITION":30,"TEXCOORD_0":31},"indices":32,"material":10},{"attributes":{"POSITION":33,"TEXCOORD_0":34},"indices":35,"material":11},{"attributes":{"POSITION":36,"TEXCOORD_0":37},"indices":38,"material":12},{"attributes":{"POSITION":39,"TEXCOORD_0":40},"indices":41,"material":13},{"attributes":{"POSITION":42,"TEXCOORD_0":43},"indices":44,"material":14},{"attributes":{"POSITION":45,"TEXCOORD_0":46},"indices":47,"material":15},{"attributes":{"POSITION":48,"TEXCOORD_0":49},"indices":50,"material":16},{"attributes":{"POSITION":51,"TEXCOORD_0":52},"indices":53,"material":17},{"attributes":{"POSITION":54,"TEXCOORD_0":55},"indices":56,"material":18},{"attributes":{"POSITION":57,"TEXCOORD_0":58},"indices":59,"material":19},{"attributes":{"POSITION":60,"TEXCOORD_0":61},"indices":62,"material":20},{"attributes":{"POSITION":63,"TEXCOORD_0":64},"indices":65,"material":21}]}],"nodes":[{"mesh":0,"translation":[-2.33803225,-2.22436213,-1.29489279],"scale":[0.000286033319,0.000286033319,0.000286033319]}],"scenes":[{"nodes":[0]}],"scene":0}