{"buffers":[{"uri":"scene_00128_04-obb.compressed.bin","byteLength":1455732},{"byteLength":8371704,"extensions":{"EXT_meshopt_compression":{"fallback":true}}}],"asset":{"version":"2.0","generator":"gltfpack 0.17"},"extensionsUsed":["KHR_mesh_quantization","EXT_meshopt_compression"],"extensionsRequired":["KHR_mesh_quantization","EXT_meshopt_compression"],"bufferViews":[{"buffer":1,"byteOffset":0,"byteLength":1873896,"byteStride":8,"target":34962,"extensions":{"EXT_meshopt_compression":{"buffer":0,"byteOffset":0,"byteLength":752278,"byteStride":8,"mode":"ATTRIBUTES","count":234237}}},{"buffer":1,"byteOffset":1873896,"byteLength":936948,"byteStride":4,"target":34962,"extensions":{"EXT_meshopt_compression":{"buffer":0,"byteOffset":752280,"byteLength":173486,"byteStride":4,"mode":"ATTRIBUTES","count":234237}}},{"buffer":1,"byteOffset":2810844,"byteLength":5560860,"target":34963,"extensions":{"EXT_meshopt_compression":{"buffer":0,"byteOffset":925768,"byteLength":529961,"byteStride":4,"mode":"TRIANGLES","count":1390215}}}],"accessors":[{"bufferView":0,"byteOffset":0,"componentType":5123,"count":234237,"type":"VEC3","min":[0,0,0],"max":[16383,12625,7918]},{"bufferView":1,"byteOffset":0,"componentType":5121,"count":234237,"type":"VEC4","normalized":true},{"bufferView":2,"byteOffset":0,"componentType":5125,"count":1390215,"type":"SCALAR"}],"meshes":[{"primitives":[{"attributes":{"POSITION":0,"COLOR_0":1},"indices":2}]}],"nodes":[{"mesh":0,"translation":[-2.35017371,-2.22436213,-1.29723418],"scale":[0.000329529605,0.000329529605,0.000329529605]}],"scenes":[{"nodes":[0]}],"scene":0}