{"buffers":[{"uri":"scene_00128_04-instance.compressed.bin","byteLength":1431984},{"byteLength":8003592,"extensions":{"EXT_meshopt_compression":{"fallback":true}}}],"asset":{"version":"2.0","generator":"gltfpack 0.17"},"extensionsUsed":["KHR_mesh_quantization","EXT_meshopt_compression"],"extensionsRequired":["KHR_mesh_quantization","EXT_meshopt_compression"],"bufferViews":[{"buffer":1,"byteOffset":0,"byteLength":1789768,"byteStride":8,"target":34962,"extensions":{"EXT_meshopt_compression":{"buffer":0,"byteOffset":0,"byteLength":727176,"byteStride":8,"mode":"ATTRIBUTES","count":223721}}},{"buffer":1,"byteOffset":1789768,"byteLength":894884,"byteStride":4,"target":34962,"extensions":{"EXT_meshopt_compression":{"buffer":0,"byteOffset":727176,"byteLength":197325,"byteStride":4,"mode":"ATTRIBUTES","count":223721}}},{"buffer":1,"byteOffset":2684652,"byteLength":5318940,"target":34963,"extensions":{"EXT_meshopt_compression":{"buffer":0,"byteOffset":924504,"byteLength":507478,"byteStride":4,"mode":"TRIANGLES","count":1329735}}}],"accessors":[{"bufferView":0,"byteOffset":0,"componentType":5123,"count":223721,"type":"VEC3","min":[0,0,0],"max":[16383,14365,9071]},{"bufferView":1,"byteOffset":0,"componentType":5121,"count":223721,"type":"VEC4","normalized":true},{"bufferView":2,"byteOffset":0,"componentType":5125,"count":1329735,"type":"SCALAR"}],"meshes":[{"primitives":[{"attributes":{"POSITION":0,"COLOR_0":1},"indices":2}]}],"nodes":[{"mesh":0,"translation":[-2.33803225,-2.22436213,-1.29489279],"scale":[0.000286033319,0.000286033319,0.000286033319]}],"scenes":[{"nodes":[0]}],"scene":0}