{"buffers":[{"uri":"scene_00128_04-articulation.compressed.bin","byteLength":7087596},{"byteLength":35574372,"extensions":{"EXT_meshopt_compression":{"fallback":true}}}],"asset":{"version":"2.0","generator":"gltfpack 0.17"},"extensionsUsed":["KHR_mesh_quantization","EXT_meshopt_compression"],"extensionsRequired":["KHR_mesh_quantization","EXT_meshopt_compression"],"bufferViews":[{"buffer":1,"byteOffset":0,"byteLength":2605216,"byteStride":8,"target":34962,"extensions":{"EXT_meshopt_compression":{"buffer":0,"byteOffset":0,"byteLength":942650,"byteStride":8,"mode":"ATTRIBUTES","count":325652}}},{"buffer":1,"byteOffset":2605216,"byteLength":1302608,"byteStride":4,"target":34962,"extensions":{"EXT_meshopt_compression":{"buffer":0,"byteOffset":942652,"byteLength":76847,"byteStride":4,"mode":"ATTRIBUTES","count":325652}}},{"buffer":1,"byteOffset":3907824,"byteLength":31666548,"target":34963,"extensions":{"EXT_meshopt_compression":{"buffer":0,"byteOffset":1019500,"byteLength":6068094,"byteStride":4,"mode":"TRIANGLES","count":7916637}}}],"accessors":[{"bufferView":0,"byteOffset":0,"componentType":5123,"count":325652,"type":"VEC3","min":[0,0,0],"max":[16383,13320,9232]},{"bufferView":1,"byteOffset":0,"componentType":5121,"count":325652,"type":"VEC4","normalized":true},{"bufferView":2,"byteOffset":0,"componentType":5125,"count":7916637,"type":"SCALAR"}],"materials":[{"pbrMetallicRoughness":{},"doubleSided":true,"alphaMode":"BLEND"}],"meshes":[{"primitives":[{"attributes":{"POSITION":0,"COLOR_0":1},"indices":2,"material":0}]}],"nodes":[{"mesh":0,"translation":[-2.33803225,-2.22436213,-1.42189085],"scale":[0.000308477669,0.000308477669,0.000308477669]}],"scenes":[{"nodes":[0]}],"scene":0}