{"buffers":[{"uri":"scene_00120_00-instance.compressed.bin","byteLength":3572288},{"byteLength":21343248,"extensions":{"EXT_meshopt_compression":{"fallback":true}}}],"asset":{"version":"2.0","generator":"gltfpack 0.17"},"extensionsUsed":["KHR_mesh_quantization","EXT_meshopt_compression"],"extensionsRequired":["KHR_mesh_quantization","EXT_meshopt_compression"],"bufferViews":[{"buffer":1,"byteOffset":0,"byteLength":4798776,"byteStride":8,"target":34962,"extensions":{"EXT_meshopt_compression":{"buffer":0,"byteOffset":0,"byteLength":1918969,"byteStride":8,"mode":"ATTRIBUTES","count":599847}}},{"buffer":1,"byteOffset":4798776,"byteLength":2399388,"byteStride":4,"target":34962,"extensions":{"EXT_meshopt_compression":{"buffer":0,"byteOffset":1918972,"byteLength":304891,"byteStride":4,"mode":"ATTRIBUTES","count":599847}}},{"buffer":1,"byteOffset":7198164,"byteLength":14145084,"target":34963,"extensions":{"EXT_meshopt_compression":{"buffer":0,"byteOffset":2223864,"byteLength":1348422,"byteStride":4,"mode":"TRIANGLES","count":3536271}}}],"accessors":[{"bufferView":0,"byteOffset":0,"componentType":5123,"count":599847,"type":"VEC3","min":[0,0,0],"max":[16383,13796,5583]},{"bufferView":1,"byteOffset":0,"componentType":5121,"count":599847,"type":"VEC4","normalized":true},{"bufferView":2,"byteOffset":0,"componentType":5125,"count":3536271,"type":"SCALAR"}],"meshes":[{"primitives":[{"attributes":{"POSITION":0,"COLOR_0":1},"indices":2}]}],"nodes":[{"mesh":0,"translation":[-4.87764597,-4.10729504,-1.66214097],"scale":[0.000595452089,0.000595452089,0.000595452089]}],"scenes":[{"nodes":[0]}],"scene":0}