{"buffers":[{"uri":"scene_00120_00-articulation.compressed.bin","byteLength":3381812},{"byteLength":21817680,"extensions":{"EXT_meshopt_compression":{"fallback":true}}}],"asset":{"version":"2.0","generator":"gltfpack 0.17"},"extensionsUsed":["KHR_mesh_quantization","EXT_meshopt_compression"],"extensionsRequired":["KHR_mesh_quantization","EXT_meshopt_compression"],"bufferViews":[{"buffer":1,"byteOffset":0,"byteLength":4878280,"byteStride":8,"target":34962,"extensions":{"EXT_meshopt_compression":{"buffer":0,"byteOffset":0,"byteLength":1936607,"byteStride":8,"mode":"ATTRIBUTES","count":609785}}},{"buffer":1,"byteOffset":4878280,"byteLength":2439140,"byteStride":4,"target":34962,"extensions":{"EXT_meshopt_compression":{"buffer":0,"byteOffset":1936608,"byteLength":49566,"byteStride":4,"mode":"ATTRIBUTES","count":609785}}},{"buffer":1,"byteOffset":7317420,"byteLength":14500260,"target":34963,"extensions":{"EXT_meshopt_compression":{"buffer":0,"byteOffset":1986176,"byteLength":1395635,"byteStride":4,"mode":"TRIANGLES","count":3625065}}}],"accessors":[{"bufferView":0,"byteOffset":0,"componentType":5123,"count":609785,"type":"VEC3","min":[0,0,0],"max":[16383,13796,5583]},{"bufferView":1,"byteOffset":0,"componentType":5121,"count":609785,"type":"VEC4","normalized":true},{"bufferView":2,"byteOffset":0,"componentType":5125,"count":3625065,"type":"SCALAR"}],"materials":[{"pbrMetallicRoughness":{},"doubleSided":true,"alphaMode":"BLEND"}],"meshes":[{"primitives":[{"attributes":{"POSITION":0,"COLOR_0":1},"indices":2,"material":0}]}],"nodes":[{"mesh":0,"translation":[-4.87764597,-4.10729504,-1.66214097],"scale":[0.000595452089,0.000595452089,0.000595452089]}],"scenes":[{"nodes":[0]}],"scene":0}