{"buffers":[{"uri":"scene_00120_00-obb.compressed.bin","byteLength":3614804},{"byteLength":21902688,"extensions":{"EXT_meshopt_compression":{"fallback":true}}}],"asset":{"version":"2.0","generator":"gltfpack 0.17"},"extensionsUsed":["KHR_mesh_quantization","EXT_meshopt_compression"],"extensionsRequired":["KHR_mesh_quantization","EXT_meshopt_compression"],"bufferViews":[{"buffer":1,"byteOffset":0,"byteLength":4925976,"byteStride":8,"target":34962,"extensions":{"EXT_meshopt_compression":{"buffer":0,"byteOffset":0,"byteLength":1929607,"byteStride":8,"mode":"ATTRIBUTES","count":615747}}},{"buffer":1,"byteOffset":4925976,"byteLength":2462988,"byteStride":4,"target":34962,"extensions":{"EXT_meshopt_compression":{"buffer":0,"byteOffset":1929608,"byteLength":302556,"byteStride":4,"mode":"ATTRIBUTES","count":615747}}},{"buffer":1,"byteOffset":7388964,"byteLength":14513724,"target":34963,"extensions":{"EXT_meshopt_compression":{"buffer":0,"byteOffset":2232164,"byteLength":1382639,"byteStride":4,"mode":"TRIANGLES","count":3628431}}}],"accessors":[{"bufferView":0,"byteOffset":0,"componentType":5123,"count":615747,"type":"VEC3","min":[0,0,0],"max":[16383,13992,4808]},{"bufferView":1,"byteOffset":0,"componentType":5121,"count":615747,"type":"VEC4","normalized":true},{"bufferView":2,"byteOffset":0,"componentType":5125,"count":3628431,"type":"SCALAR"}],"meshes":[{"primitives":[{"attributes":{"POSITION":0,"COLOR_0":1},"indices":2}]}],"nodes":[{"mesh":0,"translation":[-5.92879105,-5.04038858,-1.67214096],"scale":[0.000695630733,0.000695630733,0.000695630733]}],"scenes":[{"nodes":[0]}],"scene":0}