{"buffers":[{"uri":"scene_00024_01-texture.compressed.bin","byteLength":16273068},{"byteLength":7598052,"extensions":{"EXT_meshopt_compression":{"fallback":true}}}],"asset":{"version":"2.0","generator":"gltfpack 0.17"},"extensionsUsed":["KHR_mesh_quantization","EXT_meshopt_compression","KHR_texture_transform","KHR_materials_unlit","KHR_texture_basisu"],"extensionsRequired":["KHR_mesh_quantization","EXT_meshopt_compression","KHR_texture_basisu"],"bufferViews":[{"buffer":0,"byteOffset":0,"byteLength":3137},{"buffer":0,"byteOffset":3140,"byteLength":22310},{"buffer":0,"byteOffset":25452,"byteLength":22233},{"buffer":0,"byteOffset":47688,"byteLength":22085},{"buffer":0,"byteOffset":69776,"byteLength":21917},{"buffer":0,"byteOffset":91696,"byteLength":21717},{"buffer":0,"byteOffset":113416,"byteLength":73127},{"buffer":0,"byteOffset":186544,"byteLength":70528},{"buffer":0,"byteOffset":257072,"byteLength":67584},{"buffer":0,"byteOffset":324656,"byteLength":68188},{"buffer":0,"byteOffset":392844,"byteLength":195866},{"buffer":0,"byteOffset":588712,"byteLength":190182},{"buffer":0,"byteOffset":778896,"byteLength":593001},{"buffer":0,"byteOffset":1371900,"byteLength":598373},{"buffer":0,"byteOffset":1970276,"byteLength":548930},{"buffer":0,"byteOffset":2519208,"byteLength":556047},{"buffer":0,"byteOffset":3075256,"byteLength":538182},{"buffer":0,"byteOffset":3613440,"byteLength":539799},{"buffer":0,"byteOffset":4153240,"byteLength":519580},{"buffer":0,"byteOffset":4672820,"byteLength":526455},{"buffer":0,"byteOffset":5199276,"byteLength":444068},{"buffer":0,"byteOffset":5643344,"byteLength":1770596},{"buffer":0,"byteOffset":7413940,"byteLength":1779592},{"buffer":0,"byteOffset":9193532,"byteLength":1649684},{"buffer":0,"byteOffset":10843216,"byteLength":1642957},{"buffer":0,"byteOffset":12486176,"byteLength":1449160},{"buffer":1,"byteOffset":0,"byteLength":2693752,"byteStride":8,"target":34962,"extensions":{"EXT_meshopt_compression":{"buffer":0,"byteOffset":13935336,"byteLength":1119939,"byteStride":8,"mode":"ATTRIBUTES","count":336719}}},{"buffer":1,"byteOffset":2693752,"byteLength":1346876,"byteStride":4,"target":34962,"extensions":{"EXT_meshopt_compression":{"buffer":0,"byteOffset":15055276,"byteLength":619560,"byteStride":4,"mode":"ATTRIBUTES","count":336719}}},{"buffer":1,"byteOffset":4040628,"byteLength":2386140,"target":34963,"extensions":{"EXT_meshopt_compression":{"buffer":0,"byteOffset":15674836,"byteLength":445337,"byteStride":2,"mode":"TRIANGLES","count":1193070}}},{"buffer":1,"byteOffset":6426768,"byteLength":1171284,"target":34963,"extensions":{"EXT_meshopt_compression":{"buffer":0,"byteOffset":16120176,"byteLength":152892,"byteStride":4,"mode":"TRIANGLES","count":292821}}}],"accessors":[{"bufferView":26,"byteOffset":0,"componentType":5123,"count":175,"type":"VEC3","min":[546,2871,32],"max":[13448,16056,6852]},{"bufferView":27,"byteOffset":0,"componentType":5123,"count":175,"type":"VEC2"},{"bufferView":28,"byteOffset":0,"componentType":5123,"count":177,"type":"SCALAR"},{"bufferView":26,"byteOffset":1400,"componentType":5123,"count":997,"type":"VEC3","min":[466,83,32],"max":[13554,15126,6961]},{"bufferView":27,"byteOffset":700,"componentType":5123,"count":997,"type":"VEC2"},{"bufferView":28,"byteOffset":354,"componentType":5123,"count":1173,"type":"SCALAR"},{"bufferView":26,"byteOffset":9376,"componentType":5123,"count":779,"type":"VEC3","min":[471,99,60],"max":[13388,16079,6933]},{"bufferView":27,"byteOffset":4688,"componentType":5123,"count":779,"type":"VEC2"},{"bufferView":28,"byteOffset":2700,"componentType":5123,"count":1086,"type":"SCALAR"},{"bufferView":26,"byteOffset":15608,"componentType":5123,"count":590,"type":"VEC3","min":[795,2307,91],"max":[13423,14802,6919]},{"bufferView":27,"byteOffset":7804,"componentType":5123,"count":590,"type":"VEC2"},{"bufferView":28,"byteOffset":4872,"componentType":5123,"count":774,"type":"SCALAR"},{"bufferView":26,"byteOffset":20328,"componentType":5123,"count":569,"type":"VEC3","min":[1617,67,61],"max":[12819,14150,6907]},{"bufferView":27,"byteOffset":10164,"componentType":5123,"count":569,"type":"VEC2"},{"bufferView":28,"byteOffset":6420,"componentType":5123,"count":849,"type":"SCALAR"},{"bufferView":26,"byteOffset":24880,"componentType":5123,"count":512,"type":"VEC3","min":[1416,1698,41],"max":[13044,15748,6173]},{"bufferView":27,"byteOffset":12440,"componentType":5123,"count":512,"type":"VEC2"},{"bufferView":28,"byteOffset":8118,"componentType":5123,"count":801,"type":"SCALAR"},{"bufferView":26,"byteOffset":28976,"componentType":5123,"count":1343,"type":"VEC3","min":[2112,93,92],"max":[13678,15741,6836]},{"bufferView":27,"byteOffset":14488,"componentType":5123,"count":1343,"type":"VEC2"},{"bufferView":28,"byteOffset":9720,"componentType":5123,"count":2478,"type":"SCALAR"},{"bufferView":26,"byteOffset":39720,"componentType":5123,"count":1274,"type":"VEC3","min":[1014,596,56],"max":[12970,16046,6886]},{"bufferView":27,"byteOffset":19860,"componentType":5123,"count":1274,"type":"VEC2"},{"bufferView":28,"byteOffset":14676,"componentType":5123,"count":2625,"type":"SCALAR"},{"bufferView":26,"byteOffset":49912,"componentType":5123,"count":1468,"type":"VEC3","min":[2522,3277,38],"max":[13252,16383,6871]},{"bufferView":27,"byteOffset":24956,"componentType":5123,"count":1468,"type":"VEC2"},{"bufferView":28,"byteOffset":19926,"componentType":5123,"count":4107,"type":"SCALAR"},{"bufferView":26,"byteOffset":61656,"componentType":5123,"count":1597,"type":"VEC3","min":[959,41,28],"max":[13690,15749,6926]},{"bufferView":27,"byteOffset":30828,"componentType":5123,"count":1597,"type":"VEC2"},{"bufferView":28,"byteOffset":28140,"componentType":5123,"count":4848,"type":"SCALAR"},{"bufferView":26,"byteOffset":74432,"componentType":5123,"count":4746,"type":"VEC3","min":[89,22,25],"max":[13481,16174,6955]},{"bufferView":27,"byteOffset":37216,"componentType":5123,"count":4746,"type":"VEC2"},{"bufferView":28,"byteOffset":37836,"componentType":5123,"count":15744,"type":"SCALAR"},{"bufferView":26,"byteOffset":112400,"componentType":5123,"count":5189,"type":"VEC3","min":[521,37,45],"max":[13229,16188,6885]},{"bufferView":27,"byteOffset":56200,"componentType":5123,"count":5189,"type":"VEC2"},{"bufferView":28,"byteOffset":69324,"componentType":5123,"count":20187,"type":"SCALAR"},{"bufferView":26,"byteOffset":153912,"componentType":5123,"count":12422,"type":"VEC3","min":[386,958,35],"max":[13421,16024,6970]},{"bufferView":27,"byteOffset":76956,"componentType":5123,"count":12422,"type":"VEC2"},{"bufferView":28,"byteOffset":109698,"componentType":5123,"count":53736,"type":"SCALAR"},{"bufferView":26,"byteOffset":253288,"componentType":5123,"count":11197,"type":"VEC3","min":[617,414,35],"max":[13510,16174,6961]},{"bufferView":27,"byteOffset":126644,"componentType":5123,"count":11197,"type":"VEC2"},{"bufferView":28,"byteOffset":217170,"componentType":5123,"count":49887,"type":"SCALAR"},{"bufferView":26,"byteOffset":342864,"componentType":5123,"count":9795,"type":"VEC3","min":[1080,142,72],"max":[13706,15536,6940]},{"bufferView":27,"byteOffset":171432,"componentType":5123,"count":9795,"type":"VEC2"},{"bufferView":28,"byteOffset":316944,"componentType":5123,"count":44097,"type":"SCALAR"},{"bufferView":26,"byteOffset":421224,"componentType":5123,"count":11241,"type":"VEC3","min":[0,879,21],"max":[12801,14856,6965]},{"bufferView":27,"byteOffset":210612,"componentType":5123,"count":11241,"type":"VEC2"},{"bufferView":28,"byteOffset":405138,"componentType":5123,"count":53247,"type":"SCALAR"},{"bufferView":26,"byteOffset":511152,"componentType":5123,"count":11244,"type":"VEC3","min":[508,1200,0],"max":[13543,16286,6912]},{"bufferView":27,"byteOffset":255576,"componentType":5123,"count":11244,"type":"VEC2"},{"bufferView":28,"byteOffset":511632,"componentType":5123,"count":53361,"type":"SCALAR"},{"bufferView":26,"byteOffset":601104,"componentType":5123,"count":10667,"type":"VEC3","min":[1892,3177,41],"max":[13443,14919,6851]},{"bufferView":27,"byteOffset":300552,"componentType":5123,"count":10667,"type":"VEC2"},{"bufferView":28,"byteOffset":618354,"componentType":5123,"count":51636,"type":"SCALAR"},{"bufferView":26,"byteOffset":686440,"componentType":5123,"count":10057,"type":"VEC3","min":[599,1014,13],"max":[13266,13467,6874]},{"bufferView":27,"byteOffset":343220,"componentType":5123,"count":10057,"type":"VEC2"},{"bufferView":28,"byteOffset":721626,"componentType":5123,"count":49575,"type":"SCALAR"},{"bufferView":26,"byteOffset":766896,"componentType":5123,"count":8359,"type":"VEC3","min":[2885,138,77],"max":[13256,14524,6897]},{"bufferView":27,"byteOffset":383448,"componentType":5123,"count":8359,"type":"VEC2"},{"bufferView":28,"byteOffset":820776,"componentType":5123,"count":40407,"type":"SCALAR"},{"bufferView":26,"byteOffset":833768,"componentType":5123,"count":7769,"type":"VEC3","min":[2194,2464,75],"max":[12737,15716,6416]},{"bufferView":27,"byteOffset":416884,"componentType":5123,"count":7769,"type":"VEC2"},{"bufferView":28,"byteOffset":901590,"componentType":5123,"count":37365,"type":"SCALAR"},{"bufferView":26,"byteOffset":895920,"componentType":5123,"count":32127,"type":"VEC3","min":[1446,1996,28],"max":[13289,15803,6888]},{"bufferView":27,"byteOffset":447960,"componentType":5123,"count":32127,"type":"VEC2"},{"bufferView":28,"byteOffset":976320,"componentType":5123,"count":163950,"type":"SCALAR"},{"bufferView":26,"byteOffset":1152936,"componentType":5123,"count":29627,"type":"VEC3","min":[621,3312,29],"max":[13316,15275,6892]},{"bufferView":27,"byteOffset":576468,"componentType":5123,"count":29627,"type":"VEC2"},{"bufferView":28,"byteOffset":1304220,"componentType":5123,"count":151914,"type":"SCALAR"},{"bufferView":26,"byteOffset":1389952,"componentType":5123,"count":90751,"type":"VEC3","min":[106,0,14],"max":[13565,16368,6964]},{"bufferView":27,"byteOffset":694976,"componentType":5123,"count":90751,"type":"VEC2"},{"bufferView":29,"byteOffset":0,"componentType":5125,"count":292821,"type":"SCALAR"},{"bufferView":26,"byteOffset":2115960,"componentType":5123,"count":35817,"type":"VEC3","min":[1515,3308,77],"max":[13308,13450,6873]},{"bufferView":27,"byteOffset":1057980,"componentType":5123,"count":35817,"type":"VEC2"},{"bufferView":28,"byteOffset":1608048,"componentType":5123,"count":192429,"type":"SCALAR"},{"bufferView":26,"byteOffset":2402496,"componentType":5123,"count":36407,"type":"VEC3","min":[2415,3414,74],"max":[13277,14711,6873]},{"bufferView":27,"byteOffset":1201248,"componentType":5123,"count":36407,"type":"VEC2"},{"bufferView":28,"byteOffset":1992906,"componentType":5123,"count":196617,"type":"SCALAR"}],"images":[{"bufferView":0,"mimeType":"image/ktx2"},{"bufferView":1,"mimeType":"image/ktx2"},{"bufferView":2,"mimeType":"image/ktx2"},{"bufferView":3,"mimeType":"image/ktx2"},{"bufferView":4,"mimeType":"image/ktx2"},{"bufferView":5,"mimeType":"image/ktx2"},{"bufferView":6,"mimeType":"image/ktx2"},{"bufferView":7,"mimeType":"image/ktx2"},{"bufferView":8,"mimeType":"image/ktx2"},{"bufferView":9,"mimeType":"image/ktx2"},{"bufferView":10,"mimeType":"image/ktx2"},{"bufferView":11,"mimeType":"image/ktx2"},{"bufferView":12,"mimeType":"image/ktx2"},{"bufferView":13,"mimeType":"image/ktx2"},{"bufferView":14,"mimeType":"image/ktx2"},{"bufferView":15,"mimeType":"image/ktx2"},{"bufferView":16,"mimeType":"image/ktx2"},{"bufferView":17,"mimeType":"image/ktx2"},{"bufferView":18,"mimeType":"image/ktx2"},{"bufferView":19,"mimeType":"image/ktx2"},{"bufferView":20,"mimeType":"image/ktx2"},{"bufferView":21,"mimeType":"image/ktx2"},{"bufferView":22,"mimeType":"image/ktx2"},{"bufferView":23,"mimeType":"image/ktx2"},{"bufferView":24,"mimeType":"image/ktx2"},{"bufferView":25,"mimeType":"image/ktx2"}],"textures":[{"extensions":{"KHR_texture_basisu":{"source":0}}},{"extensions":{"KHR_texture_basisu":{"source":1}}},{"extensions":{"KHR_texture_basisu":{"source":2}}},{"extensions":{"KHR_texture_basisu":{"source":3}}},{"extensions":{"KHR_texture_basisu":{"source":4}}},{"extensions":{"KHR_texture_basisu":{"source":5}}},{"extensions":{"KHR_texture_basisu":{"source":6}}},{"extensions":{"KHR_texture_basisu":{"source":7}}},{"extensions":{"KHR_texture_basisu":{"source":8}}},{"extensions":{"KHR_texture_basisu":{"source":9}}},{"extensions":{"KHR_texture_basisu":{"source":10}}},{"extensions":{"KHR_texture_basisu":{"source":11}}},{"extensions":{"KHR_texture_basisu":{"source":12}}},{"extensions":{"KHR_texture_basisu":{"source":13}}},{"extensions":{"KHR_texture_basisu":{"source":14}}},{"extensions":{"KHR_texture_basisu":{"source":15}}},{"extensions":{"KHR_texture_basisu":{"source":16}}},{"extensions":{"KHR_texture_basisu":{"source":17}}},{"extensions":{"KHR_texture_basisu":{"source":18}}},{"extensions":{"KHR_texture_basisu":{"source":19}}},{"extensions":{"KHR_texture_basisu":{"source":20}}},{"extensions":{"KHR_texture_basisu":{"source":21}}},{"extensions":{"KHR_texture_basisu":{"source":22}}},{"extensions":{"KHR_texture_basisu":{"source":23}}},{"extensions":{"KHR_texture_basisu":{"source":24}}},{"extensions":{"KHR_texture_basisu":{"source":25}}}],"materials":[{"pbrMetallicRoughness":{"baseColorTexture":{"index":0,"extensions":{"KHR_texture_transform":{"offset":[0.0150939999,0.0117199998],"scale":[0.000233836879,8.01269853e-05]}}},"roughnessFactor":0.903602004},"extensions":{"KHR_materials_unlit":{}}},{"pbrMetallicRoughness":{"baseColorTexture":{"index":1,"extensions":{"KHR_texture_transform":{"offset":[0.00976600032,0.00986200012],"scale":[0.000238925524,0.000238407811]}}},"roughnessFactor":0.903602004},"extensions":{"KHR_materials_unlit":{}}},{"pbrMetallicRoughness":{"baseColorTexture":{"index":2,"extensions":{"KHR_texture_transform":{"offset":[0.00984799955,0.00977400038],"scale":[0.00023941051,0.000239428569]}}},"roughnessFactor":0.903602004},"extensions":{"KHR_materials_unlit":{}}},{"pbrMetallicRoughness":{"baseColorTexture":{"index":3,"extensions":{"KHR_texture_transform":{"offset":[0.00985999964,0.00986499991],"scale":[0.000238930661,0.000238917462]}}},"roughnessFactor":0.903602004},"extensions":{"KHR_materials_unlit":{}}},{"pbrMetallicRoughness":{"baseColorTexture":{"index":4,"extensions":{"KHR_texture_transform":{"offset":[0.00978200044,0.00976699963],"scale":[0.000238939683,0.000239430286]}}},"roughnessFactor":0.903602004},"extensions":{"KHR_materials_unlit":{}}},{"pbrMetallicRoughness":{"baseColorTexture":{"index":5,"extensions":{"KHR_texture_transform":{"offset":[0.00984400045,0.00976600032],"scale":[0.00023880048,0.000238932858]}}},"roughnessFactor":0.903602004},"extensions":{"KHR_materials_unlit":{}}},{"pbrMetallicRoughness":{"baseColorTexture":{"index":6,"extensions":{"KHR_texture_transform":{"offset":[0.00881799962,0.0087890001],"scale":[0.00023966204,0.000239612215]}}},"roughnessFactor":0.903602004},"extensions":{"KHR_materials_unlit":{}}},{"pbrMetallicRoughness":{"baseColorTexture":{"index":7,"extensions":{"KHR_texture_transform":{"offset":[0.0088109998,0.00882900041],"scale":[0.000239902321,0.000239640794]}}},"roughnessFactor":0.903602004},"extensions":{"KHR_materials_unlit":{}}},{"pbrMetallicRoughness":{"baseColorTexture":{"index":8,"extensions":{"KHR_texture_transform":{"offset":[0.00887500029,0.00884800032],"scale":[0.000239886693,0.000239780216]}}},"roughnessFactor":0.903602004},"extensions":{"KHR_materials_unlit":{}}},{"pbrMetallicRoughness":{"baseColorTexture":{"index":9,"extensions":{"KHR_texture_transform":{"offset":[0.0087890001,0.00907700043],"scale":[0.000239615387,0.000239554822]}}},"roughnessFactor":0.903602004},"extensions":{"KHR_materials_unlit":{}}},{"pbrMetallicRoughness":{"baseColorTexture":{"index":10,"extensions":{"KHR_texture_transform":{"offset":[0.00830799993,0.00830200035],"scale":[0.00024001392,0.000240004651]}}},"roughnessFactor":0.903602004},"extensions":{"KHR_materials_unlit":{}}},{"pbrMetallicRoughness":{"baseColorTexture":{"index":11,"extensions":{"KHR_texture_transform":{"offset":[0.00835699961,0.00830200035],"scale":[0.000240013193,0.000239928209]}}},"roughnessFactor":0.903602004},"extensions":{"KHR_materials_unlit":{}}},{"pbrMetallicRoughness":{"baseColorTexture":{"index":12,"extensions":{"KHR_texture_transform":{"offset":[0.00807499979,0.00807000045],"scale":[0.000240188776,0.000240177047]}}},"roughnessFactor":0.903602004},"extensions":{"KHR_materials_unlit":{}}},{"pbrMetallicRoughness":{"baseColorTexture":{"index":13,"extensions":{"KHR_texture_transform":{"offset":[0.00812000036,0.00806399994],"scale":[0.000240155801,0.000240200257]}}},"roughnessFactor":0.903602004},"extensions":{"KHR_materials_unlit":{}}},{"pbrMetallicRoughness":{"baseColorTexture":{"index":14,"extensions":{"KHR_texture_transform":{"offset":[0.00805800036,0.00816500001],"scale":[0.000240187786,0.000240172885]}}},"roughnessFactor":0.903602004},"extensions":{"KHR_materials_unlit":{}}},{"pbrMetallicRoughness":{"baseColorTexture":{"index":15,"extensions":{"KHR_texture_transform":{"offset":[0.00807300024,0.00808599964],"scale":[0.000240200985,0.000240195601]}}},"roughnessFactor":0.903602004},"extensions":{"KHR_materials_unlit":{}}},{"pbrMetallicRoughness":{"baseColorTexture":{"index":16,"extensions":{"KHR_texture_transform":{"offset":[0.00810599979,0.00806799997],"scale":[0.000240188034,0.000240192909]}}},"roughnessFactor":0.903602004},"extensions":{"KHR_materials_unlit":{}}},{"pbrMetallicRoughness":{"baseColorTexture":{"index":17,"extensions":{"KHR_texture_transform":{"offset":[0.00808599964,0.00807300024],"scale":[0.000240191206,0.000240134323]}}},"roughnessFactor":0.903602004},"extensions":{"KHR_materials_unlit":{}}},{"pbrMetallicRoughness":{"baseColorTexture":{"index":18,"extensions":{"KHR_texture_transform":{"offset":[0.00807099976,0.00809600018],"scale":[0.000240172405,0.000240184876]}}},"roughnessFactor":0.903602004},"extensions":{"KHR_materials_unlit":{}}},{"pbrMetallicRoughness":{"baseColorTexture":{"index":19,"extensions":{"KHR_texture_transform":{"offset":[0.00808599964,0.0080939997],"scale":[0.000240149442,0.000240192428]}}},"roughnessFactor":0.903602004},"extensions":{"KHR_materials_unlit":{}}},{"pbrMetallicRoughness":{"baseColorTexture":{"index":20,"extensions":{"KHR_texture_transform":{"offset":[0.00806399994,0.00805800036],"scale":[0.000240197813,0.000240156529]}}},"roughnessFactor":0.903602004},"extensions":{"KHR_materials_unlit":{}}},{"pbrMetallicRoughness":{"baseColorTexture":{"index":21,"extensions":{"KHR_texture_transform":{"offset":[0.00795899983,0.00795899983],"scale":[0.000240286201,0.00024027472]}}},"roughnessFactor":0.903602004},"extensions":{"KHR_materials_unlit":{}}},{"pbrMetallicRoughness":{"baseColorTexture":{"index":22,"extensions":{"KHR_texture_transform":{"offset":[0.00801100023,0.0079420004],"scale":[0.000240264722,0.000240292778]}}},"roughnessFactor":0.903602004},"extensions":{"KHR_materials_unlit":{}}},{"pbrMetallicRoughness":{"baseColorTexture":{"index":23,"extensions":{"KHR_texture_transform":{"offset":[0.00793499965,0.00796999969],"scale":[0.000240260561,0.000240235167]}}},"roughnessFactor":0.903602004},"extensions":{"KHR_materials_unlit":{}}},{"pbrMetallicRoughness":{"baseColorTexture":{"index":24,"extensions":{"KHR_texture_transform":{"offset":[0.00798599981,0.00796299987],"scale":[0.000240275695,0.00024017533]}}},"roughnessFactor":0.903602004},"extensions":{"KHR_materials_unlit":{}}},{"pbrMetallicRoughness":{"baseColorTexture":{"index":25,"extensions":{"KHR_texture_transform":{"offset":[0.00794799998,0.00793599989],"scale":[0.000240285226,0.000240294743]}}},"roughnessFactor":0.903602004},"extensions":{"KHR_materials_unlit":{}}}],"meshes":[{"primitives":[{"attributes":{"POSITION":0,"TEXCOORD_0":1},"indices":2,"material":0},{"attributes":{"POSITION":3,"TEXCOORD_0":4},"indices":5,"material":1},{"attributes":{"POSITION":6,"TEXCOORD_0":7},"indices":8,"material":2},{"attributes":{"POSITION":9,"TEXCOORD_0":10},"indices":11,"material":3},{"attributes":{"POSITION":12,"TEXCOORD_0":13},"indices":14,"material":4},{"attributes":{"POSITION":15,"TEXCOORD_0":16},"indices":17,"material":5},{"attributes":{"POSITION":18,"TEXCOORD_0":19},"indices":20,"material":6},{"attributes":{"POSITION":21,"TEXCOORD_0":22},"indices":23,"material":7},{"attributes":{"POSITION":24,"TEXCOORD_0":25},"indices":26,"material":8},{"attributes":{"POSITION":27,"TEXCOORD_0":28},"indices":29,"material":9},{"attributes":{"POSITION":30,"TEXCOORD_0":31},"indices":32,"material":10},{"attributes":{"POSITION":33,"TEXCOORD_0":34},"indices":35,"material":11},{"attributes":{"POSITION":36,"TEXCOORD_0":37},"indices":38,"material":12},{"attributes":{"POSITION":39,"TEXCOORD_0":40},"indices":41,"material":13},{"attributes":{"POSITION":42,"TEXCOORD_0":43},"indices":44,"material":14},{"attributes":{"POSITION":45,"TEXCOORD_0":46},"indices":47,"material":15},{"attributes":{"POSITION":48,"TEXCOORD_0":49},"indices":50,"material":16},{"attributes":{"POSITION":51,"TEXCOORD_0":52},"indices":53,"material":17},{"attributes":{"POSITION":54,"TEXCOORD_0":55},"indices":56,"material":18},{"attributes":{"POSITION":57,"TEXCOORD_0":58},"indices":59,"material":19},{"attributes":{"POSITION":60,"TEXCOORD_0":61},"indices":62,"material":20},{"attributes":{"POSITION":63,"TEXCOORD_0":64},"indices":65,"material":21},{"attributes":{"POSITION":66,"TEXCOORD_0":67},"indices":68,"material":22},{"attributes":{"POSITION":69,"TEXCOORD_0":70},"indices":71,"material":23},{"attributes":{"POSITION":72,"TEXCOORD_0":73},"indices":74,"material":24},{"attributes":{"POSITION":75,"TEXCOORD_0":76},"indices":77,"material":25}]}],"nodes":[{"mesh":0,"translation":[-2.7474525,-3.36898971,-1.45467436],"scale":[0.000409134256,0.000409134256,0.000409134256]}],"scenes":[{"nodes":[0]}],"scene":0}