{"buffers":[{"uri":"scene_00024_01-instance.compressed.bin","byteLength":1525860},{"byteLength":8967816,"extensions":{"EXT_meshopt_compression":{"fallback":true}}}],"asset":{"version":"2.0","generator":"gltfpack 0.17"},"extensionsUsed":["KHR_mesh_quantization","EXT_meshopt_compression"],"extensionsRequired":["KHR_mesh_quantization","EXT_meshopt_compression"],"bufferViews":[{"buffer":1,"byteOffset":0,"byteLength":2016168,"byteStride":8,"target":34962,"extensions":{"EXT_meshopt_compression":{"buffer":0,"byteOffset":0,"byteLength":814718,"byteStride":8,"mode":"ATTRIBUTES","count":252021}}},{"buffer":1,"byteOffset":2016168,"byteLength":1008084,"byteStride":4,"target":34962,"extensions":{"EXT_meshopt_compression":{"buffer":0,"byteOffset":814720,"byteLength":137998,"byteStride":4,"mode":"ATTRIBUTES","count":252021}}},{"buffer":1,"byteOffset":3024252,"byteLength":5943564,"target":34963,"extensions":{"EXT_meshopt_compression":{"buffer":0,"byteOffset":952720,"byteLength":573137,"byteStride":4,"mode":"TRIANGLES","count":1485891}}}],"accessors":[{"bufferView":0,"byteOffset":0,"componentType":5123,"count":252021,"type":"VEC3","min":[0,0,0],"max":[13706,16383,6970]},{"bufferView":1,"byteOffset":0,"componentType":5121,"count":252021,"type":"VEC4","normalized":true},{"bufferView":2,"byteOffset":0,"componentType":5125,"count":1485891,"type":"SCALAR"}],"meshes":[{"primitives":[{"attributes":{"POSITION":0,"COLOR_0":1},"indices":2}]}],"nodes":[{"mesh":0,"translation":[-2.7474525,-3.36898971,-1.45467436],"scale":[0.000409134256,0.000409134256,0.000409134256]}],"scenes":[{"nodes":[0]}],"scene":0}