{"buffers":[{"uri":"scene_00024_01-obb.compressed.bin","byteLength":1523272},{"byteLength":9151272,"extensions":{"EXT_meshopt_compression":{"fallback":true}}}],"asset":{"version":"2.0","generator":"gltfpack 0.17"},"extensionsUsed":["KHR_mesh_quantization","EXT_meshopt_compression"],"extensionsRequired":["KHR_mesh_quantization","EXT_meshopt_compression"],"bufferViews":[{"buffer":1,"byteOffset":0,"byteLength":2057832,"byteStride":8,"target":34962,"extensions":{"EXT_meshopt_compression":{"buffer":0,"byteOffset":0,"byteLength":821483,"byteStride":8,"mode":"ATTRIBUTES","count":257229}}},{"buffer":1,"byteOffset":2057832,"byteLength":1028916,"byteStride":4,"target":34962,"extensions":{"EXT_meshopt_compression":{"buffer":0,"byteOffset":821484,"byteLength":117460,"byteStride":4,"mode":"ATTRIBUTES","count":257229}}},{"buffer":1,"byteOffset":3086748,"byteLength":6064524,"target":34963,"extensions":{"EXT_meshopt_compression":{"buffer":0,"byteOffset":938944,"byteLength":584327,"byteStride":4,"mode":"TRIANGLES","count":1516131}}}],"accessors":[{"bufferView":0,"byteOffset":0,"componentType":5123,"count":257229,"type":"VEC3","min":[0,0,0],"max":[16383,15913,6278]},{"bufferView":1,"byteOffset":0,"componentType":5121,"count":257229,"type":"VEC4","normalized":true},{"bufferView":2,"byteOffset":0,"componentType":5125,"count":1516131,"type":"SCALAR"}],"meshes":[{"primitives":[{"attributes":{"POSITION":0,"COLOR_0":1},"indices":2}]}],"nodes":[{"mesh":0,"translation":[-3.51687813,-3.47732496,-1.4706924],"scale":[0.000457025599,0.000457025599,0.000457025599]}],"scenes":[{"nodes":[0]}],"scene":0}