{"buffers":[{"uri":"scene_00024_01-articulation.compressed.bin","byteLength":3423176},{"byteLength":20288328,"extensions":{"EXT_meshopt_compression":{"fallback":true}}}],"asset":{"version":"2.0","generator":"gltfpack 0.17"},"extensionsUsed":["KHR_mesh_quantization","EXT_meshopt_compression"],"extensionsRequired":["KHR_mesh_quantization","EXT_meshopt_compression"],"bufferViews":[{"buffer":1,"byteOffset":0,"byteLength":2566744,"byteStride":8,"target":34962,"extensions":{"EXT_meshopt_compression":{"buffer":0,"byteOffset":0,"byteLength":948493,"byteStride":8,"mode":"ATTRIBUTES","count":320843}}},{"buffer":1,"byteOffset":2566744,"byteLength":1283372,"byteStride":4,"target":34962,"extensions":{"EXT_meshopt_compression":{"buffer":0,"byteOffset":948496,"byteLength":62782,"byteStride":4,"mode":"ATTRIBUTES","count":320843}}},{"buffer":1,"byteOffset":3850116,"byteLength":16438212,"target":34963,"extensions":{"EXT_meshopt_compression":{"buffer":0,"byteOffset":1011280,"byteLength":2411894,"byteStride":4,"mode":"TRIANGLES","count":4109553}}}],"accessors":[{"bufferView":0,"byteOffset":0,"componentType":5123,"count":320843,"type":"VEC3","min":[0,0,0],"max":[13706,16383,7482]},{"bufferView":1,"byteOffset":0,"componentType":5121,"count":320843,"type":"VEC4","normalized":true},{"bufferView":2,"byteOffset":0,"componentType":5125,"count":4109553,"type":"SCALAR"}],"materials":[{"pbrMetallicRoughness":{},"doubleSided":true,"alphaMode":"BLEND"}],"meshes":[{"primitives":[{"attributes":{"POSITION":0,"COLOR_0":1},"indices":2,"material":0}]}],"nodes":[{"mesh":0,"translation":[-2.7474525,-3.36898971,-1.66412306],"scale":[0.000409134256,0.000409134256,0.000409134256]}],"scenes":[{"nodes":[0]}],"scene":0}