{"buffers":[{"uri":"scene_00025_01-instance.compressed.bin","byteLength":1848636},{"byteLength":11449272,"extensions":{"EXT_meshopt_compression":{"fallback":true}}}],"asset":{"version":"2.0","generator":"gltfpack 0.17"},"extensionsUsed":["KHR_mesh_quantization","EXT_meshopt_compression"],"extensionsRequired":["KHR_mesh_quantization","EXT_meshopt_compression"],"bufferViews":[{"buffer":1,"byteOffset":0,"byteLength":2579528,"byteStride":8,"target":34962,"extensions":{"EXT_meshopt_compression":{"buffer":0,"byteOffset":0,"byteLength":941349,"byteStride":8,"mode":"ATTRIBUTES","count":322441}}},{"buffer":1,"byteOffset":2579528,"byteLength":1289764,"byteStride":4,"target":34962,"extensions":{"EXT_meshopt_compression":{"buffer":0,"byteOffset":941352,"byteLength":193234,"byteStride":4,"mode":"ATTRIBUTES","count":322441}}},{"buffer":1,"byteOffset":3869292,"byteLength":7579980,"target":34963,"extensions":{"EXT_meshopt_compression":{"buffer":0,"byteOffset":1134588,"byteLength":714047,"byteStride":4,"mode":"TRIANGLES","count":1894995}}}],"accessors":[{"bufferView":0,"byteOffset":0,"componentType":5123,"count":322441,"type":"VEC3","min":[0,0,0],"max":[16383,10245,5528]},{"bufferView":1,"byteOffset":0,"componentType":5121,"count":322441,"type":"VEC4","normalized":true},{"bufferView":2,"byteOffset":0,"componentType":5125,"count":1894995,"type":"SCALAR"}],"meshes":[{"primitives":[{"attributes":{"POSITION":0,"COLOR_0":1},"indices":2}]}],"nodes":[{"mesh":0,"translation":[-4.40036774,-2.640661,-1.38625872],"scale":[0.000504591444,0.000504591444,0.000504591444]}],"scenes":[{"nodes":[0]}],"scene":0}