{"buffers":[{"uri":"scene_00025_01-obb.compressed.bin","byteLength":1884664},{"byteLength":11817384,"extensions":{"EXT_meshopt_compression":{"fallback":true}}}],"asset":{"version":"2.0","generator":"gltfpack 0.17"},"extensionsUsed":["KHR_mesh_quantization","EXT_meshopt_compression"],"extensionsRequired":["KHR_mesh_quantization","EXT_meshopt_compression"],"bufferViews":[{"buffer":1,"byteOffset":0,"byteLength":2663656,"byteStride":8,"target":34962,"extensions":{"EXT_meshopt_compression":{"buffer":0,"byteOffset":0,"byteLength":976947,"byteStride":8,"mode":"ATTRIBUTES","count":332957}}},{"buffer":1,"byteOffset":2663656,"byteLength":1331828,"byteStride":4,"target":34962,"extensions":{"EXT_meshopt_compression":{"buffer":0,"byteOffset":976948,"byteLength":171175,"byteStride":4,"mode":"ATTRIBUTES","count":332957}}},{"buffer":1,"byteOffset":3995484,"byteLength":7821900,"target":34963,"extensions":{"EXT_meshopt_compression":{"buffer":0,"byteOffset":1148124,"byteLength":736538,"byteStride":4,"mode":"TRIANGLES","count":1955475}}}],"accessors":[{"bufferView":0,"byteOffset":0,"componentType":5123,"count":332957,"type":"VEC3","min":[0,0,0],"max":[16383,10299,5513]},{"bufferView":1,"byteOffset":0,"componentType":5121,"count":332957,"type":"VEC4","normalized":true},{"bufferView":2,"byteOffset":0,"componentType":5125,"count":1955475,"type":"SCALAR"}],"meshes":[{"primitives":[{"attributes":{"POSITION":0,"COLOR_0":1},"indices":2}]}],"nodes":[{"mesh":0,"translation":[-4.51591635,-2.65376854,-1.41024077],"scale":[0.000512906699,0.000512906699,0.000512906699]}],"scenes":[{"nodes":[0]}],"scene":0}