{"buffers":[{"uri":"scene_00025_01-articulation.compressed.bin","byteLength":9694228},{"byteLength":48759528,"extensions":{"EXT_meshopt_compression":{"fallback":true}}}],"asset":{"version":"2.0","generator":"gltfpack 0.17"},"extensionsUsed":["KHR_mesh_quantization","EXT_meshopt_compression"],"extensionsRequired":["KHR_mesh_quantization","EXT_meshopt_compression"],"bufferViews":[{"buffer":1,"byteOffset":0,"byteLength":3667784,"byteStride":8,"target":34962,"extensions":{"EXT_meshopt_compression":{"buffer":0,"byteOffset":0,"byteLength":1182970,"byteStride":8,"mode":"ATTRIBUTES","count":458473}}},{"buffer":1,"byteOffset":3667784,"byteLength":1833892,"byteStride":4,"target":34962,"extensions":{"EXT_meshopt_compression":{"buffer":0,"byteOffset":1182972,"byteLength":101517,"byteStride":4,"mode":"ATTRIBUTES","count":458473}}},{"buffer":1,"byteOffset":5501676,"byteLength":43257852,"target":34963,"extensions":{"EXT_meshopt_compression":{"buffer":0,"byteOffset":1284492,"byteLength":8409733,"byteStride":4,"mode":"TRIANGLES","count":10814463}}}],"accessors":[{"bufferView":0,"byteOffset":0,"componentType":5123,"count":458473,"type":"VEC3","min":[0,0,0],"max":[16383,10245,6377]},{"bufferView":1,"byteOffset":0,"componentType":5121,"count":458473,"type":"VEC4","normalized":true},{"bufferView":2,"byteOffset":0,"componentType":5125,"count":10814463,"type":"SCALAR"}],"materials":[{"pbrMetallicRoughness":{},"doubleSided":true,"alphaMode":"BLEND"}],"meshes":[{"primitives":[{"attributes":{"POSITION":0,"COLOR_0":1},"indices":2,"material":0}]}],"nodes":[{"mesh":0,"translation":[-4.40036774,-2.640661,-1.81475866],"scale":[0.000504591444,0.000504591444,0.000504591444]}],"scenes":[{"nodes":[0]}],"scene":0}