{"buffers":[{"uri":"scene_00057_01-articulation.compressed.bin","byteLength":3155008},{"byteLength":17061264,"extensions":{"EXT_meshopt_compression":{"fallback":true}}}],"asset":{"version":"2.0","generator":"gltfpack 0.17"},"extensionsUsed":["KHR_mesh_quantization","EXT_meshopt_compression"],"extensionsRequired":["KHR_mesh_quantization","EXT_meshopt_compression"],"bufferViews":[{"buffer":1,"byteOffset":0,"byteLength":1728776,"byteStride":8,"target":34962,"extensions":{"EXT_meshopt_compression":{"buffer":0,"byteOffset":0,"byteLength":683993,"byteStride":8,"mode":"ATTRIBUTES","count":216097}}},{"buffer":1,"byteOffset":1728776,"byteLength":864388,"byteStride":4,"target":34962,"extensions":{"EXT_meshopt_compression":{"buffer":0,"byteOffset":683996,"byteLength":57048,"byteStride":4,"mode":"ATTRIBUTES","count":216097}}},{"buffer":1,"byteOffset":2593164,"byteLength":14468100,"target":34963,"extensions":{"EXT_meshopt_compression":{"buffer":0,"byteOffset":741044,"byteLength":2413964,"byteStride":4,"mode":"TRIANGLES","count":3617025}}}],"accessors":[{"bufferView":0,"byteOffset":0,"componentType":5123,"count":216097,"type":"VEC3","min":[0,0,0],"max":[16383,14028,13407]},{"bufferView":1,"byteOffset":0,"componentType":5121,"count":216097,"type":"VEC4","normalized":true},{"bufferView":2,"byteOffset":0,"componentType":5125,"count":3617025,"type":"SCALAR"}],"materials":[{"pbrMetallicRoughness":{},"doubleSided":true,"alphaMode":"BLEND"}],"meshes":[{"primitives":[{"attributes":{"POSITION":0,"COLOR_0":1},"indices":2,"material":0}]}],"nodes":[{"mesh":0,"translation":[-1.72229052,-1.35902226,-1.4670099],"scale":[0.000220148635,0.000220148635,0.000220148635]}],"scenes":[{"nodes":[0]}],"scene":0}