{"buffers":[{"uri":"scene_00057_01-texture.compressed.bin","byteLength":12809996},{"byteLength":4988756,"extensions":{"EXT_meshopt_compression":{"fallback":true}}}],"asset":{"version":"2.0","generator":"gltfpack 0.17"},"extensionsUsed":["KHR_mesh_quantization","EXT_meshopt_compression","KHR_texture_transform","KHR_materials_unlit","KHR_texture_basisu"],"extensionsRequired":["KHR_mesh_quantization","EXT_meshopt_compression","KHR_texture_basisu"],"bufferViews":[{"buffer":0,"byteOffset":0,"byteLength":5828},{"buffer":0,"byteOffset":5828,"byteLength":22287},{"buffer":0,"byteOffset":28116,"byteLength":21795},{"buffer":0,"byteOffset":49912,"byteLength":21993},{"buffer":0,"byteOffset":71908,"byteLength":197385},{"buffer":0,"byteOffset":269296,"byteLength":196980},{"buffer":0,"byteOffset":466276,"byteLength":583416},{"buffer":0,"byteOffset":1049692,"byteLength":547067},{"buffer":0,"byteOffset":1596760,"byteLength":522187},{"buffer":0,"byteOffset":2118948,"byteLength":516468},{"buffer":0,"byteOffset":2635416,"byteLength":480139},{"buffer":0,"byteOffset":3115556,"byteLength":482303},{"buffer":0,"byteOffset":3597860,"byteLength":474670},{"buffer":0,"byteOffset":4072532,"byteLength":479946},{"buffer":0,"byteOffset":4552480,"byteLength":462804},{"buffer":0,"byteOffset":5015284,"byteLength":440436},{"buffer":0,"byteOffset":5455720,"byteLength":1534437},{"buffer":0,"byteOffset":6990160,"byteLength":1521218},{"buffer":0,"byteOffset":8511380,"byteLength":1350170},{"buffer":0,"byteOffset":9861552,"byteLength":1422904},{"buffer":1,"byteOffset":0,"byteLength":1824200,"byteStride":8,"target":34962,"extensions":{"EXT_meshopt_compression":{"buffer":0,"byteOffset":11284456,"byteLength":820300,"byteStride":8,"mode":"ATTRIBUTES","count":228025}}},{"buffer":1,"byteOffset":1824200,"byteLength":912100,"byteStride":4,"target":34962,"extensions":{"EXT_meshopt_compression":{"buffer":0,"byteOffset":12104756,"byteLength":307659,"byteStride":4,"mode":"ATTRIBUTES","count":228025}}},{"buffer":1,"byteOffset":2736300,"byteLength":1006182,"target":34963,"extensions":{"EXT_meshopt_compression":{"buffer":0,"byteOffset":12412416,"byteLength":185394,"byteStride":2,"mode":"TRIANGLES","count":503091}}},{"buffer":1,"byteOffset":3742484,"byteLength":1246272,"target":34963,"extensions":{"EXT_meshopt_compression":{"buffer":0,"byteOffset":12597812,"byteLength":212181,"byteStride":4,"mode":"TRIANGLES","count":311568}}}],"accessors":[{"bufferView":20,"byteOffset":0,"componentType":5123,"count":221,"type":"VEC3","min":[27,507,126],"max":[14766,13445,11397]},{"bufferView":21,"byteOffset":0,"componentType":5123,"count":221,"type":"VEC2"},{"bufferView":22,"byteOffset":0,"componentType":5123,"count":255,"type":"SCALAR"},{"bufferView":20,"byteOffset":1768,"componentType":5123,"count":572,"type":"VEC3","min":[71,257,105],"max":[15643,13123,11490]},{"bufferView":21,"byteOffset":884,"componentType":5123,"count":572,"type":"VEC2"},{"bufferView":22,"byteOffset":510,"componentType":5123,"count":666,"type":"SCALAR"},{"bufferView":20,"byteOffset":6344,"componentType":5123,"count":458,"type":"VEC3","min":[7,634,83],"max":[15342,13265,11494]},{"bufferView":21,"byteOffset":3172,"componentType":5123,"count":458,"type":"VEC2"},{"bufferView":22,"byteOffset":1842,"componentType":5123,"count":624,"type":"SCALAR"},{"bufferView":20,"byteOffset":10008,"componentType":5123,"count":393,"type":"VEC3","min":[4324,358,61],"max":[15708,12317,11501]},{"bufferView":21,"byteOffset":5004,"componentType":5123,"count":393,"type":"VEC2"},{"bufferView":22,"byteOffset":3090,"componentType":5123,"count":618,"type":"SCALAR"},{"bufferView":20,"byteOffset":13152,"componentType":5123,"count":2404,"type":"VEC3","min":[105,398,60],"max":[15981,13460,11519]},{"bufferView":21,"byteOffset":6576,"componentType":5123,"count":2404,"type":"VEC2"},{"bufferView":22,"byteOffset":4326,"componentType":5123,"count":5388,"type":"SCALAR"},{"bufferView":20,"byteOffset":32384,"componentType":5123,"count":3113,"type":"VEC3","min":[39,149,63],"max":[16047,13182,11529]},{"bufferView":21,"byteOffset":16192,"componentType":5123,"count":3113,"type":"VEC2"},{"bufferView":22,"byteOffset":15102,"componentType":5123,"count":10032,"type":"SCALAR"},{"bufferView":20,"byteOffset":57288,"componentType":5123,"count":7211,"type":"VEC3","min":[33,9,30],"max":[15997,13770,11524]},{"bufferView":21,"byteOffset":28644,"componentType":5123,"count":7211,"type":"VEC2"},{"bufferView":22,"byteOffset":35166,"componentType":5123,"count":28302,"type":"SCALAR"},{"bufferView":20,"byteOffset":114976,"componentType":5123,"count":5524,"type":"VEC3","min":[0,1,56],"max":[15925,12605,11526]},{"bufferView":21,"byteOffset":57488,"componentType":5123,"count":5524,"type":"VEC2"},{"bufferView":22,"byteOffset":91770,"componentType":5123,"count":22854,"type":"SCALAR"},{"bufferView":20,"byteOffset":159168,"componentType":5123,"count":5924,"type":"VEC3","min":[74,33,65],"max":[15908,13801,11506]},{"bufferView":21,"byteOffset":79584,"componentType":5123,"count":5924,"type":"VEC2"},{"bufferView":22,"byteOffset":137478,"componentType":5123,"count":25197,"type":"SCALAR"},{"bufferView":20,"byteOffset":206560,"componentType":5123,"count":5164,"type":"VEC3","min":[15,380,52],"max":[15902,13614,11546]},{"bufferView":21,"byteOffset":103280,"componentType":5123,"count":5164,"type":"VEC2"},{"bufferView":22,"byteOffset":187872,"componentType":5123,"count":21594,"type":"SCALAR"},{"bufferView":20,"byteOffset":247872,"componentType":5123,"count":4402,"type":"VEC3","min":[4382,86,55],"max":[15923,11762,11563]},{"bufferView":21,"byteOffset":123936,"componentType":5123,"count":4402,"type":"VEC2"},{"bufferView":22,"byteOffset":231060,"componentType":5123,"count":18744,"type":"SCALAR"},{"bufferView":20,"byteOffset":283088,"componentType":5123,"count":5556,"type":"VEC3","min":[4467,14,55],"max":[16048,13090,11523]},{"bufferView":21,"byteOffset":141544,"componentType":5123,"count":5556,"type":"VEC2"},{"bufferView":22,"byteOffset":268548,"componentType":5123,"count":25137,"type":"SCALAR"},{"bufferView":20,"byteOffset":327536,"componentType":5123,"count":5731,"type":"VEC3","min":[4960,57,19],"max":[15751,12314,11547]},{"bufferView":21,"byteOffset":163768,"componentType":5123,"count":5731,"type":"VEC2"},{"bufferView":22,"byteOffset":318822,"componentType":5123,"count":26745,"type":"SCALAR"},{"bufferView":20,"byteOffset":373384,"componentType":5123,"count":4853,"type":"VEC3","min":[4382,139,71],"max":[15920,12933,11512]},{"bufferView":21,"byteOffset":186692,"componentType":5123,"count":4853,"type":"VEC2"},{"bufferView":22,"byteOffset":372312,"componentType":5123,"count":21954,"type":"SCALAR"},{"bufferView":20,"byteOffset":412208,"componentType":5123,"count":4521,"type":"VEC3","min":[118,291,52],"max":[16025,12422,11531]},{"bufferView":21,"byteOffset":206104,"componentType":5123,"count":4521,"type":"VEC2"},{"bufferView":22,"byteOffset":416220,"componentType":5123,"count":21132,"type":"SCALAR"},{"bufferView":20,"byteOffset":448376,"componentType":5123,"count":5039,"type":"VEC3","min":[0,377,57],"max":[16001,13104,11335]},{"bufferView":21,"byteOffset":224188,"componentType":5123,"count":5039,"type":"VEC2"},{"bufferView":22,"byteOffset":458484,"componentType":5123,"count":23793,"type":"SCALAR"},{"bufferView":20,"byteOffset":488688,"componentType":5123,"count":15695,"type":"VEC3","min":[4190,799,52],"max":[15935,9926,11562]},{"bufferView":21,"byteOffset":244344,"componentType":5123,"count":15695,"type":"VEC2"},{"bufferView":22,"byteOffset":506070,"componentType":5123,"count":76692,"type":"SCALAR"},{"bufferView":20,"byteOffset":614248,"componentType":5123,"count":117863,"type":"VEC3","min":[27,12,0],"max":[16383,13884,11547]},{"bufferView":21,"byteOffset":307124,"componentType":5123,"count":117863,"type":"VEC2"},{"bufferView":23,"byteOffset":0,"componentType":5125,"count":311568,"type":"SCALAR"},{"bufferView":20,"byteOffset":1557152,"componentType":5123,"count":17346,"type":"VEC3","min":[4191,0,53],"max":[15960,13166,11562]},{"bufferView":21,"byteOffset":778576,"componentType":5123,"count":17346,"type":"VEC2"},{"bufferView":22,"byteOffset":659454,"componentType":5123,"count":89241,"type":"SCALAR"},{"bufferView":20,"byteOffset":1695920,"componentType":5123,"count":16035,"type":"VEC3","min":[4411,398,48],"max":[16056,12470,11527]},{"bufferView":21,"byteOffset":847960,"componentType":5123,"count":16035,"type":"VEC2"},{"bufferView":22,"byteOffset":837936,"componentType":5123,"count":84123,"type":"SCALAR"}],"images":[{"bufferView":0,"mimeType":"image/ktx2"},{"bufferView":1,"mimeType":"image/ktx2"},{"bufferView":2,"mimeType":"image/ktx2"},{"bufferView":3,"mimeType":"image/ktx2"},{"bufferView":4,"mimeType":"image/ktx2"},{"bufferView":5,"mimeType":"image/ktx2"},{"bufferView":6,"mimeType":"image/ktx2"},{"bufferView":7,"mimeType":"image/ktx2"},{"bufferView":8,"mimeType":"image/ktx2"},{"bufferView":9,"mimeType":"image/ktx2"},{"bufferView":10,"mimeType":"image/ktx2"},{"bufferView":11,"mimeType":"image/ktx2"},{"bufferView":12,"mimeType":"image/ktx2"},{"bufferView":13,"mimeType":"image/ktx2"},{"bufferView":14,"mimeType":"image/ktx2"},{"bufferView":15,"mimeType":"image/ktx2"},{"bufferView":16,"mimeType":"image/ktx2"},{"bufferView":17,"mimeType":"image/ktx2"},{"bufferView":18,"mimeType":"image/ktx2"},{"bufferView":19,"mimeType":"image/ktx2"}],"textures":[{"extensions":{"KHR_texture_basisu":{"source":0}}},{"extensions":{"KHR_texture_basisu":{"source":1}}},{"extensions":{"KHR_texture_basisu":{"source":2}}},{"extensions":{"KHR_texture_basisu":{"source":3}}},{"extensions":{"KHR_texture_basisu":{"source":4}}},{"extensions":{"KHR_texture_basisu":{"source":5}}},{"extensions":{"KHR_texture_basisu":{"source":6}}},{"extensions":{"KHR_texture_basisu":{"source":7}}},{"extensions":{"KHR_texture_basisu":{"source":8}}},{"extensions":{"KHR_texture_basisu":{"source":9}}},{"extensions":{"KHR_texture_basisu":{"source":10}}},{"extensions":{"KHR_texture_basisu":{"source":11}}},{"extensions":{"KHR_texture_basisu":{"source":12}}},{"extensions":{"KHR_texture_basisu":{"source":13}}},{"extensions":{"KHR_texture_basisu":{"source":14}}},{"extensions":{"KHR_texture_basisu":{"source":15}}},{"extensions":{"KHR_texture_basisu":{"source":16}}},{"extensions":{"KHR_texture_basisu":{"source":17}}},{"extensions":{"KHR_texture_basisu":{"source":18}}},{"extensions":{"KHR_texture_basisu":{"source":19}}}],"materials":[{"pbrMetallicRoughness":{"baseColorTexture":{"index":0,"extensions":{"KHR_texture_transform":{"offset":[0.0127600003,0.01174],"scale":[0.000236785359,0.000219552123]}}},"roughnessFactor":0.903602004},"extensions":{"KHR_materials_unlit":{}}},{"pbrMetallicRoughness":{"baseColorTexture":{"index":1,"extensions":{"KHR_texture_transform":{"offset":[0.0100330003,0.00987299997],"scale":[0.000238888402,0.000238361914]}}},"roughnessFactor":0.903602004},"extensions":{"KHR_materials_unlit":{}}},{"pbrMetallicRoughness":{"baseColorTexture":{"index":2,"extensions":{"KHR_texture_transform":{"offset":[0.00977700017,0.00991600007],"scale":[0.000239427842,0.000238852255]}}},"roughnessFactor":0.903602004},"extensions":{"KHR_materials_unlit":{}}},{"pbrMetallicRoughness":{"baseColorTexture":{"index":3,"extensions":{"KHR_texture_transform":{"offset":[0.00984799955,0.0104080001],"scale":[0.000238742359,0.000237480097]}}},"roughnessFactor":0.903602004},"extensions":{"KHR_materials_unlit":{}}},{"pbrMetallicRoughness":{"baseColorTexture":{"index":4,"extensions":{"KHR_texture_transform":{"offset":[0.00830100011,0.00830200035],"scale":[0.000240018315,0.000240024427]}}},"roughnessFactor":0.903602004},"extensions":{"KHR_materials_unlit":{}}},{"pbrMetallicRoughness":{"baseColorTexture":{"index":5,"extensions":{"KHR_texture_transform":{"offset":[0.00830200035,0.00833200011],"scale":[0.000239908433,0.000239999266]}}},"roughnessFactor":0.903602004},"extensions":{"KHR_materials_unlit":{}}},{"pbrMetallicRoughness":{"baseColorTexture":{"index":6,"extensions":{"KHR_texture_transform":{"offset":[0.00808500033,0.00806600042],"scale":[0.000240193651,0.000240189504]}}},"roughnessFactor":0.903602004},"extensions":{"KHR_materials_unlit":{}}},{"pbrMetallicRoughness":{"baseColorTexture":{"index":7,"extensions":{"KHR_texture_transform":{"offset":[0.00806900021,0.00809200015],"scale":[0.000240202688,0.00024016801]}}},"roughnessFactor":0.903602004},"extensions":{"KHR_materials_unlit":{}}},{"pbrMetallicRoughness":{"baseColorTexture":{"index":8,"extensions":{"KHR_texture_transform":{"offset":[0.00805999991,0.00811399985],"scale":[0.00024019659,0.000240190973]}}},"roughnessFactor":0.903602004},"extensions":{"KHR_materials_unlit":{}}},{"pbrMetallicRoughness":{"baseColorTexture":{"index":9,"extensions":{"KHR_texture_transform":{"offset":[0.00809300039,0.00808199961],"scale":[0.000240187059,0.000240165085]}}},"roughnessFactor":0.903602004},"extensions":{"KHR_materials_unlit":{}}},{"pbrMetallicRoughness":{"baseColorTexture":{"index":10,"extensions":{"KHR_texture_transform":{"offset":[0.00807399955,0.00808199961],"scale":[0.000240199268,0.000240180234]}}},"roughnessFactor":0.903602004},"extensions":{"KHR_materials_unlit":{}}},{"pbrMetallicRoughness":{"baseColorTexture":{"index":11,"extensions":{"KHR_texture_transform":{"offset":[0.00807000045,0.0080939997],"scale":[0.000240180962,0.000240183159]}}},"roughnessFactor":0.903602004},"extensions":{"KHR_materials_unlit":{}}},{"pbrMetallicRoughness":{"baseColorTexture":{"index":12,"extensions":{"KHR_texture_transform":{"offset":[0.00810499955,0.00811299961],"scale":[0.00024016801,0.000240186564]}}},"roughnessFactor":0.903602004},"extensions":{"KHR_materials_unlit":{}}},{"pbrMetallicRoughness":{"baseColorTexture":{"index":13,"extensions":{"KHR_texture_transform":{"offset":[0.00807899982,0.00808800012],"scale":[0.000240180714,0.000240147492]}}},"roughnessFactor":0.903602004},"extensions":{"KHR_materials_unlit":{}}},{"pbrMetallicRoughness":{"baseColorTexture":{"index":14,"extensions":{"KHR_texture_transform":{"offset":[0.00807499979,0.00806100015],"scale":[0.000240260808,0.000240183159]}}},"roughnessFactor":0.903602004},"extensions":{"KHR_materials_unlit":{}}},{"pbrMetallicRoughness":{"baseColorTexture":{"index":15,"extensions":{"KHR_texture_transform":{"offset":[0.00814600009,0.00810100045],"scale":[0.000240173627,0.000240101348]}}},"roughnessFactor":0.903602004},"extensions":{"KHR_materials_unlit":{}}},{"pbrMetallicRoughness":{"baseColorTexture":{"index":16,"extensions":{"KHR_texture_transform":{"offset":[0.00796400011,0.00793999992],"scale":[0.000240216847,0.000240270572]}}},"roughnessFactor":0.903602004},"extensions":{"KHR_materials_unlit":{}}},{"pbrMetallicRoughness":{"baseColorTexture":{"index":17,"extensions":{"KHR_texture_transform":{"offset":[0.00793499965,0.00797499996],"scale":[0.000240274239,0.000240283523]}}},"roughnessFactor":0.903602004},"extensions":{"KHR_materials_unlit":{}}},{"pbrMetallicRoughness":{"baseColorTexture":{"index":18,"extensions":{"KHR_texture_transform":{"offset":[0.00795399956,0.00800999999],"scale":[0.000240285459,0.000240248846]}}},"roughnessFactor":0.903602004},"extensions":{"KHR_materials_unlit":{}}},{"pbrMetallicRoughness":{"baseColorTexture":{"index":19,"extensions":{"KHR_texture_transform":{"offset":[0.0079420004,0.00793700013],"scale":[0.000240279842,0.000240292298]}}},"roughnessFactor":0.903602004},"extensions":{"KHR_materials_unlit":{}}}],"meshes":[{"primitives":[{"attributes":{"POSITION":0,"TEXCOORD_0":1},"indices":2,"material":0},{"attributes":{"POSITION":3,"TEXCOORD_0":4},"indices":5,"material":1},{"attributes":{"POSITION":6,"TEXCOORD_0":7},"indices":8,"material":2},{"attributes":{"POSITION":9,"TEXCOORD_0":10},"indices":11,"material":3},{"attributes":{"POSITION":12,"TEXCOORD_0":13},"indices":14,"material":4},{"attributes":{"POSITION":15,"TEXCOORD_0":16},"indices":17,"material":5},{"attributes":{"POSITION":18,"TEXCOORD_0":19},"indices":20,"material":6},{"attributes":{"POSITION":21,"TEXCOORD_0":22},"indices":23,"material":7},{"attributes":{"POSITION":24,"TEXCOORD_0":25},"indices":26,"material":8},{"attributes":{"POSITION":27,"TEXCOORD_0":28},"indices":29,"material":9},{"attributes":{"POSITION":30,"TEXCOORD_0":31},"indices":32,"material":10},{"attributes":{"POSITION":33,"TEXCOORD_0":34},"indices":35,"material":11},{"attributes":{"POSITION":36,"TEXCOORD_0":37},"indices":38,"material":12},{"attributes":{"POSITION":39,"TEXCOORD_0":40},"indices":41,"material":13},{"attributes":{"POSITION":42,"TEXCOORD_0":43},"indices":44,"material":14},{"attributes":{"POSITION":45,"TEXCOORD_0":46},"indices":47,"material":15},{"attributes":{"POSITION":48,"TEXCOORD_0":49},"indices":50,"material":16},{"attributes":{"POSITION":51,"TEXCOORD_0":52},"indices":53,"material":17},{"attributes":{"POSITION":54,"TEXCOORD_0":55},"indices":56,"material":18},{"attributes":{"POSITION":57,"TEXCOORD_0":58},"indices":59,"material":19}]}],"nodes":[{"mesh":0,"translation":[-1.72229052,-1.32740247,-1.27861094],"scale":[0.000220148635,0.000220148635,0.000220148635]}],"scenes":[{"nodes":[0]}],"scene":0}