{"buffers":[{"uri":"scene_00057_01-instance.compressed.bin","byteLength":920800},{"byteLength":4926024,"extensions":{"EXT_meshopt_compression":{"fallback":true}}}],"asset":{"version":"2.0","generator":"gltfpack 0.17"},"extensionsUsed":["KHR_mesh_quantization","EXT_meshopt_compression"],"extensionsRequired":["KHR_mesh_quantization","EXT_meshopt_compression"],"bufferViews":[{"buffer":1,"byteOffset":0,"byteLength":1111592,"byteStride":8,"target":34962,"extensions":{"EXT_meshopt_compression":{"buffer":0,"byteOffset":0,"byteLength":493743,"byteStride":8,"mode":"ATTRIBUTES","count":138949}}},{"buffer":1,"byteOffset":1111592,"byteLength":555796,"byteStride":4,"target":34962,"extensions":{"EXT_meshopt_compression":{"buffer":0,"byteOffset":493744,"byteLength":114100,"byteStride":4,"mode":"ATTRIBUTES","count":138949}}},{"buffer":1,"byteOffset":1667388,"byteLength":3258636,"target":34963,"extensions":{"EXT_meshopt_compression":{"buffer":0,"byteOffset":607844,"byteLength":312954,"byteStride":4,"mode":"TRIANGLES","count":814659}}}],"accessors":[{"bufferView":0,"byteOffset":0,"componentType":5123,"count":138949,"type":"VEC3","min":[0,0,0],"max":[16383,13884,11563]},{"bufferView":1,"byteOffset":0,"componentType":5121,"count":138949,"type":"VEC4","normalized":true},{"bufferView":2,"byteOffset":0,"componentType":5125,"count":814659,"type":"SCALAR"}],"meshes":[{"primitives":[{"attributes":{"POSITION":0,"COLOR_0":1},"indices":2}]}],"nodes":[{"mesh":0,"translation":[-1.72229052,-1.32740247,-1.27861094],"scale":[0.000220148635,0.000220148635,0.000220148635]}],"scenes":[{"nodes":[0]}],"scene":0}