{"buffers":[{"uri":"scene_00057_01-obb.compressed.bin","byteLength":980260},{"byteLength":5346696,"extensions":{"EXT_meshopt_compression":{"fallback":true}}}],"asset":{"version":"2.0","generator":"gltfpack 0.17"},"extensionsUsed":["KHR_mesh_quantization","EXT_meshopt_compression"],"extensionsRequired":["KHR_mesh_quantization","EXT_meshopt_compression"],"bufferViews":[{"buffer":1,"byteOffset":0,"byteLength":1207720,"byteStride":8,"target":34962,"extensions":{"EXT_meshopt_compression":{"buffer":0,"byteOffset":0,"byteLength":540556,"byteStride":8,"mode":"ATTRIBUTES","count":150965}}},{"buffer":1,"byteOffset":1207720,"byteLength":603860,"byteStride":4,"target":34962,"extensions":{"EXT_meshopt_compression":{"buffer":0,"byteOffset":540556,"byteLength":101056,"byteStride":4,"mode":"ATTRIBUTES","count":150965}}},{"buffer":1,"byteOffset":1811580,"byteLength":3535116,"target":34963,"extensions":{"EXT_meshopt_compression":{"buffer":0,"byteOffset":641612,"byteLength":338647,"byteStride":4,"mode":"TRIANGLES","count":883779}}}],"accessors":[{"bufferView":0,"byteOffset":0,"componentType":5123,"count":150965,"type":"VEC3","min":[0,0,0],"max":[16383,13972,11677]},{"bufferView":1,"byteOffset":0,"componentType":5121,"count":150965,"type":"VEC4","normalized":true},{"bufferView":2,"byteOffset":0,"componentType":5125,"count":883779,"type":"SCALAR"}],"meshes":[{"primitives":[{"attributes":{"POSITION":0,"COLOR_0":1},"indices":2}]}],"nodes":[{"mesh":0,"translation":[-1.72229052,-1.34686553,-1.28360426],"scale":[0.000220148635,0.000220148635,0.000220148635]}],"scenes":[{"nodes":[0]}],"scene":0}