{"buffers":[{"uri":"scene_00128_03-texture.compressed.bin","byteLength":12465092},{"byteLength":6148004,"extensions":{"EXT_meshopt_compression":{"fallback":true}}}],"asset":{"version":"2.0","generator":"gltfpack 0.17"},"extensionsUsed":["KHR_mesh_quantization","EXT_meshopt_compression","KHR_texture_transform","KHR_materials_unlit","KHR_texture_basisu"],"extensionsRequired":["KHR_mesh_quantization","EXT_meshopt_compression","KHR_texture_basisu"],"bufferViews":[{"buffer":0,"byteOffset":0,"byteLength":2138},{"buffer":0,"byteOffset":2140,"byteLength":23450},{"buffer":0,"byteOffset":25592,"byteLength":23681},{"buffer":0,"byteOffset":49276,"byteLength":23365},{"buffer":0,"byteOffset":72644,"byteLength":23159},{"buffer":0,"byteOffset":95804,"byteLength":23227},{"buffer":0,"byteOffset":119032,"byteLength":23340},{"buffer":0,"byteOffset":142372,"byteLength":218667},{"buffer":0,"byteOffset":361040,"byteLength":210082},{"buffer":0,"byteOffset":571124,"byteLength":642563},{"buffer":0,"byteOffset":1213688,"byteLength":629152},{"buffer":0,"byteOffset":1842840,"byteLength":581185},{"buffer":0,"byteOffset":2424028,"byteLength":571141},{"buffer":0,"byteOffset":2995172,"byteLength":583162},{"buffer":0,"byteOffset":3578336,"byteLength":517141},{"buffer":0,"byteOffset":4095480,"byteLength":555912},{"buffer":0,"byteOffset":4651392,"byteLength":538757},{"buffer":0,"byteOffset":5190152,"byteLength":522856},{"buffer":0,"byteOffset":5713008,"byteLength":1750587},{"buffer":0,"byteOffset":7463596,"byteLength":1601584},{"buffer":0,"byteOffset":9065180,"byteLength":1306130},{"buffer":1,"byteOffset":0,"byteLength":2363744,"byteStride":8,"target":34962,"extensions":{"EXT_meshopt_compression":{"buffer":0,"byteOffset":10371312,"byteLength":1007414,"byteStride":8,"mode":"ATTRIBUTES","count":295468}}},{"buffer":1,"byteOffset":2363744,"byteLength":1181872,"byteStride":4,"target":34962,"extensions":{"EXT_meshopt_compression":{"buffer":0,"byteOffset":11378728,"byteLength":560566,"byteStride":4,"mode":"ATTRIBUTES","count":295468}}},{"buffer":1,"byteOffset":3545616,"byteLength":2602386,"target":34963,"extensions":{"EXT_meshopt_compression":{"buffer":0,"byteOffset":11939296,"byteLength":525793,"byteStride":2,"mode":"TRIANGLES","count":1301193}}}],"accessors":[{"bufferView":21,"byteOffset":0,"componentType":5123,"count":83,"type":"VEC3","min":[2076,1769,164],"max":[15809,14322,8561]},{"bufferView":22,"byteOffset":0,"componentType":5123,"count":83,"type":"VEC2"},{"bufferView":23,"byteOffset":0,"componentType":5123,"count":93,"type":"SCALAR"},{"bufferView":21,"byteOffset":664,"componentType":5123,"count":1009,"type":"VEC3","min":[407,1605,36],"max":[16038,14504,9031]},{"bufferView":22,"byteOffset":332,"componentType":5123,"count":1009,"type":"VEC2"},{"bufferView":23,"byteOffset":186,"componentType":5123,"count":1158,"type":"SCALAR"},{"bufferView":21,"byteOffset":8736,"componentType":5123,"count":787,"type":"VEC3","min":[201,1370,35],"max":[16372,14614,9026]},{"bufferView":22,"byteOffset":4368,"componentType":5123,"count":787,"type":"VEC2"},{"bufferView":23,"byteOffset":2502,"componentType":5123,"count":1050,"type":"SCALAR"},{"bufferView":21,"byteOffset":15032,"componentType":5123,"count":653,"type":"VEC3","min":[205,2664,19],"max":[15943,14518,9080]},{"bufferView":22,"byteOffset":7516,"componentType":5123,"count":653,"type":"VEC2"},{"bufferView":23,"byteOffset":4602,"componentType":5123,"count":897,"type":"SCALAR"},{"bufferView":21,"byteOffset":20256,"componentType":5123,"count":626,"type":"VEC3","min":[213,1898,23],"max":[15966,14602,9068]},{"bufferView":22,"byteOffset":10128,"componentType":5123,"count":626,"type":"VEC2"},{"bufferView":23,"byteOffset":6396,"componentType":5123,"count":936,"type":"SCALAR"},{"bufferView":21,"byteOffset":25264,"componentType":5123,"count":570,"type":"VEC3","min":[188,2553,7],"max":[16354,14427,9028]},{"bufferView":22,"byteOffset":12632,"componentType":5123,"count":570,"type":"VEC2"},{"bufferView":23,"byteOffset":8268,"componentType":5123,"count":951,"type":"SCALAR"},{"bufferView":21,"byteOffset":29824,"componentType":5123,"count":591,"type":"VEC3","min":[205,1594,46],"max":[16365,14595,9031]},{"bufferView":22,"byteOffset":14912,"componentType":5123,"count":591,"type":"VEC2"},{"bufferView":23,"byteOffset":10170,"componentType":5123,"count":1179,"type":"SCALAR"},{"bufferView":21,"byteOffset":34552,"componentType":5123,"count":4456,"type":"VEC3","min":[198,2611,8],"max":[16381,14612,9143]},{"bufferView":22,"byteOffset":17276,"componentType":5123,"count":4456,"type":"VEC2"},{"bufferView":23,"byteOffset":12528,"componentType":5123,"count":12843,"type":"SCALAR"},{"bufferView":21,"byteOffset":70200,"componentType":5123,"count":4632,"type":"VEC3","min":[38,1488,19],"max":[16373,14676,9058]},{"bufferView":22,"byteOffset":35100,"componentType":5123,"count":4632,"type":"VEC2"},{"bufferView":23,"byteOffset":38214,"componentType":5123,"count":17058,"type":"SCALAR"},{"bufferView":21,"byteOffset":107256,"componentType":5123,"count":12271,"type":"VEC3","min":[51,1955,17],"max":[16382,14620,9057]},{"bufferView":22,"byteOffset":53628,"componentType":5123,"count":12271,"type":"VEC2"},{"bufferView":23,"byteOffset":72330,"componentType":5123,"count":50136,"type":"SCALAR"},{"bufferView":21,"byteOffset":205424,"componentType":5123,"count":12724,"type":"VEC3","min":[100,2664,32],"max":[16380,14667,9058]},{"bufferView":22,"byteOffset":102712,"componentType":5123,"count":12724,"type":"VEC2"},{"bufferView":23,"byteOffset":172602,"componentType":5123,"count":56502,"type":"SCALAR"},{"bufferView":21,"byteOffset":307216,"componentType":5123,"count":13168,"type":"VEC3","min":[0,2101,10],"max":[16366,14603,9061]},{"bufferView":22,"byteOffset":153608,"componentType":5123,"count":13168,"type":"VEC2"},{"bufferView":23,"byteOffset":285606,"componentType":5123,"count":60894,"type":"SCALAR"},{"bufferView":21,"byteOffset":412560,"componentType":5123,"count":12031,"type":"VEC3","min":[143,1637,29],"max":[16375,14540,9101]},{"bufferView":22,"byteOffset":206280,"componentType":5123,"count":12031,"type":"VEC2"},{"bufferView":23,"byteOffset":407394,"componentType":5123,"count":56745,"type":"SCALAR"},{"bufferView":21,"byteOffset":508808,"componentType":5123,"count":13161,"type":"VEC3","min":[30,1415,32],"max":[16383,14561,9057]},{"bufferView":22,"byteOffset":254404,"componentType":5123,"count":13161,"type":"VEC2"},{"bufferView":23,"byteOffset":520884,"componentType":5123,"count":63567,"type":"SCALAR"},{"bufferView":21,"byteOffset":614096,"componentType":5123,"count":63415,"type":"VEC3","min":[117,0,13],"max":[16382,14721,9145]},{"bufferView":22,"byteOffset":307048,"componentType":5123,"count":63415,"type":"VEC2"},{"bufferView":23,"byteOffset":648018,"componentType":5123,"count":169647,"type":"SCALAR"},{"bufferView":21,"byteOffset":1121416,"componentType":5123,"count":12831,"type":"VEC3","min":[233,1699,8],"max":[16373,14637,9065]},{"bufferView":22,"byteOffset":560708,"componentType":5123,"count":12831,"type":"VEC2"},{"bufferView":23,"byteOffset":987312,"componentType":5123,"count":63447,"type":"SCALAR"},{"bufferView":21,"byteOffset":1224064,"componentType":5123,"count":11514,"type":"VEC3","min":[410,1914,36],"max":[16276,14531,9083]},{"bufferView":22,"byteOffset":612032,"componentType":5123,"count":11514,"type":"VEC2"},{"bufferView":23,"byteOffset":1114206,"componentType":5123,"count":57168,"type":"SCALAR"},{"bufferView":21,"byteOffset":1316176,"componentType":5123,"count":14088,"type":"VEC3","min":[205,1706,33],"max":[16350,14627,9063]},{"bufferView":22,"byteOffset":658088,"componentType":5123,"count":14088,"type":"VEC2"},{"bufferView":23,"byteOffset":1228542,"componentType":5123,"count":72414,"type":"SCALAR"},{"bufferView":21,"byteOffset":1428880,"componentType":5123,"count":37822,"type":"VEC3","min":[35,1389,26],"max":[16370,14635,9081]},{"bufferView":22,"byteOffset":714440,"componentType":5123,"count":37822,"type":"VEC2"},{"bufferView":23,"byteOffset":1373370,"componentType":5123,"count":194253,"type":"SCALAR"},{"bufferView":21,"byteOffset":1731456,"componentType":5123,"count":39375,"type":"VEC3","min":[86,2994,0],"max":[16382,14637,9083]},{"bufferView":22,"byteOffset":865728,"componentType":5123,"count":39375,"type":"VEC2"},{"bufferView":23,"byteOffset":1761876,"componentType":5123,"count":206559,"type":"SCALAR"},{"bufferView":21,"byteOffset":2046456,"componentType":5123,"count":39661,"type":"VEC3","min":[404,2997,13],"max":[16111,14634,9080]},{"bufferView":22,"byteOffset":1023228,"componentType":5123,"count":39661,"type":"VEC2"},{"bufferView":23,"byteOffset":2174994,"componentType":5123,"count":213696,"type":"SCALAR"}],"images":[{"bufferView":0,"mimeType":"image/ktx2"},{"bufferView":1,"mimeType":"image/ktx2"},{"bufferView":2,"mimeType":"image/ktx2"},{"bufferView":3,"mimeType":"image/ktx2"},{"bufferView":4,"mimeType":"image/ktx2"},{"bufferView":5,"mimeType":"image/ktx2"},{"bufferView":6,"mimeType":"image/ktx2"},{"bufferView":7,"mimeType":"image/ktx2"},{"bufferView":8,"mimeType":"image/ktx2"},{"bufferView":9,"mimeType":"image/ktx2"},{"bufferView":10,"mimeType":"image/ktx2"},{"bufferView":11,"mimeType":"image/ktx2"},{"bufferView":12,"mimeType":"image/ktx2"},{"bufferView":13,"mimeType":"image/ktx2"},{"bufferView":14,"mimeType":"image/ktx2"},{"bufferView":15,"mimeType":"image/ktx2"},{"bufferView":16,"mimeType":"image/ktx2"},{"bufferView":17,"mimeType":"image/ktx2"},{"bufferView":18,"mimeType":"image/ktx2"},{"bufferView":19,"mimeType":"image/ktx2"},{"bufferView":20,"mimeType":"image/ktx2"}],"textures":[{"extensions":{"KHR_texture_basisu":{"source":0}}},{"extensions":{"KHR_texture_basisu":{"source":1}}},{"extensions":{"KHR_texture_basisu":{"source":2}}},{"extensions":{"KHR_texture_basisu":{"source":3}}},{"extensions":{"KHR_texture_basisu":{"source":4}}},{"extensions":{"KHR_texture_basisu":{"source":5}}},{"extensions":{"KHR_texture_basisu":{"source":6}}},{"extensions":{"KHR_texture_basisu":{"source":7}}},{"extensions":{"KHR_texture_basisu":{"source":8}}},{"extensions":{"KHR_texture_basisu":{"source":9}}},{"extensions":{"KHR_texture_basisu":{"source":10}}},{"extensions":{"KHR_texture_basisu":{"source":11}}},{"extensions":{"KHR_texture_basisu":{"source":12}}},{"extensions":{"KHR_texture_basisu":{"source":13}}},{"extensions":{"KHR_texture_basisu":{"source":14}}},{"extensions":{"KHR_texture_basisu":{"source":15}}},{"extensions":{"KHR_texture_basisu":{"source":16}}},{"extensions":{"KHR_texture_basisu":{"source":17}}},{"extensions":{"KHR_texture_basisu":{"source":18}}},{"extensions":{"KHR_texture_basisu":{"source":19}}},{"extensions":{"KHR_texture_basisu":{"source":20}}}],"materials":[{"pbrMetallicRoughness":{"baseColorTexture":{"index":0,"extensions":{"KHR_texture_transform":{"offset":[0.0144619998,0.0122260004],"scale":[0.000235461528,3.21504303e-05]}}},"roughnessFactor":0.903602004},"extensions":{"KHR_materials_unlit":{}}},{"pbrMetallicRoughness":{"baseColorTexture":{"index":1,"extensions":{"KHR_texture_transform":{"offset":[0.00981699955,0.00979499985],"scale":[0.000239418077,0.000238801702]}}},"roughnessFactor":0.903602004},"extensions":{"KHR_materials_unlit":{}}},{"pbrMetallicRoughness":{"baseColorTexture":{"index":2,"extensions":{"KHR_texture_transform":{"offset":[0.00987199973,0.0101969996],"scale":[0.000239404646,0.000238639812]}}},"roughnessFactor":0.903602004},"extensions":{"KHR_materials_unlit":{}}},{"pbrMetallicRoughness":{"baseColorTexture":{"index":3,"extensions":{"KHR_texture_transform":{"offset":[0.0098059997,0.00992699992],"scale":[0.000238943845,0.000239339919]}}},"roughnessFactor":0.903602004},"extensions":{"KHR_materials_unlit":{}}},{"pbrMetallicRoughness":{"baseColorTexture":{"index":4,"extensions":{"KHR_texture_transform":{"offset":[0.00976600032,0.0100090001],"scale":[0.000238749955,0.000239371191]}}},"roughnessFactor":0.903602004},"extensions":{"KHR_materials_unlit":{}}},{"pbrMetallicRoughness":{"baseColorTexture":{"index":5,"extensions":{"KHR_texture_transform":{"offset":[0.0101100001,0.00983200036],"scale":[0.000238701832,0.000238909633]}}},"roughnessFactor":0.903602004},"extensions":{"KHR_materials_unlit":{}}},{"pbrMetallicRoughness":{"baseColorTexture":{"index":6,"extensions":{"KHR_texture_transform":{"offset":[0.0100509999,0.00994300004],"scale":[0.000238783876,0.000238828332]}}},"roughnessFactor":0.903602004},"extensions":{"KHR_materials_unlit":{}}},{"pbrMetallicRoughness":{"baseColorTexture":{"index":7,"extensions":{"KHR_texture_transform":{"offset":[0.00833300035,0.0083039999],"scale":[0.000239969711,0.000240023204]}}},"roughnessFactor":0.903602004},"extensions":{"KHR_materials_unlit":{}}},{"pbrMetallicRoughness":{"baseColorTexture":{"index":8,"extensions":{"KHR_texture_transform":{"offset":[0.00847900007,0.00832299981],"scale":[0.000239980698,0.000240006353]}}},"roughnessFactor":0.903602004},"extensions":{"KHR_materials_unlit":{}}},{"pbrMetallicRoughness":{"baseColorTexture":{"index":9,"extensions":{"KHR_texture_transform":{"offset":[0.0080629997,0.00805700012],"scale":[0.000240196096,0.00024020391]}}},"roughnessFactor":0.903602004},"extensions":{"KHR_materials_unlit":{}}},{"pbrMetallicRoughness":{"baseColorTexture":{"index":10,"extensions":{"KHR_texture_transform":{"offset":[0.00806500018,0.00806100015],"scale":[0.000240188776,0.000240186331]}}},"roughnessFactor":0.903602004},"extensions":{"KHR_materials_unlit":{}}},{"pbrMetallicRoughness":{"baseColorTexture":{"index":11,"extensions":{"KHR_texture_transform":{"offset":[0.00805800036,0.00807499979],"scale":[0.000240201465,0.000240195601]}}},"roughnessFactor":0.903602004},"extensions":{"KHR_materials_unlit":{}}},{"pbrMetallicRoughness":{"baseColorTexture":{"index":12,"extensions":{"KHR_texture_transform":{"offset":[0.0080629997,0.00805700012],"scale":[0.000240189009,0.000240159949]}}},"roughnessFactor":0.903602004},"extensions":{"KHR_materials_unlit":{}}},{"pbrMetallicRoughness":{"baseColorTexture":{"index":13,"extensions":{"KHR_texture_transform":{"offset":[0.00809700042,0.00808900036],"scale":[0.000240181442,0.000240189256]}}},"roughnessFactor":0.903602004},"extensions":{"KHR_materials_unlit":{}}},{"pbrMetallicRoughness":{"baseColorTexture":{"index":14,"extensions":{"KHR_texture_transform":{"offset":[0.0080629997,0.00808900036],"scale":[0.000240201465,0.000240159949]}}},"roughnessFactor":0.903602004},"extensions":{"KHR_materials_unlit":{}}},{"pbrMetallicRoughness":{"baseColorTexture":{"index":15,"extensions":{"KHR_texture_transform":{"offset":[0.00808199961,0.00807499979],"scale":[0.000240167763,0.000240161899]}}},"roughnessFactor":0.903602004},"extensions":{"KHR_materials_unlit":{}}},{"pbrMetallicRoughness":{"baseColorTexture":{"index":16,"extensions":{"KHR_texture_transform":{"offset":[0.00806900021,0.00814200006],"scale":[0.000240189271,0.00024014384]}}},"roughnessFactor":0.903602004},"extensions":{"KHR_materials_unlit":{}}},{"pbrMetallicRoughness":{"baseColorTexture":{"index":17,"extensions":{"KHR_texture_transform":{"offset":[0.00818900019,0.0080629997],"scale":[0.000240064706,0.000240105728]}}},"roughnessFactor":0.903602004},"extensions":{"KHR_materials_unlit":{}}},{"pbrMetallicRoughness":{"baseColorTexture":{"index":18,"extensions":{"KHR_texture_transform":{"offset":[0.00795300025,0.0079420004],"scale":[0.000240262278,0.000240292298]}}},"roughnessFactor":0.903602004},"extensions":{"KHR_materials_unlit":{}}},{"pbrMetallicRoughness":{"baseColorTexture":{"index":19,"extensions":{"KHR_texture_transform":{"offset":[0.00797399972,0.00793899968],"scale":[0.000240230263,0.000240288646]}}},"roughnessFactor":0.903602004},"extensions":{"KHR_materials_unlit":{}}},{"pbrMetallicRoughness":{"baseColorTexture":{"index":20,"extensions":{"KHR_texture_transform":{"offset":[0.00793999992,0.00793700013],"scale":[0.000240285954,0.000240292793]}}},"roughnessFactor":0.903602004},"extensions":{"KHR_materials_unlit":{}}}],"meshes":[{"primitives":[{"attributes":{"POSITION":0,"TEXCOORD_0":1},"indices":2,"material":0},{"attributes":{"POSITION":3,"TEXCOORD_0":4},"indices":5,"material":1},{"attributes":{"POSITION":6,"TEXCOORD_0":7},"indices":8,"material":2},{"attributes":{"POSITION":9,"TEXCOORD_0":10},"indices":11,"material":3},{"attributes":{"POSITION":12,"TEXCOORD_0":13},"indices":14,"material":4},{"attributes":{"POSITION":15,"TEXCOORD_0":16},"indices":17,"material":5},{"attributes":{"POSITION":18,"TEXCOORD_0":19},"indices":20,"material":6},{"attributes":{"POSITION":21,"TEXCOORD_0":22},"indices":23,"material":7},{"attributes":{"POSITION":24,"TEXCOORD_0":25},"indices":26,"material":8},{"attributes":{"POSITION":27,"TEXCOORD_0":28},"indices":29,"material":9},{"attributes":{"POSITION":30,"TEXCOORD_0":31},"indices":32,"material":10},{"attributes":{"POSITION":33,"TEXCOORD_0":34},"indices":35,"material":11},{"attributes":{"POSITION":36,"TEXCOORD_0":37},"indices":38,"material":12},{"attributes":{"POSITION":39,"TEXCOORD_0":40},"indices":41,"material":13},{"attributes":{"POSITION":42,"TEXCOORD_0":43},"indices":44,"material":14},{"attributes":{"POSITION":45,"TEXCOORD_0":46},"indices":47,"material":15},{"attributes":{"POSITION":48,"TEXCOORD_0":49},"indices":50,"material":16},{"attributes":{"POSITION":51,"TEXCOORD_0":52},"indices":53,"material":17},{"attributes":{"POSITION":54,"TEXCOORD_0":55},"indices":56,"material":18},{"attributes":{"POSITION":57,"TEXCOORD_0":58},"indices":59,"material":19},{"attributes":{"POSITION":60,"TEXCOORD_0":61},"indices":62,"material":20}]}],"nodes":[{"mesh":0,"translation":[-2.34479117,-2.29643297,-1.29694092],"scale":[0.000286082155,0.000286082155,0.000286082155]}],"scenes":[{"nodes":[0]}],"scene":0}