{"buffers":[{"uri":"scene_00128_03-obb.compressed.bin","byteLength":1438172},{"byteLength":8227416,"extensions":{"EXT_meshopt_compression":{"fallback":true}}}],"asset":{"version":"2.0","generator":"gltfpack 0.17"},"extensionsUsed":["KHR_mesh_quantization","EXT_meshopt_compression"],"extensionsRequired":["KHR_mesh_quantization","EXT_meshopt_compression"],"bufferViews":[{"buffer":1,"byteOffset":0,"byteLength":1842296,"byteStride":8,"target":34962,"extensions":{"EXT_meshopt_compression":{"buffer":0,"byteOffset":0,"byteLength":750337,"byteStride":8,"mode":"ATTRIBUTES","count":230287}}},{"buffer":1,"byteOffset":1842296,"byteLength":921148,"byteStride":4,"target":34962,"extensions":{"EXT_meshopt_compression":{"buffer":0,"byteOffset":750340,"byteLength":165045,"byteStride":4,"mode":"ATTRIBUTES","count":230287}}},{"buffer":1,"byteOffset":2763444,"byteLength":5463972,"target":34963,"extensions":{"EXT_meshopt_compression":{"buffer":0,"byteOffset":915388,"byteLength":522784,"byteStride":4,"mode":"TRIANGLES","count":1365993}}}],"accessors":[{"bufferView":0,"byteOffset":0,"componentType":5123,"count":230287,"type":"VEC3","min":[0,0,0],"max":[16383,12852,8024]},{"bufferView":1,"byteOffset":0,"componentType":5121,"count":230287,"type":"VEC4","normalized":true},{"bufferView":2,"byteOffset":0,"componentType":5125,"count":1365993,"type":"SCALAR"}],"meshes":[{"primitives":[{"attributes":{"POSITION":0,"COLOR_0":1},"indices":2}]}],"nodes":[{"mesh":0,"translation":[-2.3551755,-2.29643297,-1.31087017],"scale":[0.000329250877,0.000329250877,0.000329250877]}],"scenes":[{"nodes":[0]}],"scene":0}