{"buffers":[{"uri":"scene_00128_03-instance.compressed.bin","byteLength":1407032},{"byteLength":7833480,"extensions":{"EXT_meshopt_compression":{"fallback":true}}}],"asset":{"version":"2.0","generator":"gltfpack 0.17"},"extensionsUsed":["KHR_mesh_quantization","EXT_meshopt_compression"],"extensionsRequired":["KHR_mesh_quantization","EXT_meshopt_compression"],"bufferViews":[{"buffer":1,"byteOffset":0,"byteLength":1752472,"byteStride":8,"target":34962,"extensions":{"EXT_meshopt_compression":{"buffer":0,"byteOffset":0,"byteLength":722785,"byteStride":8,"mode":"ATTRIBUTES","count":219059}}},{"buffer":1,"byteOffset":1752472,"byteLength":876236,"byteStride":4,"target":34962,"extensions":{"EXT_meshopt_compression":{"buffer":0,"byteOffset":722788,"byteLength":185531,"byteStride":4,"mode":"ATTRIBUTES","count":219059}}},{"buffer":1,"byteOffset":2628708,"byteLength":5204772,"target":34963,"extensions":{"EXT_meshopt_compression":{"buffer":0,"byteOffset":908320,"byteLength":498710,"byteStride":4,"mode":"TRIANGLES","count":1301193}}}],"accessors":[{"bufferView":0,"byteOffset":0,"componentType":5123,"count":219059,"type":"VEC3","min":[0,0,0],"max":[16383,14721,9145]},{"bufferView":1,"byteOffset":0,"componentType":5121,"count":219059,"type":"VEC4","normalized":true},{"bufferView":2,"byteOffset":0,"componentType":5125,"count":1301193,"type":"SCALAR"}],"meshes":[{"primitives":[{"attributes":{"POSITION":0,"COLOR_0":1},"indices":2}]}],"nodes":[{"mesh":0,"translation":[-2.34479117,-2.29643297,-1.29694092],"scale":[0.000286082155,0.000286082155,0.000286082155]}],"scenes":[{"nodes":[0]}],"scene":0}