{"buffers":[{"uri":"scene_00128_03-articulation.compressed.bin","byteLength":6239936},{"byteLength":31676592,"extensions":{"EXT_meshopt_compression":{"fallback":true}}}],"asset":{"version":"2.0","generator":"gltfpack 0.17"},"extensionsUsed":["KHR_mesh_quantization","EXT_meshopt_compression"],"extensionsRequired":["KHR_mesh_quantization","EXT_meshopt_compression"],"bufferViews":[{"buffer":1,"byteOffset":0,"byteLength":2452136,"byteStride":8,"target":34962,"extensions":{"EXT_meshopt_compression":{"buffer":0,"byteOffset":0,"byteLength":922975,"byteStride":8,"mode":"ATTRIBUTES","count":306517}}},{"buffer":1,"byteOffset":2452136,"byteLength":1226068,"byteStride":4,"target":34962,"extensions":{"EXT_meshopt_compression":{"buffer":0,"byteOffset":922976,"byteLength":70541,"byteStride":4,"mode":"ATTRIBUTES","count":306517}}},{"buffer":1,"byteOffset":3678204,"byteLength":27998388,"target":34963,"extensions":{"EXT_meshopt_compression":{"buffer":0,"byteOffset":993520,"byteLength":5246414,"byteStride":4,"mode":"TRIANGLES","count":6999597}}}],"accessors":[{"bufferView":0,"byteOffset":0,"componentType":5123,"count":306517,"type":"VEC3","min":[0,0,0],"max":[16383,14521,9799]},{"bufferView":1,"byteOffset":0,"componentType":5121,"count":306517,"type":"VEC4","normalized":true},{"bufferView":2,"byteOffset":0,"componentType":5125,"count":6999597,"type":"SCALAR"}],"materials":[{"pbrMetallicRoughness":{},"doubleSided":true,"alphaMode":"BLEND"}],"meshes":[{"primitives":[{"attributes":{"POSITION":0,"COLOR_0":1},"indices":2,"material":0}]}],"nodes":[{"mesh":0,"translation":[-2.34479117,-2.29643297,-1.42021668],"scale":[0.000290036143,0.000290036143,0.000290036143]}],"scenes":[{"nodes":[0]}],"scene":0}