{"buffers":[{"uri":"scene_00103_02-articulation.compressed.bin","byteLength":1787740},{"byteLength":10808724,"extensions":{"EXT_meshopt_compression":{"fallback":true}}}],"asset":{"version":"2.0","generator":"gltfpack 0.17"},"extensionsUsed":["KHR_mesh_quantization","EXT_meshopt_compression"],"extensionsRequired":["KHR_mesh_quantization","EXT_meshopt_compression"],"bufferViews":[{"buffer":1,"byteOffset":0,"byteLength":1547424,"byteStride":8,"target":34962,"extensions":{"EXT_meshopt_compression":{"buffer":0,"byteOffset":0,"byteLength":608626,"byteStride":8,"mode":"ATTRIBUTES","count":193428}}},{"buffer":1,"byteOffset":1547424,"byteLength":773712,"byteStride":4,"target":34962,"extensions":{"EXT_meshopt_compression":{"buffer":0,"byteOffset":608628,"byteLength":36653,"byteStride":4,"mode":"ATTRIBUTES","count":193428}}},{"buffer":1,"byteOffset":2321136,"byteLength":8487588,"target":34963,"extensions":{"EXT_meshopt_compression":{"buffer":0,"byteOffset":645284,"byteLength":1142455,"byteStride":4,"mode":"TRIANGLES","count":2121897}}}],"accessors":[{"bufferView":0,"byteOffset":0,"componentType":5123,"count":193428,"type":"VEC3","min":[0,0,0],"max":[15422,10357,16383]},{"bufferView":1,"byteOffset":0,"componentType":5121,"count":193428,"type":"VEC4","normalized":true},{"bufferView":2,"byteOffset":0,"componentType":5125,"count":2121897,"type":"SCALAR"}],"materials":[{"pbrMetallicRoughness":{},"doubleSided":true,"alphaMode":"BLEND"}],"meshes":[{"primitives":[{"attributes":{"POSITION":0,"COLOR_0":1},"indices":2,"material":0}]}],"nodes":[{"mesh":0,"translation":[-1.42941678,-0.975742042,-1.54124355],"scale":[0.000179517941,0.000179517941,0.000179517941]}],"scenes":[{"nodes":[0]}],"scene":0}