{"buffers":[{"uri":"scene_00103_02-instance.compressed.bin","byteLength":845260},{"byteLength":4850580,"extensions":{"EXT_meshopt_compression":{"fallback":true}}}],"asset":{"version":"2.0","generator":"gltfpack 0.17"},"extensionsUsed":["KHR_mesh_quantization","EXT_meshopt_compression"],"extensionsRequired":["KHR_mesh_quantization","EXT_meshopt_compression"],"bufferViews":[{"buffer":1,"byteOffset":0,"byteLength":1088256,"byteStride":8,"target":34962,"extensions":{"EXT_meshopt_compression":{"buffer":0,"byteOffset":0,"byteLength":456252,"byteStride":8,"mode":"ATTRIBUTES","count":136032}}},{"buffer":1,"byteOffset":1088256,"byteLength":544128,"byteStride":4,"target":34962,"extensions":{"EXT_meshopt_compression":{"buffer":0,"byteOffset":456252,"byteLength":83716,"byteStride":4,"mode":"ATTRIBUTES","count":136032}}},{"buffer":1,"byteOffset":1632384,"byteLength":3218196,"target":34963,"extensions":{"EXT_meshopt_compression":{"buffer":0,"byteOffset":539968,"byteLength":305289,"byteStride":4,"mode":"TRIANGLES","count":804549}}}],"accessors":[{"bufferView":0,"byteOffset":0,"componentType":5123,"count":136032,"type":"VEC3","min":[0,0,0],"max":[16076,10499,16383]},{"bufferView":1,"byteOffset":0,"componentType":5121,"count":136032,"type":"VEC4","normalized":true},{"bufferView":2,"byteOffset":0,"componentType":5125,"count":804549,"type":"SCALAR"}],"meshes":[{"primitives":[{"attributes":{"POSITION":0,"COLOR_0":1},"indices":2}]}],"nodes":[{"mesh":0,"translation":[-1.42941678,-0.975742042,-1.40179431],"scale":[0.000171006119,0.000171006119,0.000171006119]}],"scenes":[{"nodes":[0]}],"scene":0}