{"buffers":[{"uri":"scene_00103_02-obb.compressed.bin","byteLength":875332},{"byteLength":5078388,"extensions":{"EXT_meshopt_compression":{"fallback":true}}}],"asset":{"version":"2.0","generator":"gltfpack 0.17"},"extensionsUsed":["KHR_mesh_quantization","EXT_meshopt_compression"],"extensionsRequired":["KHR_mesh_quantization","EXT_meshopt_compression"],"bufferViews":[{"buffer":1,"byteOffset":0,"byteLength":1140288,"byteStride":8,"target":34962,"extensions":{"EXT_meshopt_compression":{"buffer":0,"byteOffset":0,"byteLength":480586,"byteStride":8,"mode":"ATTRIBUTES","count":142536}}},{"buffer":1,"byteOffset":1140288,"byteLength":570144,"byteStride":4,"target":34962,"extensions":{"EXT_meshopt_compression":{"buffer":0,"byteOffset":480588,"byteLength":75546,"byteStride":4,"mode":"ATTRIBUTES","count":142536}}},{"buffer":1,"byteOffset":1710432,"byteLength":3367956,"target":34963,"extensions":{"EXT_meshopt_compression":{"buffer":0,"byteOffset":556136,"byteLength":319196,"byteStride":4,"mode":"TRIANGLES","count":841989}}}],"accessors":[{"bufferView":0,"byteOffset":0,"componentType":5123,"count":142536,"type":"VEC3","min":[0,0,0],"max":[16086,10393,16383]},{"bufferView":1,"byteOffset":0,"componentType":5121,"count":142536,"type":"VEC4","normalized":true},{"bufferView":2,"byteOffset":0,"componentType":5125,"count":841989,"type":"SCALAR"}],"meshes":[{"primitives":[{"attributes":{"POSITION":0,"COLOR_0":1},"indices":2}]}],"nodes":[{"mesh":0,"translation":[-1.44993401,-0.975742042,-1.42893195],"scale":[0.00017391023,0.00017391023,0.00017391023]}],"scenes":[{"nodes":[0]}],"scene":0}