{"buffers":[{"uri":"scene_00103_02-texture.compressed.bin","byteLength":7626960},{"byteLength":4614024,"extensions":{"EXT_meshopt_compression":{"fallback":true}}}],"asset":{"version":"2.0","generator":"gltfpack 0.17"},"extensionsUsed":["KHR_mesh_quantization","EXT_meshopt_compression","KHR_texture_transform","KHR_materials_unlit","KHR_texture_basisu"],"extensionsRequired":["KHR_mesh_quantization","EXT_meshopt_compression","KHR_texture_basisu"],"bufferViews":[{"buffer":0,"byteOffset":0,"byteLength":14198},{"buffer":0,"byteOffset":14200,"byteLength":21959},{"buffer":0,"byteOffset":36160,"byteLength":21259},{"buffer":0,"byteOffset":57420,"byteLength":69982},{"buffer":0,"byteOffset":127404,"byteLength":190209},{"buffer":0,"byteOffset":317616,"byteLength":176408},{"buffer":0,"byteOffset":494024,"byteLength":526066},{"buffer":0,"byteOffset":1020092,"byteLength":499830},{"buffer":0,"byteOffset":1519924,"byteLength":451416},{"buffer":0,"byteOffset":1971340,"byteLength":440213},{"buffer":0,"byteOffset":2411556,"byteLength":430491},{"buffer":0,"byteOffset":2842048,"byteLength":399396},{"buffer":0,"byteOffset":3241444,"byteLength":383958},{"buffer":0,"byteOffset":3625404,"byteLength":1401320},{"buffer":0,"byteOffset":5026724,"byteLength":1240308},{"buffer":1,"byteOffset":0,"byteLength":1556712,"byteStride":8,"target":34962,"extensions":{"EXT_meshopt_compression":{"buffer":0,"byteOffset":6267032,"byteLength":673664,"byteStride":8,"mode":"ATTRIBUTES","count":194589}}},{"buffer":1,"byteOffset":1556712,"byteLength":778356,"byteStride":4,"target":34962,"extensions":{"EXT_meshopt_compression":{"buffer":0,"byteOffset":6940696,"byteLength":342340,"byteStride":4,"mode":"ATTRIBUTES","count":194589}}},{"buffer":1,"byteOffset":2335068,"byteLength":939240,"target":34963,"extensions":{"EXT_meshopt_compression":{"buffer":0,"byteOffset":7283036,"byteLength":174171,"byteStride":2,"mode":"TRIANGLES","count":469620}}},{"buffer":1,"byteOffset":3274308,"byteLength":1339716,"target":34963,"extensions":{"EXT_meshopt_compression":{"buffer":0,"byteOffset":7457208,"byteLength":169750,"byteStride":4,"mode":"TRIANGLES","count":334929}}}],"accessors":[{"bufferView":15,"byteOffset":0,"componentType":5123,"count":386,"type":"VEC3","min":[1351,1136,334],"max":[15667,10467,16220]},{"bufferView":16,"byteOffset":0,"componentType":5123,"count":386,"type":"VEC2"},{"bufferView":17,"byteOffset":0,"componentType":5123,"count":414,"type":"SCALAR"},{"bufferView":15,"byteOffset":3088,"componentType":5123,"count":643,"type":"VEC3","min":[760,1120,57],"max":[15968,10489,16272]},{"bufferView":16,"byteOffset":1544,"componentType":5123,"count":643,"type":"VEC2"},{"bufferView":17,"byteOffset":828,"componentType":5123,"count":729,"type":"SCALAR"},{"bufferView":15,"byteOffset":8232,"componentType":5123,"count":536,"type":"VEC3","min":[821,1154,194],"max":[16054,10323,15191]},{"bufferView":16,"byteOffset":4116,"componentType":5123,"count":536,"type":"VEC2"},{"bufferView":17,"byteOffset":2286,"componentType":5123,"count":669,"type":"SCALAR"},{"bufferView":15,"byteOffset":12520,"componentType":5123,"count":1151,"type":"VEC3","min":[776,1112,148],"max":[15998,10330,16256]},{"bufferView":16,"byteOffset":6260,"componentType":5123,"count":1151,"type":"VEC2"},{"bufferView":17,"byteOffset":3624,"componentType":5123,"count":1893,"type":"SCALAR"},{"bufferView":15,"byteOffset":21728,"componentType":5123,"count":3451,"type":"VEC3","min":[727,1023,123],"max":[15996,10375,16295]},{"bufferView":16,"byteOffset":10864,"componentType":5123,"count":3451,"type":"VEC2"},{"bufferView":17,"byteOffset":7410,"componentType":5123,"count":10167,"type":"SCALAR"},{"bufferView":15,"byteOffset":49336,"componentType":5123,"count":3226,"type":"VEC3","min":[724,1012,148],"max":[16000,10345,16258]},{"bufferView":16,"byteOffset":24668,"componentType":5123,"count":3226,"type":"VEC2"},{"bufferView":17,"byteOffset":27744,"componentType":5123,"count":12450,"type":"SCALAR"},{"bufferView":15,"byteOffset":75144,"componentType":5123,"count":9071,"type":"VEC3","min":[735,1024,41],"max":[16009,10422,16324]},{"bufferView":16,"byteOffset":37572,"componentType":5123,"count":9071,"type":"VEC2"},{"bufferView":17,"byteOffset":52644,"componentType":5123,"count":38661,"type":"SCALAR"},{"bufferView":15,"byteOffset":147712,"componentType":5123,"count":8189,"type":"VEC3","min":[733,1025,137],"max":[16037,10489,16334]},{"bufferView":16,"byteOffset":73856,"componentType":5123,"count":8189,"type":"VEC2"},{"bufferView":17,"byteOffset":129966,"componentType":5123,"count":35802,"type":"SCALAR"},{"bufferView":15,"byteOffset":213224,"componentType":5123,"count":7535,"type":"VEC3","min":[697,1008,85],"max":[16018,10395,16316]},{"bufferView":16,"byteOffset":106612,"componentType":5123,"count":7535,"type":"VEC2"},{"bufferView":17,"byteOffset":201570,"componentType":5123,"count":35376,"type":"SCALAR"},{"bufferView":15,"byteOffset":273504,"componentType":5123,"count":9091,"type":"VEC3","min":[668,938,47],"max":[16027,10499,16378]},{"bufferView":16,"byteOffset":136752,"componentType":5123,"count":9091,"type":"VEC2"},{"bufferView":17,"byteOffset":272322,"componentType":5123,"count":44241,"type":"SCALAR"},{"bufferView":15,"byteOffset":346232,"componentType":5123,"count":8372,"type":"VEC3","min":[693,1107,83],"max":[15943,10409,16155]},{"bufferView":16,"byteOffset":173116,"componentType":5123,"count":8372,"type":"VEC2"},{"bufferView":17,"byteOffset":360804,"componentType":5123,"count":41016,"type":"SCALAR"},{"bufferView":15,"byteOffset":413208,"componentType":5123,"count":9440,"type":"VEC3","min":[693,862,76],"max":[16076,10393,16295]},{"bufferView":16,"byteOffset":206604,"componentType":5123,"count":9440,"type":"VEC2"},{"bufferView":17,"byteOffset":442836,"componentType":5123,"count":47271,"type":"SCALAR"},{"bufferView":15,"byteOffset":488728,"componentType":5123,"count":7602,"type":"VEC3","min":[719,1117,117],"max":[16060,10395,16270]},{"bufferView":16,"byteOffset":244364,"componentType":5123,"count":7602,"type":"VEC2"},{"bufferView":17,"byteOffset":537378,"componentType":5123,"count":37812,"type":"SCALAR"},{"bufferView":15,"byteOffset":549544,"componentType":5123,"count":31603,"type":"VEC3","min":[719,1024,130],"max":[16057,10415,16358]},{"bufferView":16,"byteOffset":274772,"componentType":5123,"count":31603,"type":"VEC2"},{"bufferView":17,"byteOffset":613002,"componentType":5123,"count":163119,"type":"SCALAR"},{"bufferView":15,"byteOffset":802368,"componentType":5123,"count":94293,"type":"VEC3","min":[0,0,0],"max":[16048,10457,16383]},{"bufferView":16,"byteOffset":401184,"componentType":5123,"count":94293,"type":"VEC2"},{"bufferView":18,"byteOffset":0,"componentType":5125,"count":334929,"type":"SCALAR"}],"images":[{"bufferView":0,"mimeType":"image/ktx2"},{"bufferView":1,"mimeType":"image/ktx2"},{"bufferView":2,"mimeType":"image/ktx2"},{"bufferView":3,"mimeType":"image/ktx2"},{"bufferView":4,"mimeType":"image/ktx2"},{"bufferView":5,"mimeType":"image/ktx2"},{"bufferView":6,"mimeType":"image/ktx2"},{"bufferView":7,"mimeType":"image/ktx2"},{"bufferView":8,"mimeType":"image/ktx2"},{"bufferView":9,"mimeType":"image/ktx2"},{"bufferView":10,"mimeType":"image/ktx2"},{"bufferView":11,"mimeType":"image/ktx2"},{"bufferView":12,"mimeType":"image/ktx2"},{"bufferView":13,"mimeType":"image/ktx2"},{"bufferView":14,"mimeType":"image/ktx2"}],"textures":[{"extensions":{"KHR_texture_basisu":{"source":0}}},{"extensions":{"KHR_texture_basisu":{"source":1}}},{"extensions":{"KHR_texture_basisu":{"source":2}}},{"extensions":{"KHR_texture_basisu":{"source":3}}},{"extensions":{"KHR_texture_basisu":{"source":4}}},{"extensions":{"KHR_texture_basisu":{"source":5}}},{"extensions":{"KHR_texture_basisu":{"source":6}}},{"extensions":{"KHR_texture_basisu":{"source":7}}},{"extensions":{"KHR_texture_basisu":{"source":8}}},{"extensions":{"KHR_texture_basisu":{"source":9}}},{"extensions":{"KHR_texture_basisu":{"source":10}}},{"extensions":{"KHR_texture_basisu":{"source":11}}},{"extensions":{"KHR_texture_basisu":{"source":12}}},{"extensions":{"KHR_texture_basisu":{"source":13}}},{"extensions":{"KHR_texture_basisu":{"source":14}}}],"materials":[{"pbrMetallicRoughness":{"baseColorTexture":{"index":0,"extensions":{"KHR_texture_transform":{"offset":[0.0106030004,0.00979200006],"scale":[0.000239226138,0.00014582467]}}},"roughnessFactor":0.903602004},"extensions":{"KHR_materials_unlit":{}}},{"pbrMetallicRoughness":{"baseColorTexture":{"index":1,"extensions":{"KHR_texture_transform":{"offset":[0.00977700017,0.00976600032],"scale":[0.000238633453,0.000239430534]}}},"roughnessFactor":0.903602004},"extensions":{"KHR_materials_unlit":{}}},{"pbrMetallicRoughness":{"baseColorTexture":{"index":2,"extensions":{"KHR_texture_transform":{"offset":[0.00976600032,0.00976600032],"scale":[0.000238501103,0.000238919412]}}},"roughnessFactor":0.903602004},"extensions":{"KHR_materials_unlit":{}}},{"pbrMetallicRoughness":{"baseColorTexture":{"index":3,"extensions":{"KHR_texture_transform":{"offset":[0.00881300028,0.0087890001],"scale":[0.000239652509,0.000239640285]}}},"roughnessFactor":0.903602004},"extensions":{"KHR_materials_unlit":{}}},{"pbrMetallicRoughness":{"baseColorTexture":{"index":4,"extensions":{"KHR_texture_transform":{"offset":[0.00830699969,0.00836199988],"scale":[0.000240014662,0.000240011475]}}},"roughnessFactor":0.903602004},"extensions":{"KHR_materials_unlit":{}}},{"pbrMetallicRoughness":{"baseColorTexture":{"index":5,"extensions":{"KHR_texture_transform":{"offset":[0.00832900032,0.00835299958],"scale":[0.000239883768,0.00023994701]}}},"roughnessFactor":0.903602004},"extensions":{"KHR_materials_unlit":{}}},{"pbrMetallicRoughness":{"baseColorTexture":{"index":6,"extensions":{"KHR_texture_transform":{"offset":[0.00806500018,0.00806100015],"scale":[0.000240187554,0.000240168491]}}},"roughnessFactor":0.903602004},"extensions":{"KHR_materials_unlit":{}}},{"pbrMetallicRoughness":{"baseColorTexture":{"index":7,"extensions":{"KHR_texture_transform":{"offset":[0.0081430003,0.00805899967],"scale":[0.000240167021,0.000240188281]}}},"roughnessFactor":0.903602004},"extensions":{"KHR_materials_unlit":{}}},{"pbrMetallicRoughness":{"baseColorTexture":{"index":8,"extensions":{"KHR_texture_transform":{"offset":[0.00809300039,0.00806200039],"scale":[0.000240196823,0.00024008083]}}},"roughnessFactor":0.903602004},"extensions":{"KHR_materials_unlit":{}}},{"pbrMetallicRoughness":{"baseColorTexture":{"index":9,"extensions":{"KHR_texture_transform":{"offset":[0.00819499977,0.00816099998],"scale":[0.000240115507,0.000240145295]}}},"roughnessFactor":0.903602004},"extensions":{"KHR_materials_unlit":{}}},{"pbrMetallicRoughness":{"baseColorTexture":{"index":10,"extensions":{"KHR_texture_transform":{"offset":[0.0081770001,0.00809899997],"scale":[0.000239977293,0.00024013943]}}},"roughnessFactor":0.903602004},"extensions":{"KHR_materials_unlit":{}}},{"pbrMetallicRoughness":{"baseColorTexture":{"index":11,"extensions":{"KHR_texture_transform":{"offset":[0.00811900012,0.00807000045],"scale":[0.000240073015,0.00024020196]}}},"roughnessFactor":0.903602004},"extensions":{"KHR_materials_unlit":{}}},{"pbrMetallicRoughness":{"baseColorTexture":{"index":12,"extensions":{"KHR_texture_transform":{"offset":[0.00810000021,0.00806100015],"scale":[0.000240194146,0.000240145542]}}},"roughnessFactor":0.903602004},"extensions":{"KHR_materials_unlit":{}}},{"pbrMetallicRoughness":{"baseColorTexture":{"index":13,"extensions":{"KHR_texture_transform":{"offset":[0.00794900022,0.00795300025],"scale":[0.000240268622,0.000240290348]}}},"roughnessFactor":0.903602004},"extensions":{"KHR_materials_unlit":{}}},{"pbrMetallicRoughness":{"baseColorTexture":{"index":14,"extensions":{"KHR_texture_transform":{"offset":[0.00797300041,0.00798400026],"scale":[0.000240263733,0.000240312831]}}},"roughnessFactor":0.903602004},"extensions":{"KHR_materials_unlit":{}}}],"meshes":[{"primitives":[{"attributes":{"POSITION":0,"TEXCOORD_0":1},"indices":2,"material":0},{"attributes":{"POSITION":3,"TEXCOORD_0":4},"indices":5,"material":1},{"attributes":{"POSITION":6,"TEXCOORD_0":7},"indices":8,"material":2},{"attributes":{"POSITION":9,"TEXCOORD_0":10},"indices":11,"material":3},{"attributes":{"POSITION":12,"TEXCOORD_0":13},"indices":14,"material":4},{"attributes":{"POSITION":15,"TEXCOORD_0":16},"indices":17,"material":5},{"attributes":{"POSITION":18,"TEXCOORD_0":19},"indices":20,"material":6},{"attributes":{"POSITION":21,"TEXCOORD_0":22},"indices":23,"material":7},{"attributes":{"POSITION":24,"TEXCOORD_0":25},"indices":26,"material":8},{"attributes":{"POSITION":27,"TEXCOORD_0":28},"indices":29,"material":9},{"attributes":{"POSITION":30,"TEXCOORD_0":31},"indices":32,"material":10},{"attributes":{"POSITION":33,"TEXCOORD_0":34},"indices":35,"material":11},{"attributes":{"POSITION":36,"TEXCOORD_0":37},"indices":38,"material":12},{"attributes":{"POSITION":39,"TEXCOORD_0":40},"indices":41,"material":13},{"attributes":{"POSITION":42,"TEXCOORD_0":43},"indices":44,"material":14}]}],"nodes":[{"mesh":0,"translation":[-1.42941678,-0.975742042,-1.40179431],"scale":[0.000171006119,0.000171006119,0.000171006119]}],"scenes":[{"nodes":[0]}],"scene":0}