{"buffers":[{"uri":"scene_00024_00-obb.compressed.bin","byteLength":1256216},{"byteLength":7902912,"extensions":{"EXT_meshopt_compression":{"fallback":true}}}],"asset":{"version":"2.0","generator":"gltfpack 0.17"},"extensionsUsed":["KHR_mesh_quantization","EXT_meshopt_compression"],"extensionsRequired":["KHR_mesh_quantization","EXT_meshopt_compression"],"bufferViews":[{"buffer":1,"byteOffset":0,"byteLength":1773912,"byteStride":8,"target":34962,"extensions":{"EXT_meshopt_compression":{"buffer":0,"byteOffset":0,"byteLength":667718,"byteStride":8,"mode":"ATTRIBUTES","count":221739}}},{"buffer":1,"byteOffset":1773912,"byteLength":886956,"byteStride":4,"target":34962,"extensions":{"EXT_meshopt_compression":{"buffer":0,"byteOffset":667720,"byteLength":84280,"byteStride":4,"mode":"ATTRIBUTES","count":221739}}},{"buffer":1,"byteOffset":2660868,"byteLength":5242044,"target":34963,"extensions":{"EXT_meshopt_compression":{"buffer":0,"byteOffset":752000,"byteLength":504215,"byteStride":4,"mode":"TRIANGLES","count":1310511}}}],"accessors":[{"bufferView":0,"byteOffset":0,"componentType":5123,"count":221739,"type":"VEC3","min":[0,0,0],"max":[16383,11810,5196]},{"bufferView":1,"byteOffset":0,"componentType":5121,"count":221739,"type":"VEC4","normalized":true},{"bufferView":2,"byteOffset":0,"componentType":5125,"count":1310511,"type":"SCALAR"}],"meshes":[{"primitives":[{"attributes":{"POSITION":0,"COLOR_0":1},"indices":2}]}],"nodes":[{"mesh":0,"translation":[-4.29699945,-3.09328294,-1.39869297],"scale":[0.000539615983,0.000539615983,0.000539615983]}],"scenes":[{"nodes":[0]}],"scene":0}