{"buffers":[{"uri":"scene_00024_00-texture.compressed.bin","byteLength":11873044},{"byteLength":6405204,"extensions":{"EXT_meshopt_compression":{"fallback":true}}}],"asset":{"version":"2.0","generator":"gltfpack 0.17"},"extensionsUsed":["KHR_mesh_quantization","EXT_meshopt_compression","KHR_texture_transform","KHR_materials_unlit","KHR_texture_basisu"],"extensionsRequired":["KHR_mesh_quantization","EXT_meshopt_compression","KHR_texture_basisu"],"bufferViews":[{"buffer":0,"byteOffset":0,"byteLength":4269},{"buffer":0,"byteOffset":4272,"byteLength":22142},{"buffer":0,"byteOffset":26416,"byteLength":22170},{"buffer":0,"byteOffset":48588,"byteLength":73406},{"buffer":0,"byteOffset":121996,"byteLength":198209},{"buffer":0,"byteOffset":320208,"byteLength":182859},{"buffer":0,"byteOffset":503068,"byteLength":556210},{"buffer":0,"byteOffset":1059280,"byteLength":549950},{"buffer":0,"byteOffset":1609232,"byteLength":544385},{"buffer":0,"byteOffset":2153620,"byteLength":502351},{"buffer":0,"byteOffset":2655972,"byteLength":506493},{"buffer":0,"byteOffset":3162468,"byteLength":488990},{"buffer":0,"byteOffset":3651460,"byteLength":461748},{"buffer":0,"byteOffset":4113208,"byteLength":477807},{"buffer":0,"byteOffset":4591016,"byteLength":439608},{"buffer":0,"byteOffset":5030624,"byteLength":1722187},{"buffer":0,"byteOffset":6752812,"byteLength":1675014},{"buffer":0,"byteOffset":8427828,"byteLength":1524578},{"buffer":1,"byteOffset":0,"byteLength":2193488,"byteStride":8,"target":34962,"extensions":{"EXT_meshopt_compression":{"buffer":0,"byteOffset":9952408,"byteLength":878825,"byteStride":8,"mode":"ATTRIBUTES","count":274186}}},{"buffer":1,"byteOffset":2193488,"byteLength":1096744,"byteStride":4,"target":34962,"extensions":{"EXT_meshopt_compression":{"buffer":0,"byteOffset":10831236,"byteLength":534800,"byteStride":4,"mode":"ATTRIBUTES","count":274186}}},{"buffer":1,"byteOffset":3290232,"byteLength":2011872,"target":34963,"extensions":{"EXT_meshopt_compression":{"buffer":0,"byteOffset":11366036,"byteLength":377429,"byteStride":2,"mode":"TRIANGLES","count":1005936}}},{"buffer":1,"byteOffset":5302104,"byteLength":1103100,"target":34963,"extensions":{"EXT_meshopt_compression":{"buffer":0,"byteOffset":11743468,"byteLength":129574,"byteStride":4,"mode":"TRIANGLES","count":275775}}}],"accessors":[{"bufferView":18,"byteOffset":0,"componentType":5123,"count":191,"type":"VEC3","min":[256,489,38],"max":[13809,12002,5861]},{"bufferView":19,"byteOffset":0,"componentType":5123,"count":191,"type":"VEC2"},{"bufferView":20,"byteOffset":0,"componentType":5123,"count":213,"type":"SCALAR"},{"bufferView":18,"byteOffset":1528,"componentType":5123,"count":870,"type":"VEC3","min":[2111,672,26],"max":[16216,12105,5889]},{"bufferView":19,"byteOffset":764,"componentType":5123,"count":870,"type":"VEC2"},{"bufferView":20,"byteOffset":426,"componentType":5123,"count":1251,"type":"SCALAR"},{"bufferView":18,"byteOffset":8488,"componentType":5123,"count":709,"type":"VEC3","min":[1311,1648,52],"max":[16223,12137,5888]},{"bufferView":19,"byteOffset":4244,"componentType":5123,"count":709,"type":"VEC2"},{"bufferView":20,"byteOffset":2928,"componentType":5123,"count":1164,"type":"SCALAR"},{"bufferView":18,"byteOffset":14160,"componentType":5123,"count":1576,"type":"VEC3","min":[1491,780,25],"max":[16117,12007,5868]},{"bufferView":19,"byteOffset":7080,"componentType":5123,"count":1576,"type":"VEC2"},{"bufferView":20,"byteOffset":5256,"componentType":5123,"count":2844,"type":"SCALAR"},{"bufferView":18,"byteOffset":26768,"componentType":5123,"count":4580,"type":"VEC3","min":[1269,169,15],"max":[15474,11560,5886]},{"bufferView":19,"byteOffset":13384,"componentType":5123,"count":4580,"type":"VEC2"},{"bufferView":20,"byteOffset":10944,"componentType":5123,"count":15477,"type":"SCALAR"},{"bufferView":18,"byteOffset":63408,"componentType":5123,"count":4508,"type":"VEC3","min":[480,21,35],"max":[16192,11903,5899]},{"bufferView":19,"byteOffset":31704,"componentType":5123,"count":4508,"type":"VEC2"},{"bufferView":20,"byteOffset":41898,"componentType":5123,"count":18162,"type":"SCALAR"},{"bufferView":18,"byteOffset":99472,"componentType":5123,"count":13338,"type":"VEC3","min":[709,1831,35],"max":[15386,11902,5905]},{"bufferView":19,"byteOffset":49736,"componentType":5123,"count":13338,"type":"VEC2"},{"bufferView":20,"byteOffset":78222,"componentType":5123,"count":60120,"type":"SCALAR"},{"bufferView":18,"byteOffset":206176,"componentType":5123,"count":15584,"type":"VEC3","min":[0,0,0],"max":[15984,12094,5911]},{"bufferView":19,"byteOffset":103088,"componentType":5123,"count":15584,"type":"VEC2"},{"bufferView":20,"byteOffset":198462,"componentType":5123,"count":75462,"type":"SCALAR"},{"bufferView":18,"byteOffset":330848,"componentType":5123,"count":12748,"type":"VEC3","min":[1206,1633,36],"max":[16383,12243,5874]},{"bufferView":19,"byteOffset":165424,"componentType":5123,"count":12748,"type":"VEC2"},{"bufferView":20,"byteOffset":349386,"componentType":5123,"count":62043,"type":"SCALAR"},{"bufferView":18,"byteOffset":432832,"componentType":5123,"count":13625,"type":"VEC3","min":[2968,404,35],"max":[13706,11698,5911]},{"bufferView":19,"byteOffset":216416,"componentType":5123,"count":13625,"type":"VEC2"},{"bufferView":20,"byteOffset":473472,"componentType":5123,"count":67644,"type":"SCALAR"},{"bufferView":18,"byteOffset":541832,"componentType":5123,"count":10786,"type":"VEC3","min":[3242,677,44],"max":[13938,11379,5874]},{"bufferView":19,"byteOffset":270916,"componentType":5123,"count":10786,"type":"VEC2"},{"bufferView":20,"byteOffset":608760,"componentType":5123,"count":53028,"type":"SCALAR"},{"bufferView":18,"byteOffset":628120,"componentType":5123,"count":11070,"type":"VEC3","min":[1188,1764,52],"max":[13897,9175,5879]},{"bufferView":19,"byteOffset":314060,"componentType":5123,"count":11070,"type":"VEC2"},{"bufferView":20,"byteOffset":714816,"componentType":5123,"count":55368,"type":"SCALAR"},{"bufferView":18,"byteOffset":716680,"componentType":5123,"count":12839,"type":"VEC3","min":[673,1874,53],"max":[13919,10054,5887]},{"bufferView":19,"byteOffset":358340,"componentType":5123,"count":12839,"type":"VEC2"},{"bufferView":20,"byteOffset":825552,"componentType":5123,"count":66162,"type":"SCALAR"},{"bufferView":18,"byteOffset":819392,"componentType":5123,"count":11372,"type":"VEC3","min":[3722,1714,23],"max":[13625,10085,5855]},{"bufferView":19,"byteOffset":409696,"componentType":5123,"count":11372,"type":"VEC2"},{"bufferView":20,"byteOffset":957876,"componentType":5123,"count":57882,"type":"SCALAR"},{"bufferView":18,"byteOffset":910368,"componentType":5123,"count":12637,"type":"VEC3","min":[1035,1971,47],"max":[13934,10037,5876]},{"bufferView":19,"byteOffset":455184,"componentType":5123,"count":12637,"type":"VEC2"},{"bufferView":20,"byteOffset":1073640,"componentType":5123,"count":65457,"type":"SCALAR"},{"bufferView":18,"byteOffset":1011464,"componentType":5123,"count":37068,"type":"VEC3","min":[3112,1823,48],"max":[13934,11576,5877]},{"bufferView":19,"byteOffset":505732,"componentType":5123,"count":37068,"type":"VEC2"},{"bufferView":20,"byteOffset":1204554,"componentType":5123,"count":196119,"type":"SCALAR"},{"bufferView":18,"byteOffset":1308008,"componentType":5123,"count":72622,"type":"VEC3","min":[121,27,0],"max":[16383,12238,5905]},{"bufferView":19,"byteOffset":654004,"componentType":5123,"count":72622,"type":"VEC2"},{"bufferView":21,"byteOffset":0,"componentType":5125,"count":275775,"type":"SCALAR"},{"bufferView":18,"byteOffset":1888984,"componentType":5123,"count":38063,"type":"VEC3","min":[1311,935,17],"max":[13397,10580,5901]},{"bufferView":19,"byteOffset":944492,"componentType":5123,"count":38063,"type":"VEC2"},{"bufferView":20,"byteOffset":1596792,"componentType":5123,"count":207540,"type":"SCALAR"}],"images":[{"bufferView":0,"mimeType":"image/ktx2"},{"bufferView":1,"mimeType":"image/ktx2"},{"bufferView":2,"mimeType":"image/ktx2"},{"bufferView":3,"mimeType":"image/ktx2"},{"bufferView":4,"mimeType":"image/ktx2"},{"bufferView":5,"mimeType":"image/ktx2"},{"bufferView":6,"mimeType":"image/ktx2"},{"bufferView":7,"mimeType":"image/ktx2"},{"bufferView":8,"mimeType":"image/ktx2"},{"bufferView":9,"mimeType":"image/ktx2"},{"bufferView":10,"mimeType":"image/ktx2"},{"bufferView":11,"mimeType":"image/ktx2"},{"bufferView":12,"mimeType":"image/ktx2"},{"bufferView":13,"mimeType":"image/ktx2"},{"bufferView":14,"mimeType":"image/ktx2"},{"bufferView":15,"mimeType":"image/ktx2"},{"bufferView":16,"mimeType":"image/ktx2"},{"bufferView":17,"mimeType":"image/ktx2"}],"textures":[{"extensions":{"KHR_texture_basisu":{"source":0}}},{"extensions":{"KHR_texture_basisu":{"source":1}}},{"extensions":{"KHR_texture_basisu":{"source":2}}},{"extensions":{"KHR_texture_basisu":{"source":3}}},{"extensions":{"KHR_texture_basisu":{"source":4}}},{"extensions":{"KHR_texture_basisu":{"source":5}}},{"extensions":{"KHR_texture_basisu":{"source":6}}},{"extensions":{"KHR_texture_basisu":{"source":7}}},{"extensions":{"KHR_texture_basisu":{"source":8}}},{"extensions":{"KHR_texture_basisu":{"source":9}}},{"extensions":{"KHR_texture_basisu":{"source":10}}},{"extensions":{"KHR_texture_basisu":{"source":11}}},{"extensions":{"KHR_texture_basisu":{"source":12}}},{"extensions":{"KHR_texture_basisu":{"source":13}}},{"extensions":{"KHR_texture_basisu":{"source":14}}},{"extensions":{"KHR_texture_basisu":{"source":15}}},{"extensions":{"KHR_texture_basisu":{"source":16}}},{"extensions":{"KHR_texture_basisu":{"source":17}}}],"materials":[{"pbrMetallicRoughness":{"baseColorTexture":{"index":0,"extensions":{"KHR_texture_transform":{"offset":[0.0117260003,0.0125409998],"scale":[0.00023524127,0.000113640293]}}},"roughnessFactor":0.903602004},"extensions":{"KHR_materials_unlit":{}}},{"pbrMetallicRoughness":{"baseColorTexture":{"index":1,"extensions":{"KHR_texture_transform":{"offset":[0.0101030003,0.0105109997],"scale":[0.000239348243,0.000239248606]}}},"roughnessFactor":0.903602004},"extensions":{"KHR_materials_unlit":{}}},{"pbrMetallicRoughness":{"baseColorTexture":{"index":2,"extensions":{"KHR_texture_transform":{"offset":[0.00976600032,0.00995900016],"scale":[0.000238952634,0.000239284753]}}},"roughnessFactor":0.903602004},"extensions":{"KHR_materials_unlit":{}}},{"pbrMetallicRoughness":{"baseColorTexture":{"index":3,"extensions":{"KHR_texture_transform":{"offset":[0.00881799962,0.00879599992],"scale":[0.000239581699,0.000239666188]}}},"roughnessFactor":0.903602004},"extensions":{"KHR_materials_unlit":{}}},{"pbrMetallicRoughness":{"baseColorTexture":{"index":4,"extensions":{"KHR_texture_transform":{"offset":[0.0083039999,0.00832100026],"scale":[0.000239926972,0.000240021254]}}},"roughnessFactor":0.903602004},"extensions":{"KHR_materials_unlit":{}}},{"pbrMetallicRoughness":{"baseColorTexture":{"index":5,"extensions":{"KHR_texture_transform":{"offset":[0.00835699961,0.00830500014],"scale":[0.000239967281,0.000240010253]}}},"roughnessFactor":0.903602004},"extensions":{"KHR_materials_unlit":{}}},{"pbrMetallicRoughness":{"baseColorTexture":{"index":6,"extensions":{"KHR_texture_transform":{"offset":[0.00805700012,0.00807099976],"scale":[0.000240202688,0.000240191453]}}},"roughnessFactor":0.903602004},"extensions":{"KHR_materials_unlit":{}}},{"pbrMetallicRoughness":{"baseColorTexture":{"index":7,"extensions":{"KHR_texture_transform":{"offset":[0.00813100021,0.00808199961],"scale":[0.000240178517,0.000240161418]}}},"roughnessFactor":0.903602004},"extensions":{"KHR_materials_unlit":{}}},{"pbrMetallicRoughness":{"baseColorTexture":{"index":8,"extensions":{"KHR_texture_transform":{"offset":[0.00819300022,0.00807700027],"scale":[0.000240147987,0.000240119174]}}},"roughnessFactor":0.903602004},"extensions":{"KHR_materials_unlit":{}}},{"pbrMetallicRoughness":{"baseColorTexture":{"index":9,"extensions":{"KHR_texture_transform":{"offset":[0.0080629997,0.00813699979],"scale":[0.000240168243,0.000240178269]}}},"roughnessFactor":0.903602004},"extensions":{"KHR_materials_unlit":{}}},{"pbrMetallicRoughness":{"baseColorTexture":{"index":10,"extensions":{"KHR_texture_transform":{"offset":[0.00807799958,0.00808500033],"scale":[0.000240182184,0.000240163121]}}},"roughnessFactor":0.903602004},"extensions":{"KHR_materials_unlit":{}}},{"pbrMetallicRoughness":{"baseColorTexture":{"index":11,"extensions":{"KHR_texture_transform":{"offset":[0.00812700018,0.00806600042],"scale":[0.00024017191,0.000240198293]}}},"roughnessFactor":0.903602004},"extensions":{"KHR_materials_unlit":{}}},{"pbrMetallicRoughness":{"baseColorTexture":{"index":12,"extensions":{"KHR_texture_transform":{"offset":[0.00817000028,0.00810400024],"scale":[0.000240169466,0.000239612447]}}},"roughnessFactor":0.903602004},"extensions":{"KHR_materials_unlit":{}}},{"pbrMetallicRoughness":{"baseColorTexture":{"index":13,"extensions":{"KHR_texture_transform":{"offset":[0.00806699973,0.00806799997],"scale":[0.000240146517,0.000240143097]}}},"roughnessFactor":0.903602004},"extensions":{"KHR_materials_unlit":{}}},{"pbrMetallicRoughness":{"baseColorTexture":{"index":14,"extensions":{"KHR_texture_transform":{"offset":[0.00808400009,0.00808199961],"scale":[0.000240184614,0.000240167035]}}},"roughnessFactor":0.903602004},"extensions":{"KHR_materials_unlit":{}}},{"pbrMetallicRoughness":{"baseColorTexture":{"index":15,"extensions":{"KHR_texture_transform":{"offset":[0.00793599989,0.00793700013],"scale":[0.000240230278,0.000240284484]}}},"roughnessFactor":0.903602004},"extensions":{"KHR_materials_unlit":{}}},{"pbrMetallicRoughness":{"baseColorTexture":{"index":16,"extensions":{"KHR_texture_transform":{"offset":[0.00796599966,0.00796800014],"scale":[0.000240277412,0.000240218549]}}},"roughnessFactor":0.903602004},"extensions":{"KHR_materials_unlit":{}}},{"pbrMetallicRoughness":{"baseColorTexture":{"index":17,"extensions":{"KHR_texture_transform":{"offset":[0.0079420004,0.00798400026],"scale":[0.000240279362,0.000240231253]}}},"roughnessFactor":0.903602004},"extensions":{"KHR_materials_unlit":{}}}],"meshes":[{"primitives":[{"attributes":{"POSITION":0,"TEXCOORD_0":1},"indices":2,"material":0},{"attributes":{"POSITION":3,"TEXCOORD_0":4},"indices":5,"material":1},{"attributes":{"POSITION":6,"TEXCOORD_0":7},"indices":8,"material":2},{"attributes":{"POSITION":9,"TEXCOORD_0":10},"indices":11,"material":3},{"attributes":{"POSITION":12,"TEXCOORD_0":13},"indices":14,"material":4},{"attributes":{"POSITION":15,"TEXCOORD_0":16},"indices":17,"material":5},{"attributes":{"POSITION":18,"TEXCOORD_0":19},"indices":20,"material":6},{"attributes":{"POSITION":21,"TEXCOORD_0":22},"indices":23,"material":7},{"attributes":{"POSITION":24,"TEXCOORD_0":25},"indices":26,"material":8},{"attributes":{"POSITION":27,"TEXCOORD_0":28},"indices":29,"material":9},{"attributes":{"POSITION":30,"TEXCOORD_0":31},"indices":32,"material":10},{"attributes":{"POSITION":33,"TEXCOORD_0":34},"indices":35,"material":11},{"attributes":{"POSITION":36,"TEXCOORD_0":37},"indices":38,"material":12},{"attributes":{"POSITION":39,"TEXCOORD_0":40},"indices":41,"material":13},{"attributes":{"POSITION":42,"TEXCOORD_0":43},"indices":44,"material":14},{"attributes":{"POSITION":45,"TEXCOORD_0":46},"indices":47,"material":15},{"attributes":{"POSITION":48,"TEXCOORD_0":49},"indices":50,"material":16},{"attributes":{"POSITION":51,"TEXCOORD_0":52},"indices":53,"material":17}]}],"nodes":[{"mesh":0,"translation":[-3.85099792,-2.87249398,-1.38869298],"scale":[0.000469765771,0.000469765771,0.000469765771]}],"scenes":[{"nodes":[0]}],"scene":0}