{"buffers":[{"uri":"scene_00024_00-articulation.compressed.bin","byteLength":3181948},{"byteLength":19048692,"extensions":{"EXT_meshopt_compression":{"fallback":true}}}],"asset":{"version":"2.0","generator":"gltfpack 0.17"},"extensionsUsed":["KHR_mesh_quantization","EXT_meshopt_compression"],"extensionsRequired":["KHR_mesh_quantization","EXT_meshopt_compression"],"bufferViews":[{"buffer":1,"byteOffset":0,"byteLength":2284800,"byteStride":8,"target":34962,"extensions":{"EXT_meshopt_compression":{"buffer":0,"byteOffset":0,"byteLength":802480,"byteStride":8,"mode":"ATTRIBUTES","count":285600}}},{"buffer":1,"byteOffset":2284800,"byteLength":1142400,"byteStride":4,"target":34962,"extensions":{"EXT_meshopt_compression":{"buffer":0,"byteOffset":802480,"byteLength":47047,"byteStride":4,"mode":"ATTRIBUTES","count":285600}}},{"buffer":1,"byteOffset":3427200,"byteLength":15621492,"target":34963,"extensions":{"EXT_meshopt_compression":{"buffer":0,"byteOffset":849528,"byteLength":2332418,"byteStride":4,"mode":"TRIANGLES","count":3905373}}}],"accessors":[{"bufferView":0,"byteOffset":0,"componentType":5123,"count":285600,"type":"VEC3","min":[0,0,0],"max":[16383,12243,6192]},{"bufferView":1,"byteOffset":0,"componentType":5121,"count":285600,"type":"VEC4","normalized":true},{"bufferView":2,"byteOffset":0,"componentType":5125,"count":3905373,"type":"SCALAR"}],"materials":[{"pbrMetallicRoughness":{},"doubleSided":true,"alphaMode":"BLEND"}],"meshes":[{"primitives":[{"attributes":{"POSITION":0,"COLOR_0":1},"indices":2,"material":0}]}],"nodes":[{"mesh":0,"translation":[-3.85099792,-2.87249398,-1.5206027],"scale":[0.000469765771,0.000469765771,0.000469765771]}],"scenes":[{"nodes":[0]}],"scene":0}